<?xml version="1.0" encoding="utf-8" ?>
<svg baseProfile="full" height="106mm" version="1.1" viewBox="0 0 744.094470 375.590540" width="210mm" xmlns="http://www.w3.org/2000/svg" xmlns:ev="http://www.w3.org/2001/xml-events" xmlns:xlink="http://www.w3.org/1999/xlink"><defs /><rect fill="white" height="100%" width="100%" x="0" y="0" /><g><text font-family="Arial,Helvetica" font-size="12.0" font-weight="bold" x="17.71654" y="38.97638">Receipt</text><text font-family="Arial,Helvetica" font-size="8.0" font-weight="bold" x="17.71654" y="56.69291">Account / Payable to</text><text font-family="Arial,Helvetica" font-size="10.0" x="17.71654" y="69.09449">CH44 3199 9123 0008 8901 2</text><text font-family="Arial,Helvetica" font-size="10.0" x="17.71654" y="81.49606">Robert Schneider AG</text><text font-family="Arial,Helvetica" font-size="10.0" x="17.71654" y="93.89764">Rue du Lac 1268</text><text font-family="Arial,Helvetica" font-size="10.0" x="17.71654" y="106.29921">CH-2501 Biel</text><text font-family="Arial,Helvetica" font-size="8.0" font-weight="bold" x="17.71654" y="122.24409">Reference</text><text font-family="Arial,Helvetica" font-size="10.0" x="17.71654" y="134.64567">21 00000 00003 13947 14300 09017</text><text font-family="Arial,Helvetica" font-size="8.0" font-weight="bold" x="17.71654" y="150.59055">Payable by (name/address)</text><g><line stroke="black" stroke-linecap="square" stroke-width="0.26mm" x1="17.71654" x2="17.71654" y1="162.99212" y2="170.07873" /><line stroke="black" stroke-linecap="square" stroke-width="0.26mm" x1="17.71654" x2="28.34646" y1="162.99212" y2="162.99212" /><line stroke="black" stroke-linecap="square" stroke-width="0.26mm" x1="17.71654" x2="17.71654" y1="251.57479" y2="244.48818" /><line stroke="black" stroke-linecap="square" stroke-width="0.26mm" x1="17.71654" x2="28.34646" y1="251.57479" y2="251.57479" /><line stroke="black" stroke-linecap="square" stroke-width="0.26mm" x1="191.33858" x2="201.9685" y1="162.99212" y2="162.99212" /><line stroke="black" stroke-linecap="square" stroke-width="0.26mm" x1="201.9685" x2="201.9685" y1="162.99212" y2="170.07873" /><line stroke="black" stroke-linecap="square" stroke-width="0.26mm" x1="191.33858" x2="201.9685" y1="251.57479" y2="251.57479" /><line stroke="black" stroke-linecap="square" stroke-width="0.26mm" x1="201.9685" x2="201.9685" y1="251.57479" y2="244.48818" /></g><text font-family="Arial,Helvetica" font-size="8.0" font-weight="bold" x="17.71654" y="258.66141">Currency</text><text font-family="Arial,Helvetica" font-size="8.0" font-weight="bold" x="60.23622" y="258.66141">Amount</text><text font-family="Arial,Helvetica" font-size="10.0" x="17.71654" y="276.37795">CHF</text><g><line stroke="black" stroke-linecap="square" stroke-width="0.26mm" x1="106.29921" x2="106.29921" y1="251.5748" y2="258.66141" /><line stroke="black" stroke-linecap="square" stroke-width="0.26mm" x1="106.29921" x2="116.92913" y1="251.5748" y2="251.5748" /><line stroke="black" stroke-linecap="square" stroke-width="0.26mm" x1="106.29921" x2="106.29921" y1="290.55118" y2="283.46457" /><line stroke="black" stroke-linecap="square" stroke-width="0.26mm" x1="106.29921" x2="116.92913" y1="290.55118" y2="290.55118" /><line stroke="black" stroke-linecap="square" stroke-width="0.26mm" x1="191.33858" x2="201.9685" y1="251.5748" y2="251.5748" /><line stroke="black" stroke-linecap="square" stroke-width="0.26mm" x1="201.9685" x2="201.9685" y1="251.5748" y2="258.66141" /><line stroke="black" stroke-linecap="square" stroke-width="0.26mm" x1="191.33858" x2="201.9685" y1="290.55118" y2="290.55118" /><line stroke="black" stroke-linecap="square" stroke-width="0.26mm" x1="201.9685" x2="201.9685" y1="290.55118" y2="283.46457" /></g><text font-family="Arial,Helvetica" font-size="8.0" font-weight="bold" text-anchor="end" x="201.96849" y="308.26771">Acceptance point</text><line fill="none" stroke="black" stroke-dasharray="2 2" x1="0" x2="744.09447" y1="4.04291" y2="4.04291" /><path d="m 0.764814,4.283977 c 0.337358,0.143009 0.862476,-0.115279 0.775145,-0.523225 -0.145918,-0.497473 -0.970289,-0.497475 -1.116209,-2e-6 -0.0636,0.23988 0.128719,0.447618 0.341064,0.523227 z m 3.875732,-1.917196 c 1.069702,0.434082 2.139405,0.868164 3.209107,1.302246 -0.295734,0.396158 -0.866482,0.368049 -1.293405,0.239509 -0.876475,-0.260334 -1.71099,-0.639564 -2.563602,-0.966653 -0.132426,-0.04295 -0.265139,-0.124595 -0.397393,-0.144327 -0.549814,0.22297 -1.09134,0.477143 -1.667719,0.62213 -0.07324,0.232838 0.150307,0.589809 -0.07687,0.842328 -0.311347,0.532157 -1.113542,0.624698 -1.561273,0.213165 -0.384914,-0.301216 -0.379442,-0.940948 7e-6,-1.245402 0.216628,-0.191603 0.506973,-0.286636 0.794095,-0.258382 0.496639,0.01219 1.013014,-0.04849 1.453829,-0.289388 0.437126,-0.238777 0.07006,-0.726966 -0.300853,-0.765416 -0.420775,-0.157424 -0.870816,-0.155853 -1.312747,-0.158623 -0.527075,-0.0016 -1.039244,-0.509731 -0.904342,-1.051293 0.137956,-0.620793 0.952738,-0.891064 1.47649,-0.573851 0.371484,0.188118 0.594679,0.675747 0.390321,1.062196 0.09829,0.262762 0.586716,0.204086 0.826177,0.378204 0.301582,0.119237 0.600056,0.246109 0.899816,0.36981 0.89919,-0.349142 1.785653,-0.732692 2.698347,-1.045565 0.459138,-0.152333 1.033472,-0.283325 1.442046,0.05643 0.217451,0.135635 -0.06954,0.160294 -0.174725,0.220936 -0.979101,0.397316 -1.958202,0.794633 -2.937303,1.19195 z m -3.44165,-1.917196 c -0.338434,-0.14399 -0.861225,0.116943 -0.775146,0.524517 0.143274,0.477916 0.915235,0.499056 1.10329,0.04328 0.09674,-0.247849 -0.09989,-0.490324 -0.328144,-0.567796 z" style="fill:#000000;fill-opacity:1;fill-rule:nonzero;stroke:none" transform="scale(1.9) translate(24,0)" /><line fill="none" stroke="black" stroke-dasharray="2 2" x1="219.68503" x2="219.68503" y1="3.54331" y2="372.04724" /><path d="m 0.764814,4.283977 c 0.337358,0.143009 0.862476,-0.115279 0.775145,-0.523225 -0.145918,-0.497473 -0.970289,-0.497475 -1.116209,-2e-6 -0.0636,0.23988 0.128719,0.447618 0.341064,0.523227 z m 3.875732,-1.917196 c 1.069702,0.434082 2.139405,0.868164 3.209107,1.302246 -0.295734,0.396158 -0.866482,0.368049 -1.293405,0.239509 -0.876475,-0.260334 -1.71099,-0.639564 -2.563602,-0.966653 -0.132426,-0.04295 -0.265139,-0.124595 -0.397393,-0.144327 -0.549814,0.22297 -1.09134,0.477143 -1.667719,0.62213 -0.07324,0.232838 0.150307,0.589809 -0.07687,0.842328 -0.311347,0.532157 -1.113542,0.624698 -1.561273,0.213165 -0.384914,-0.301216 -0.379442,-0.940948 7e-6,-1.245402 0.216628,-0.191603 0.506973,-0.286636 0.794095,-0.258382 0.496639,0.01219 1.013014,-0.04849 1.453829,-0.289388 0.437126,-0.238777 0.07006,-0.726966 -0.300853,-0.765416 -0.420775,-0.157424 -0.870816,-0.155853 -1.312747,-0.158623 -0.527075,-0.0016 -1.039244,-0.509731 -0.904342,-1.051293 0.137956,-0.620793 0.952738,-0.891064 1.47649,-0.573851 0.371484,0.188118 0.594679,0.675747 0.390321,1.062196 0.09829,0.262762 0.586716,0.204086 0.826177,0.378204 0.301582,0.119237 0.600056,0.246109 0.899816,0.36981 0.89919,-0.349142 1.785653,-0.732692 2.698347,-1.045565 0.459138,-0.152333 1.033472,-0.283325 1.442046,0.05643 0.217451,0.135635 -0.06954,0.160294 -0.174725,0.220936 -0.979101,0.397316 -1.958202,0.794633 -2.937303,1.19195 z m -3.44165,-1.917196 c -0.338434,-0.14399 -0.861225,0.116943 -0.775146,0.524517 0.143274,0.477916 0.915235,0.499056 1.10329,0.04328 0.09674,-0.247849 -0.09989,-0.490324 -0.328144,-0.567796 z" style="fill:#000000;fill-opacity:1;fill-rule:nonzero;stroke:none" transform="scale(1.9) translate(118,40) rotate(90)" /><text font-family="Arial,Helvetica" font-size="12.0" font-weight="bold" x="237.40157" y="38.97638">Payment part</text><path d="M0,0H1V1H0zM1,0H2V1H1zM2,0H3V1H2zM3,0H4V1H3zM4,0H5V1H4zM5,0H6V1H5zM6,0H7V1H6zM8,0H9V1H8zM10,0H11V1H10zM12,0H13V1H12zM14,0H15V1H14zM15,0H16V1H15zM17,0H18V1H17zM19,0H20V1H19zM20,0H21V1H20zM21,0H22V1H21zM24,0H25V1H24zM26,0H27V1H26zM30,0H31V1H30zM31,0H32V1H31zM32,0H33V1H32zM34,0H35V1H34zM37,0H38V1H37zM39,0H40V1H39zM40,0H41V1H40zM42,0H43V1H42zM43,0H44V1H43zM45,0H46V1H45zM46,0H47V1H46zM47,0H48V1H47zM50,0H51V1H50zM51,0H52V1H51zM52,0H53V1H52zM53,0H54V1H53zM54,0H55V1H54zM55,0H56V1H55zM56,0H57V1H56zM0,1H1V2H0zM6,1H7V2H6zM9,1H10V2H9zM12,1H13V2H12zM13,1H14V2H13zM14,1H15V2H14zM17,1H18V2H17zM19,1H20V2H19zM20,1H21V2H20zM25,1H26V2H25zM27,1H28V2H27zM30,1H31V2H30zM31,1H32V2H31zM33,1H34V2H33zM35,1H36V2H35zM36,1H37V2H36zM38,1H39V2H38zM40,1H41V2H40zM41,1H42V2H41zM42,1H43V2H42zM45,1H46V2H45zM47,1H48V2H47zM50,1H51V2H50zM56,1H57V2H56zM0,2H1V3H0zM2,2H3V3H2zM3,2H4V3H3zM4,2H5V3H4zM6,2H7V3H6zM9,2H10V3H9zM10,2H11V3H10zM13,2H14V3H13zM17,2H18V3H17zM19,2H20V3H19zM20,2H21V3H20zM22,2H23V3H22zM23,2H24V3H23zM24,2H25V3H24zM25,2H26V3H25zM27,2H28V3H27zM29,2H30V3H29zM33,2H34V3H33zM35,2H36V3H35zM38,2H39V3H38zM39,2H40V3H39zM40,2H41V3H40zM44,2H45V3H44zM45,2H46V3H45zM46,2H47V3H46zM47,2H48V3H47zM50,2H51V3H50zM52,2H53V3H52zM53,2H54V3H53zM54,2H55V3H54zM56,2H57V3H56zM0,3H1V4H0zM2,3H3V4H2zM3,3H4V4H3zM4,3H5V4H4zM6,3H7V4H6zM8,3H9V4H8zM12,3H13V4H12zM15,3H16V4H15zM17,3H18V4H17zM20,3H21V4H20zM21,3H22V4H21zM22,3H23V4H22zM27,3H28V4H27zM29,3H30V4H29zM31,3H32V4H31zM36,3H37V4H36zM39,3H40V4H39zM40,3H41V4H40zM41,3H42V4H41zM47,3H48V4H47zM50,3H51V4H50zM52,3H53V4H52zM53,3H54V4H53zM54,3H55V4H54zM56,3H57V4H56zM0,4H1V5H0zM2,4H3V5H2zM3,4H4V5H3zM4,4H5V5H4zM6,4H7V5H6zM8,4H9V5H8zM9,4H10V5H9zM13,4H14V5H13zM15,4H16V5H15zM20,4H21V5H20zM24,4H25V5H24zM25,4H26V5H25zM26,4H27V5H26zM27,4H28V5H27zM28,4H29V5H28zM29,4H30V5H29zM30,4H31V5H30zM33,4H34V5H33zM37,4H38V5H37zM38,4H39V5H38zM42,4H43V5H42zM43,4H44V5H43zM47,4H48V5H47zM50,4H51V5H50zM52,4H53V5H52zM53,4H54V5H53zM54,4H55V5H54zM56,4H57V5H56zM0,5H1V6H0zM6,5H7V6H6zM8,5H9V6H8zM9,5H10V6H9zM11,5H12V6H11zM13,5H14V6H13zM14,5H15V6H14zM16,5H17V6H16zM17,5H18V6H17zM25,5H26V6H25zM26,5H27V6H26zM30,5H31V6H30zM31,5H32V6H31zM32,5H33V6H32zM34,5H35V6H34zM36,5H37V6H36zM41,5H42V6H41zM42,5H43V6H42zM43,5H44V6H43zM45,5H46V6H45zM46,5H47V6H46zM50,5H51V6H50zM56,5H57V6H56zM0,6H1V7H0zM1,6H2V7H1zM2,6H3V7H2zM3,6H4V7H3zM4,6H5V7H4zM5,6H6V7H5zM6,6H7V7H6zM8,6H9V7H8zM10,6H11V7H10zM12,6H13V7H12zM14,6H15V7H14zM16,6H17V7H16zM18,6H19V7H18zM20,6H21V7H20zM22,6H23V7H22zM24,6H25V7H24zM26,6H27V7H26zM28,6H29V7H28zM30,6H31V7H30zM32,6H33V7H32zM34,6H35V7H34zM36,6H37V7H36zM38,6H39V7H38zM40,6H41V7H40zM42,6H43V7H42zM44,6H45V7H44zM46,6H47V7H46zM48,6H49V7H48zM50,6H51V7H50zM51,6H52V7H51zM52,6H53V7H52zM53,6H54V7H53zM54,6H55V7H54zM55,6H56V7H55zM56,6H57V7H56zM8,7H9V8H8zM10,7H11V8H10zM11,7H12V8H11zM15,7H16V8H15zM18,7H19V8H18zM21,7H22V8H21zM22,7H23V8H22zM23,7H24V8H23zM24,7H25V8H24zM26,7H27V8H26zM30,7H31V8H30zM31,7H32V8H31zM32,7H33V8H32zM33,7H34V8H33zM34,7H35V8H34zM35,7H36V8H35zM40,7H41V8H40zM41,7H42V8H41zM42,7H43V8H42zM45,7H46V8H45zM46,7H47V8H46zM47,7H48V8H47zM0,8H1V9H0zM4,8H5V9H4zM6,8H7V9H6zM7,8H8V9H7zM8,8H9V9H8zM12,8H13V9H12zM14,8H15V9H14zM15,8H16V9H15zM19,8H20V9H19zM24,8H25V9H24zM26,8H27V9H26zM27,8H28V9H27zM28,8H29V9H28zM29,8H30V9H29zM30,8H31V9H30zM32,8H33V9H32zM33,8H34V9H33zM36,8H37V9H36zM37,8H38V9H37zM38,8H39V9H38zM43,8H44V9H43zM44,8H45V9H44zM48,8H49V9H48zM49,8H50V9H49zM50,8H51V9H50zM51,8H52V9H51zM52,8H53V9H52zM53,8H54V9H53zM56,8H57V9H56zM1,9H2V10H1zM2,9H3V10H2zM4,9H5V10H4zM5,9H6V10H5zM7,9H8V10H7zM8,9H9V10H8zM12,9H13V10H12zM14,9H15V10H14zM15,9H16V10H15zM16,9H17V10H16zM17,9H18V10H17zM18,9H19V10H18zM19,9H20V10H19zM20,9H21V10H20zM23,9H24V10H23zM25,9H26V10H25zM30,9H31V10H30zM32,9H33V10H32zM36,9H37V10H36zM40,9H41V10H40zM41,9H42V10H41zM44,9H45V10H44zM48,9H49V10H48zM49,9H50V10H49zM50,9H51V10H50zM52,9H53V10H52zM54,9H55V10H54zM55,9H56V10H55zM0,10H1V11H0zM1,10H2V11H1zM2,10H3V11H2zM3,10H4V11H3zM4,10H5V11H4zM5,10H6V11H5zM6,10H7V11H6zM8,10H9V11H8zM9,10H10V11H9zM11,10H12V11H11zM12,10H13V11H12zM13,10H14V11H13zM14,10H15V11H14zM16,10H17V11H16zM17,10H18V11H17zM18,10H19V11H18zM19,10H20V11H19zM20,10H21V11H20zM23,10H24V11H23zM24,10H25V11H24zM25,10H26V11H25zM28,10H29V11H28zM32,10H33V11H32zM33,10H34V11H33zM34,10H35V11H34zM35,10H36V11H35zM39,10H40V11H39zM41,10H42V11H41zM42,10H43V11H42zM45,10H46V11H45zM46,10H47V11H46zM49,10H50V11H49zM51,10H52V11H51zM53,10H54V11H53zM54,10H55V11H54zM55,10H56V11H55zM56,10H57V11H56zM1,11H2V12H1zM2,11H3V12H2zM8,11H9V12H8zM9,11H10V12H9zM11,11H12V12H11zM12,11H13V12H12zM13,11H14V12H13zM14,11H15V12H14zM15,11H16V12H15zM17,11H18V12H17zM18,11H19V12H18zM20,11H21V12H20zM21,11H22V12H21zM24,11H25V12H24zM25,11H26V12H25zM26,11H27V12H26zM31,11H32V12H31zM33,11H34V12H33zM34,11H35V12H34zM36,11H37V12H36zM37,11H38V12H37zM39,11H40V12H39zM40,11H41V12H40zM41,11H42V12H41zM43,11H44V12H43zM44,11H45V12H44zM45,11H46V12H45zM47,11H48V12H47zM48,11H49V12H48zM51,11H52V12H51zM52,11H53V12H52zM54,11H55V12H54zM0,12H1V13H0zM4,12H5V13H4zM5,12H6V13H5zM6,12H7V13H6zM9,12H10V13H9zM10,12H11V13H10zM11,12H12V13H11zM12,12H13V13H12zM13,12H14V13H13zM14,12H15V13H14zM15,12H16V13H15zM21,12H22V13H21zM22,12H23V13H22zM25,12H26V13H25zM26,12H27V13H26zM27,12H28V13H27zM30,12H31V13H30zM31,12H32V13H31zM32,12H33V13H32zM36,12H37V13H36zM37,12H38V13H37zM38,12H39V13H38zM39,12H40V13H39zM41,12H42V13H41zM43,12H44V13H43zM47,12H48V13H47zM48,12H49V13H48zM50,12H51V13H50zM52,12H53V13H52zM54,12H55V13H54zM56,12H57V13H56zM0,13H1V14H0zM1,13H2V14H1zM3,13H4V14H3zM4,13H5V14H4zM10,13H11V14H10zM12,13H13V14H12zM16,13H17V14H16zM17,13H18V14H17zM18,13H19V14H18zM19,13H20V14H19zM20,13H21V14H20zM24,13H25V14H24zM25,13H26V14H25zM26,13H27V14H26zM27,13H28V14H27zM30,13H31V14H30zM31,13H32V14H31zM35,13H36V14H35zM37,13H38V14H37zM38,13H39V14H38zM40,13H41V14H40zM42,13H43V14H42zM44,13H45V14H44zM45,13H46V14H45zM46,13H47V14H46zM48,13H49V14H48zM49,13H50V14H49zM50,13H51V14H50zM53,13H54V14H53zM54,13H55V14H54zM56,13H57V14H56zM0,14H1V15H0zM3,14H4V15H3zM4,14H5V15H4zM6,14H7V15H6zM7,14H8V15H7zM8,14H9V15H8zM11,14H12V15H11zM13,14H14V15H13zM14,14H15V15H14zM16,14H17V15H16zM19,14H20V15H19zM20,14H21V15H20zM22,14H23V15H22zM23,14H24V15H23zM24,14H25V15H24zM27,14H28V15H27zM32,14H33V15H32zM34,14H35V15H34zM35,14H36V15H35zM36,14H37V15H36zM37,14H38V15H37zM39,14H40V15H39zM41,14H42V15H41zM42,14H43V15H42zM43,14H44V15H43zM45,14H46V15H45zM46,14H47V15H46zM47,14H48V15H47zM52,14H53V15H52zM53,14H54V15H53zM55,14H56V15H55zM1,15H2V16H1zM4,15H5V16H4zM8,15H9V16H8zM10,15H11V16H10zM12,15H13V16H12zM13,15H14V16H13zM14,15H15V16H14zM18,15H19V16H18zM20,15H21V16H20zM21,15H22V16H21zM23,15H24V16H23zM25,15H26V16H25zM28,15H29V16H28zM29,15H30V16H29zM31,15H32V16H31zM32,15H33V16H32zM34,15H35V16H34zM35,15H36V16H35zM39,15H40V16H39zM40,15H41V16H40zM41,15H42V16H41zM43,15H44V16H43zM45,15H46V16H45zM50,15H51V16H50zM52,15H53V16H52zM53,15H54V16H53zM54,15H55V16H54zM56,15H57V16H56zM5,16H6V17H5zM6,16H7V17H6zM10,16H11V17H10zM11,16H12V17H11zM13,16H14V17H13zM14,16H15V17H14zM19,16H20V17H19zM23,16H24V17H23zM24,16H25V17H24zM25,16H26V17H25zM28,16H29V17H28zM29,16H30V17H29zM30,16H31V17H30zM32,16H33V17H32zM34,16H35V17H34zM35,16H36V17H35zM36,16H37V17H36zM38,16H39V17H38zM40,16H41V17H40zM42,16H43V17H42zM43,16H44V17H43zM44,16H45V17H44zM46,16H47V17H46zM48,16H49V17H48zM49,16H50V17H49zM51,16H52V17H51zM52,16H53V17H52zM4,17H5V18H4zM11,17H12V18H11zM12,17H13V18H12zM21,17H22V18H21zM26,17H27V18H26zM27,17H28V18H27zM30,17H31V18H30zM31,17H32V18H31zM32,17H33V18H32zM33,17H34V18H33zM35,17H36V18H35zM42,17H43V18H42zM43,17H44V18H43zM47,17H48V18H47zM49,17H50V18H49zM50,17H51V18H50zM52,17H53V18H52zM55,17H56V18H55zM56,17H57V18H56zM0,18H1V19H0zM1,18H2V19H1zM3,18H4V19H3zM5,18H6V19H5zM6,18H7V19H6zM8,18H9V19H8zM14,18H15V19H14zM15,18H16V19H15zM21,18H22V19H21zM22,18H23V19H22zM24,18H25V19H24zM26,18H27V19H26zM27,18H28V19H27zM29,18H30V19H29zM31,18H32V19H31zM32,18H33V19H32zM33,18H34V19H33zM34,18H35V19H34zM35,18H36V19H35zM37,18H38V19H37zM38,18H39V19H38zM39,18H40V19H39zM40,18H41V19H40zM41,18H42V19H41zM42,18H43V19H42zM44,18H45V19H44zM46,18H47V19H46zM47,18H48V19H47zM48,18H49V19H48zM49,18H50V19H49zM50,18H51V19H50zM52,18H53V19H52zM54,18H55V19H54zM2,19H3V20H2zM3,19H4V20H3zM7,19H8V20H7zM8,19H9V20H8zM13,19H14V20H13zM14,19H15V20H14zM18,19H19V20H18zM20,19H21V20H20zM23,19H24V20H23zM24,19H25V20H24zM28,19H29V20H28zM29,19H30V20H29zM30,19H31V20H30zM33,19H34V20H33zM34,19H35V20H34zM35,19H36V20H35zM38,19H39V20H38zM41,19H42V20H41zM42,19H43V20H42zM45,19H46V20H45zM46,19H47V20H46zM47,19H48V20H47zM51,19H52V20H51zM52,19H53V20H52zM53,19H54V20H53zM54,19H55V20H54zM55,19H56V20H55zM56,19H57V20H56zM0,20H1V21H0zM2,20H3V21H2zM6,20H7V21H6zM7,20H8V21H7zM9,20H10V21H9zM10,20H11V21H10zM11,20H12V21H11zM12,20H13V21H12zM14,20H15V21H14zM16,20H17V21H16zM17,20H18V21H17zM23,20H24V21H23zM24,20H25V21H24zM26,20H27V21H26zM29,20H30V21H29zM32,20H33V21H32zM39,20H40V21H39zM43,20H44V21H43zM47,20H48V21H47zM49,20H50V21H49zM50,20H51V21H50zM53,20H54V21H53zM54,20H55V21H54zM55,20H56V21H55zM0,21H1V22H0zM3,21H4V22H3zM4,21H5V22H4zM5,21H6V22H5zM7,21H8V22H7zM8,21H9V22H8zM9,21H10V22H9zM15,21H16V22H15zM18,21H19V22H18zM19,21H20V22H19zM20,21H21V22H20zM24,21H25V22H24zM26,21H27V22H26zM28,21H29V22H28zM29,21H30V22H29zM30,21H31V22H30zM31,21H32V22H31zM32,21H33V22H32zM34,21H35V22H34zM36,21H37V22H36zM37,21H38V22H37zM38,21H39V22H38zM39,21H40V22H39zM40,21H41V22H40zM42,21H43V22H42zM43,21H44V22H43zM48,21H49V22H48zM51,21H52V22H51zM54,21H55V22H54zM56,21H57V22H56zM1,22H2V23H1zM2,22H3V23H2zM3,22H4V23H3zM6,22H7V23H6zM7,22H8V23H7zM8,22H9V23H8zM14,22H15V23H14zM19,22H20V23H19zM21,22H22V23H21zM23,22H24V23H23zM27,22H28V23H27zM30,22H31V23H30zM32,22H33V23H32zM33,22H34V23H33zM34,22H35V23H34zM39,22H40V23H39zM40,22H41V23H40zM45,22H46V23H45zM46,22H47V23H46zM47,22H48V23H47zM49,22H50V23H49zM54,22H55V23H54zM3,23H4V24H3zM7,23H8V24H7zM9,23H10V24H9zM10,23H11V24H10zM11,23H12V24H11zM12,23H13V24H12zM13,23H14V24H13zM14,23H15V24H14zM15,23H16V24H15zM17,23H18V24H17zM18,23H19V24H18zM21,23H22V24H21zM25,23H26V24H25zM28,23H29V24H28zM29,23H30V24H29zM32,23H33V24H32zM33,23H34V24H33zM34,23H35V24H34zM35,23H36V24H35zM39,23H40V24H39zM41,23H42V24H41zM42,23H43V24H42zM45,23H46V24H45zM47,23H48V24H47zM49,23H50V24H49zM56,23H57V24H56zM0,24H1V25H0zM2,24H3V25H2zM3,24H4V25H3zM6,24H7V25H6zM8,24H9V25H8zM10,24H11V25H10zM12,24H13V25H12zM13,24H14V25H13zM14,24H15V25H14zM16,24H17V25H16zM17,24H18V25H17zM23,24H24V25H23zM24,24H25V25H24zM25,24H26V25H25zM30,24H31V25H30zM31,24H32V25H31zM33,24H34V25H33zM34,24H35V25H34zM35,24H36V25H35zM40,24H41V25H40zM43,24H44V25H43zM44,24H45V25H44zM45,24H46V25H45zM47,24H48V25H47zM48,24H49V25H48zM49,24H50V25H49zM51,24H52V25H51zM53,24H54V25H53zM54,24H55V25H54zM55,24H56V25H55zM2,25H3V26H2zM7,25H8V26H7zM8,25H9V26H8zM9,25H10V26H9zM10,25H11V26H10zM12,25H13V26H12zM16,25H17V26H16zM19,25H20V26H19zM24,25H25V26H24zM25,25H26V26H25zM28,25H29V26H28zM29,25H30V26H29zM33,25H34V26H33zM36,25H37V26H36zM42,25H43V26H42zM44,25H45V26H44zM49,25H50V26H49zM51,25H52V26H51zM52,25H53V26H52zM56,25H57V26H56zM0,26H1V27H0zM1,26H2V27H1zM2,26H3V27H2zM4,26H5V27H4zM5,26H6V27H5zM6,26H7V27H6zM7,26H8V27H7zM8,26H9V27H8zM9,26H10V27H9zM10,26H11V27H10zM11,26H12V27H11zM13,26H14V27H13zM14,26H15V27H14zM16,26H17V27H16zM19,26H20V27H19zM20,26H21V27H20zM22,26H23V27H22zM23,26H24V27H23zM24,26H25V27H24zM25,26H26V27H25zM26,26H27V27H26zM27,26H28V27H27zM28,26H29V27H28zM29,26H30V27H29zM30,26H31V27H30zM33,26H34V27H33zM35,26H36V27H35zM36,26H37V27H36zM39,26H40V27H39zM43,26H44V27H43zM44,26H45V27H44zM45,26H46V27H45zM46,26H47V27H46zM48,26H49V27H48zM49,26H50V27H49zM50,26H51V27H50zM51,26H52V27H51zM52,26H53V27H52zM53,26H54V27H53zM55,26H56V27H55zM56,26H57V27H56zM0,27H1V28H0zM2,27H3V28H2zM4,27H5V28H4zM8,27H9V28H8zM11,27H12V28H11zM12,27H13V28H12zM14,27H15V28H14zM15,27H16V28H15zM17,27H18V28H17zM19,27H20V28H19zM21,27H22V28H21zM22,27H23V28H22zM23,27H24V28H23zM26,27H27V28H26zM30,27H31V28H30zM31,27H32V28H31zM32,27H33V28H32zM33,27H34V28H33zM34,27H35V28H34zM35,27H36V28H35zM38,27H39V28H38zM40,27H41V28H40zM42,27H43V28H42zM44,27H45V28H44zM48,27H49V28H48zM52,27H53V28H52zM2,28H3V29H2zM3,28H4V29H3zM4,28H5V29H4zM6,28H7V29H6zM8,28H9V29H8zM9,28H10V29H9zM11,28H12V29H11zM13,28H14V29H13zM15,28H16V29H15zM16,28H17V29H16zM17,28H18V29H17zM18,28H19V29H18zM19,28H20V29H19zM20,28H21V29H20zM22,28H23V29H22zM23,28H24V29H23zM24,28H25V29H24zM25,28H26V29H25zM26,28H27V29H26zM28,28H29V29H28zM30,28H31V29H30zM32,28H33V29H32zM33,28H34V29H33zM34,28H35V29H34zM37,28H38V29H37zM38,28H39V29H38zM41,28H42V29H41zM42,28H43V29H42zM43,28H44V29H43zM44,28H45V29H44zM45,28H46V29H45zM48,28H49V29H48zM50,28H51V29H50zM52,28H53V29H52zM54,28H55V29H54zM56,28H57V29H56zM1,29H2V30H1zM3,29H4V30H3zM4,29H5V30H4zM8,29H9V30H8zM9,29H10V30H9zM13,29H14V30H13zM14,29H15V30H14zM16,29H17V30H16zM17,29H18V30H17zM18,29H19V30H18zM20,29H21V30H20zM21,29H22V30H21zM22,29H23V30H22zM23,29H24V30H23zM25,29H26V30H25zM26,29H27V30H26zM30,29H31V30H30zM41,29H42V30H41zM42,29H43V30H42zM47,29H48V30H47zM48,29H49V30H48zM52,29H53V30H52zM55,29H56V30H55zM0,30H1V31H0zM3,30H4V31H3zM4,30H5V31H4zM5,30H6V31H5zM6,30H7V31H6zM7,30H8V31H7zM8,30H9V31H8zM10,30H11V31H10zM17,30H18V31H17zM20,30H21V31H20zM21,30H22V31H21zM22,30H23V31H22zM23,30H24V31H23zM26,30H27V31H26zM27,30H28V31H27zM28,30H29V31H28zM29,30H30V31H29zM30,30H31V31H30zM34,30H35V31H34zM36,30H37V31H36zM38,30H39V31H38zM40,30H41V31H40zM42,30H43V31H42zM45,30H46V31H45zM46,30H47V31H46zM47,30H48V31H47zM48,30H49V31H48zM49,30H50V31H49zM50,30H51V31H50zM51,30H52V31H51zM52,30H53V31H52zM53,30H54V31H53zM54,30H55V31H54zM55,30H56V31H55zM56,30H57V31H56zM2,31H3V32H2zM4,31H5V32H4zM5,31H6V32H5zM8,31H9V32H8zM10,31H11V32H10zM12,31H13V32H12zM18,31H19V32H18zM19,31H20V32H19zM20,31H21V32H20zM21,31H22V32H21zM25,31H26V32H25zM26,31H27V32H26zM27,31H28V32H27zM29,31H30V32H29zM31,31H32V32H31zM33,31H34V32H33zM34,31H35V32H34zM36,31H37V32H36zM38,31H39V32H38zM39,31H40V32H39zM40,31H41V32H40zM41,31H42V32H41zM45,31H46V32H45zM48,31H49V32H48zM49,31H50V32H49zM51,31H52V32H51zM54,31H55V32H54zM56,31H57V32H56zM4,32H5V33H4zM5,32H6V33H5zM6,32H7V33H6zM8,32H9V33H8zM9,32H10V33H9zM10,32H11V33H10zM11,32H12V33H11zM13,32H14V33H13zM14,32H15V33H14zM15,32H16V33H15zM17,32H18V33H17zM19,32H20V33H19zM24,32H25V33H24zM25,32H26V33H25zM26,32H27V33H26zM27,32H28V33H27zM31,32H32V33H31zM32,32H33V33H32zM35,32H36V33H35zM36,32H37V33H36zM37,32H38V33H37zM39,32H40V33H39zM40,32H41V33H40zM41,32H42V33H41zM44,32H45V33H44zM46,32H47V33H46zM48,32H49V33H48zM50,32H51V33H50zM51,32H52V33H51zM53,32H54V33H53zM54,32H55V33H54zM55,32H56V33H55zM0,33H1V34H0zM1,33H2V34H1zM2,33H3V34H2zM4,33H5V34H4zM8,33H9V34H8zM9,33H10V34H9zM10,33H11V34H10zM11,33H12V34H11zM14,33H15V34H14zM16,33H17V34H16zM17,33H18V34H17zM18,33H19V34H18zM21,33H22V34H21zM25,33H26V34H25zM31,33H32V34H31zM32,33H33V34H32zM33,33H34V34H33zM35,33H36V34H35zM37,33H38V34H37zM38,33H39V34H38zM40,33H41V34H40zM41,33H42V34H41zM42,33H43V34H42zM43,33H44V34H43zM45,33H46V34H45zM46,33H47V34H46zM47,33H48V34H47zM49,33H50V34H49zM50,33H51V34H50zM54,33H55V34H54zM55,33H56V34H55zM56,33H57V34H56zM1,34H2V35H1zM2,34H3V35H2zM3,34H4V35H3zM4,34H5V35H4zM6,34H7V35H6zM8,34H9V35H8zM10,34H11V35H10zM12,34H13V35H12zM13,34H14V35H13zM15,34H16V35H15zM16,34H17V35H16zM17,34H18V35H17zM18,34H19V35H18zM21,34H22V35H21zM22,34H23V35H22zM23,34H24V35H23zM24,34H25V35H24zM27,34H28V35H27zM29,34H30V35H29zM31,34H32V35H31zM34,34H35V35H34zM35,34H36V35H35zM37,34H38V35H37zM39,34H40V35H39zM41,34H42V35H41zM43,34H44V35H43zM45,34H46V35H45zM47,34H48V35H47zM48,34H49V35H48zM51,34H52V35H51zM52,34H53V35H52zM53,34H54V35H53zM54,34H55V35H54zM3,35H4V36H3zM4,35H5V36H4zM5,35H6V36H5zM7,35H8V36H7zM10,35H11V36H10zM13,35H14V36H13zM14,35H15V36H14zM15,35H16V36H15zM16,35H17V36H16zM17,35H18V36H17zM20,35H21V36H20zM23,35H24V36H23zM24,35H25V36H24zM25,35H26V36H25zM27,35H28V36H27zM32,35H33V36H32zM33,35H34V36H33zM34,35H35V36H34zM39,35H40V36H39zM40,35H41V36H40zM41,35H42V36H41zM42,35H43V36H42zM43,35H44V36H43zM46,35H47V36H46zM47,35H48V36H47zM50,35H51V36H50zM52,35H53V36H52zM53,35H54V36H53zM54,35H55V36H54zM0,36H1V37H0zM4,36H5V37H4zM6,36H7V37H6zM8,36H9V37H8zM9,36H10V37H9zM11,36H12V37H11zM14,36H15V37H14zM15,36H16V37H15zM17,36H18V37H17zM18,36H19V37H18zM19,36H20V37H19zM20,36H21V37H20zM21,36H22V37H21zM22,36H23V37H22zM23,36H24V37H23zM25,36H26V37H25zM26,36H27V37H26zM27,36H28V37H27zM32,36H33V37H32zM36,36H37V37H36zM37,36H38V37H37zM38,36H39V37H38zM39,36H40V37H39zM40,36H41V37H40zM43,36H44V37H43zM44,36H45V37H44zM48,36H49V37H48zM49,36H50V37H49zM50,36H51V37H50zM51,36H52V37H51zM55,36H56V37H55zM56,36H57V37H56zM1,37H2V38H1zM4,37H5V38H4zM7,37H8V38H7zM8,37H9V38H8zM10,37H11V38H10zM13,37H14V38H13zM15,37H16V38H15zM16,37H17V38H16zM20,37H21V38H20zM22,37H23V38H22zM23,37H24V38H23zM24,37H25V38H24zM25,37H26V38H25zM26,37H27V38H26zM28,37H29V38H28zM31,37H32V38H31zM32,37H33V38H32zM33,37H34V38H33zM38,37H39V38H38zM39,37H40V38H39zM43,37H44V38H43zM44,37H45V38H44zM47,37H48V38H47zM48,37H49V38H48zM54,37H55V38H54zM1,38H2V39H1zM6,38H7V39H6zM7,38H8V39H7zM9,38H10V39H9zM13,38H14V39H13zM14,38H15V39H14zM16,38H17V39H16zM17,38H18V39H17zM19,38H20V39H19zM20,38H21V39H20zM24,38H25V39H24zM26,38H27V39H26zM29,38H30V39H29zM31,38H32V39H31zM33,38H34V39H33zM35,38H36V39H35zM38,38H39V39H38zM40,38H41V39H40zM41,38H42V39H41zM43,38H44V39H43zM46,38H47V39H46zM48,38H49V39H48zM50,38H51V39H50zM51,38H52V39H51zM54,38H55V39H54zM0,39H1V40H0zM5,39H6V40H5zM7,39H8V40H7zM8,39H9V40H8zM9,39H10V40H9zM13,39H14V40H13zM17,39H18V40H17zM23,39H24V40H23zM25,39H26V40H25zM26,39H27V40H26zM27,39H28V40H27zM38,39H39V40H38zM39,39H40V40H39zM40,39H41V40H40zM45,39H46V40H45zM46,39H47V40H46zM47,39H48V40H47zM48,39H49V40H48zM49,39H50V40H49zM50,39H51V40H50zM51,39H52V40H51zM53,39H54V40H53zM55,39H56V40H55zM56,39H57V40H56zM1,40H2V41H1zM2,40H3V41H2zM3,40H4V41H3zM4,40H5V41H4zM5,40H6V41H5zM6,40H7V41H6zM8,40H9V41H8zM9,40H10V41H9zM12,40H13V41H12zM14,40H15V41H14zM15,40H16V41H15zM16,40H17V41H16zM17,40H18V41H17zM18,40H19V41H18zM19,40H20V41H19zM20,40H21V41H20zM23,40H24V41H23zM24,40H25V41H24zM26,40H27V41H26zM30,40H31V41H30zM31,40H32V41H31zM32,40H33V41H32zM36,40H37V41H36zM40,40H41V41H40zM42,40H43V41H42zM43,40H44V41H43zM47,40H48V41H47zM48,40H49V41H48zM49,40H50V41H49zM50,40H51V41H50zM55,40H56V41H55zM56,40H57V41H56zM0,41H1V42H0zM1,41H2V42H1zM3,41H4V42H3zM4,41H5V42H4zM8,41H9V42H8zM14,41H15V42H14zM16,41H17V42H16zM17,41H18V42H17zM20,41H21V42H20zM21,41H22V42H21zM22,41H23V42H22zM24,41H25V42H24zM25,41H26V42H25zM26,41H27V42H26zM28,41H29V42H28zM29,41H30V42H29zM30,41H31V42H30zM31,41H32V42H31zM32,41H33V42H32zM38,41H39V42H38zM39,41H40V42H39zM40,41H41V42H40zM43,41H44V42H43zM44,41H45V42H44zM47,41H48V42H47zM48,41H49V42H48zM49,41H50V42H49zM50,41H51V42H50zM51,41H52V42H51zM52,41H53V42H52zM54,41H55V42H54zM56,41H57V42H56zM0,42H1V43H0zM4,42H5V43H4zM6,42H7V43H6zM7,42H8V43H7zM8,42H9V43H8zM9,42H10V43H9zM10,42H11V43H10zM12,42H13V43H12zM15,42H16V43H15zM19,42H20V43H19zM20,42H21V43H20zM21,42H22V43H21zM22,42H23V43H22zM23,42H24V43H23zM24,42H25V43H24zM28,42H29V43H28zM29,42H30V43H29zM30,42H31V43H30zM34,42H35V43H34zM35,42H36V43H35zM36,42H37V43H36zM38,42H39V43H38zM39,42H40V43H39zM41,42H42V43H41zM42,42H43V43H42zM45,42H46V43H45zM46,42H47V43H46zM48,42H49V43H48zM51,42H52V43H51zM53,42H54V43H53zM1,43H2V44H1zM3,43H4V44H3zM7,43H8V44H7zM11,43H12V44H11zM12,43H13V44H12zM13,43H14V44H13zM14,43H15V44H14zM15,43H16V44H15zM16,43H17V44H16zM23,43H24V44H23zM24,43H25V44H24zM25,43H26V44H25zM26,43H27V44H26zM27,43H28V44H27zM32,43H33V44H32zM33,43H34V44H33zM34,43H35V44H34zM37,43H38V44H37zM39,43H40V44H39zM40,43H41V44H40zM45,43H46V44H45zM46,43H47V44H46zM49,43H50V44H49zM50,43H51V44H50zM52,43H53V44H52zM0,44H1V45H0zM2,44H3V45H2zM6,44H7V45H6zM7,44H8V45H7zM9,44H10V45H9zM10,44H11V45H10zM12,44H13V45H12zM13,44H14V45H13zM15,44H16V45H15zM17,44H18V45H17zM19,44H20V45H19zM20,44H21V45H20zM21,44H22V45H21zM26,44H27V45H26zM27,44H28V45H27zM30,44H31V45H30zM31,44H32V45H31zM33,44H34V45H33zM37,44H38V45H37zM42,44H43V45H42zM43,44H44V45H43zM44,44H45V45H44zM45,44H46V45H45zM46,44H47V45H46zM48,44H49V45H48zM54,44H55V45H54zM56,44H57V45H56zM2,45H3V46H2zM3,45H4V46H3zM4,45H5V46H4zM5,45H6V46H5zM8,45H9V46H8zM9,45H10V46H9zM10,45H11V46H10zM12,45H13V46H12zM13,45H14V46H13zM14,45H15V46H14zM18,45H19V46H18zM20,45H21V46H20zM22,45H23V46H22zM23,45H24V46H23zM24,45H25V46H24zM25,45H26V46H25zM26,45H27V46H26zM29,45H30V46H29zM36,45H37V46H36zM38,45H39V46H38zM40,45H41V46H40zM42,45H43V46H42zM44,45H45V46H44zM47,45H48V46H47zM48,45H49V46H48zM49,45H50V46H49zM50,45H51V46H50zM54,45H55V46H54zM55,45H56V46H55zM56,45H57V46H56zM0,46H1V47H0zM2,46H3V47H2zM5,46H6V47H5zM6,46H7V47H6zM8,46H9V47H8zM15,46H16V47H15zM18,46H19V47H18zM21,46H22V47H21zM22,46H23V47H22zM23,46H24V47H23zM25,46H26V47H25zM26,46H27V47H26zM27,46H28V47H27zM28,46H29V47H28zM29,46H30V47H29zM32,46H33V47H32zM33,46H34V47H33zM34,46H35V47H34zM35,46H36V47H35zM37,46H38V47H37zM39,46H40V47H39zM40,46H41V47H40zM45,46H46V47H45zM46,46H47V47H46zM47,46H48V47H47zM48,46H49V47H48zM49,46H50V47H49zM50,46H51V47H50zM53,46H54V47H53zM56,46H57V47H56zM0,47H1V48H0zM1,47H2V48H1zM2,47H3V48H2zM3,47H4V48H3zM4,47H5V48H4zM9,47H10V48H9zM10,47H11V48H10zM12,47H13V48H12zM13,47H14V48H13zM14,47H15V48H14zM15,47H16V48H15zM17,47H18V48H17zM18,47H19V48H18zM20,47H21V48H20zM21,47H22V48H21zM22,47H23V48H22zM23,47H24V48H23zM28,47H29V48H28zM30,47H31V48H30zM31,47H32V48H31zM32,47H33V48H32zM33,47H34V48H33zM35,47H36V48H35zM36,47H37V48H36zM38,47H39V48H38zM40,47H41V48H40zM41,47H42V48H41zM43,47H44V48H43zM44,47H45V48H44zM45,47H46V48H45zM48,47H49V48H48zM51,47H52V48H51zM52,47H53V48H52zM53,47H54V48H53zM54,47H55V48H54zM6,48H7V49H6zM7,48H8V49H7zM8,48H9V49H8zM9,48H10V49H9zM10,48H11V49H10zM11,48H12V49H11zM13,48H14V49H13zM16,48H17V49H16zM17,48H18V49H17zM19,48H20V49H19zM21,48H22V49H21zM26,48H27V49H26zM27,48H28V49H27zM28,48H29V49H28zM29,48H30V49H29zM30,48H31V49H30zM32,48H33V49H32zM33,48H34V49H33zM34,48H35V49H34zM36,48H37V49H36zM37,48H38V49H37zM42,48H43V49H42zM44,48H45V49H44zM46,48H47V49H46zM48,48H49V49H48zM49,48H50V49H49zM50,48H51V49H50zM51,48H52V49H51zM52,48H53V49H52zM56,48H57V49H56zM8,49H9V50H8zM9,49H10V50H9zM10,49H11V50H10zM11,49H12V50H11zM14,49H15V50H14zM16,49H17V50H16zM17,49H18V50H17zM18,49H19V50H18zM25,49H26V50H25zM26,49H27V50H26zM30,49H31V50H30zM31,49H32V50H31zM34,49H35V50H34zM36,49H37V50H36zM38,49H39V50H38zM40,49H41V50H40zM42,49H43V50H42zM47,49H48V50H47zM48,49H49V50H48zM52,49H53V50H52zM55,49H56V50H55zM56,49H57V50H56zM0,50H1V51H0zM1,50H2V51H1zM2,50H3V51H2zM3,50H4V51H3zM4,50H5V51H4zM5,50H6V51H5zM6,50H7V51H6zM8,50H9V51H8zM10,50H11V51H10zM11,50H12V51H11zM12,50H13V51H12zM16,50H17V51H16zM21,50H22V51H21zM23,50H24V51H23zM26,50H27V51H26zM28,50H29V51H28zM30,50H31V51H30zM33,50H34V51H33zM35,50H36V51H35zM36,50H37V51H36zM39,50H40V51H39zM44,50H45V51H44zM48,50H49V51H48zM50,50H51V51H50zM52,50H53V51H52zM53,50H54V51H53zM55,50H56V51H55zM56,50H57V51H56zM0,51H1V52H0zM6,51H7V52H6zM9,51H10V52H9zM14,51H15V52H14zM17,51H18V52H17zM18,51H19V52H18zM19,51H20V52H19zM20,51H21V52H20zM21,51H22V52H21zM26,51H27V52H26zM30,51H31V52H30zM31,51H32V52H31zM35,51H36V52H35zM37,51H38V52H37zM39,51H40V52H39zM41,51H42V52H41zM42,51H43V52H42zM46,51H47V52H46zM47,51H48V52H47zM48,51H49V52H48zM52,51H53V52H52zM53,51H54V52H53zM0,52H1V53H0zM2,52H3V53H2zM3,52H4V53H3zM4,52H5V53H4zM6,52H7V53H6zM8,52H9V53H8zM9,52H10V53H9zM10,52H11V53H10zM14,52H15V53H14zM21,52H22V53H21zM22,52H23V53H22zM25,52H26V53H25zM26,52H27V53H26zM27,52H28V53H27zM28,52H29V53H28zM29,52H30V53H29zM30,52H31V53H30zM31,52H32V53H31zM32,52H33V53H32zM36,52H37V53H36zM37,52H38V53H37zM38,52H39V53H38zM39,52H40V53H39zM40,52H41V53H40zM41,52H42V53H41zM43,52H44V53H43zM44,52H45V53H44zM47,52H48V53H47zM48,52H49V53H48zM49,52H50V53H49zM50,52H51V53H50zM51,52H52V53H51zM52,52H53V53H52zM53,52H54V53H53zM54,52H55V53H54zM56,52H57V53H56zM0,53H1V54H0zM2,53H3V54H2zM3,53H4V54H3zM4,53H5V54H4zM6,53H7V54H6zM13,53H14V54H13zM14,53H15V54H14zM15,53H16V54H15zM16,53H17V54H16zM17,53H18V54H17zM18,53H19V54H18zM19,53H20V54H19zM24,53H25V54H24zM26,53H27V54H26zM27,53H28V54H27zM31,53H32V54H31zM33,53H34V54H33zM35,53H36V54H35zM36,53H37V54H36zM37,53H38V54H37zM38,53H39V54H38zM43,53H44V54H43zM44,53H45V54H44zM45,53H46V54H45zM47,53H48V54H47zM49,53H50V54H49zM50,53H51V54H50zM52,53H53V54H52zM53,53H54V54H53zM54,53H55V54H54zM55,53H56V54H55zM56,53H57V54H56zM0,54H1V55H0zM2,54H3V55H2zM3,54H4V55H3zM4,54H5V55H4zM6,54H7V55H6zM10,54H11V55H10zM11,54H12V55H11zM13,54H14V55H13zM14,54H15V55H14zM17,54H18V55H17zM18,54H19V55H18zM21,54H22V55H21zM23,54H24V55H23zM24,54H25V55H24zM27,54H28V55H27zM28,54H29V55H28zM29,54H30V55H29zM30,54H31V55H30zM32,54H33V55H32zM33,54H34V55H33zM34,54H35V55H34zM35,54H36V55H35zM37,54H38V55H37zM40,54H41V55H40zM45,54H46V55H45zM46,54H47V55H46zM47,54H48V55H47zM51,54H52V55H51zM52,54H53V55H52zM53,54H54V55H53zM0,55H1V56H0zM6,55H7V56H6zM9,55H10V56H9zM11,55H12V56H11zM12,55H13V56H12zM14,55H15V56H14zM15,55H16V56H15zM16,55H17V56H16zM19,55H20V56H19zM20,55H21V56H20zM21,55H22V56H21zM23,55H24V56H23zM25,55H26V56H25zM26,55H27V56H26zM27,55H28V56H27zM28,55H29V56H28zM29,55H30V56H29zM32,55H33V56H32zM33,55H34V56H33zM34,55H35V56H34zM38,55H39V56H38zM39,55H40V56H39zM40,55H41V56H40zM41,55H42V56H41zM42,55H43V56H42zM43,55H44V56H43zM45,55H46V56H45zM47,55H48V56H47zM53,55H54V56H53zM54,55H55V56H54zM0,56H1V57H0zM1,56H2V57H1zM2,56H3V57H2zM3,56H4V57H3zM4,56H5V57H4zM5,56H6V57H5zM6,56H7V57H6zM8,56H9V57H8zM9,56H10V57H9zM10,56H11V57H10zM12,56H13V57H12zM13,56H14V57H13zM14,56H15V57H14zM15,56H16V57H15zM16,56H17V57H16zM17,56H18V57H17zM19,56H20V57H19zM23,56H24V57H23zM25,56H26V57H25zM26,56H27V57H26zM27,56H28V57H27zM29,56H30V57H29zM30,56H31V57H30zM32,56H33V57H32zM34,56H35V57H34zM35,56H36V57H35zM36,56H37V57H36zM37,56H38V57H37zM38,56H39V57H38zM39,56H40V57H39zM41,56H42V57H41zM43,56H44V57H43zM44,56H45V57H44zM46,56H47V57H46zM48,56H49V57H48zM50,56H51V57H50zM56,56H57V57H56z" style="fill:#000000;fill-opacity:1;fill-rule:nonzero;stroke:none" transform="translate(237.40157,61) scale(2.847078245614035)" /><g id="swiss-cross" transform="translate(305.4890105263158,129.0874405263158) scale(1.305428947368421)"><polygon fill="black" points="18.3,0.7 1.6,0.7 0.7,0.7 0.7,1.6 0.7,18.3 0.7,19.1 1.6,19.1 18.3,19.1 19.1,19.1 19.1,18.3 19.1,1.6 19.1,0.7" /><rect fill="white" height="11" width="3.3" x="8.3" y="4" /><rect fill="white" height="3.3" width="11" x="4.4" y="7.9" /><polygon fill="none" points="0.7,1.6 0.7,18.3 0.7,19.1 1.6,19.1 18.3,19.1 19.1,19.1 19.1,18.3 19.1,1.6 19.1,0.7 18.3,0.7 1.6,0.7 0.7,0.7" stroke="white" stroke-width="1.4357" /></g><text font-family="Arial,Helvetica" font-size="9.0" font-weight="bold" x="237.40157" y="258.66141">Currency</text><text font-family="Arial,Helvetica" font-size="9.0" font-weight="bold" x="279.92125" y="258.66141">Amount</text><text font-family="Arial,Helvetica" font-size="10.0" x="237.40157" y="276.37795">CHF</text><g><line stroke="black" stroke-linecap="square" stroke-width="0.26mm" x1="279.92125" x2="279.92125" y1="269.29133" y2="276.37794" /><line stroke="black" stroke-linecap="square" stroke-width="0.26mm" x1="279.92125" x2="290.55117" y1="269.29133" y2="269.29133" /><line stroke="black" stroke-linecap="square" stroke-width="0.26mm" x1="279.92125" x2="279.92125" y1="322.44094" y2="315.35433" /><line stroke="black" stroke-linecap="square" stroke-width="0.26mm" x1="279.92125" x2="290.55117" y1="322.44094" y2="322.44094" /><line stroke="black" stroke-linecap="square" stroke-width="0.26mm" x1="411.02361" x2="421.65353" y1="269.29133" y2="269.29133" /><line stroke="black" stroke-linecap="square" stroke-width="0.26mm" x1="421.65353" x2="421.65353" y1="269.29133" y2="276.37794" /><line stroke="black" stroke-linecap="square" stroke-width="0.26mm" x1="411.02361" x2="421.65353" y1="322.44094" y2="322.44094" /><line stroke="black" stroke-linecap="square" stroke-width="0.26mm" x1="421.65353" x2="421.65353" y1="322.44094" y2="315.35433" /></g><text font-family="Arial,Helvetica" font-size="9.0" font-weight="bold" x="418.11023" y="38.97638">Account / Payable to</text><text font-family="Arial,Helvetica" font-size="10.0" x="418.11023" y="51.37795">CH44 3199 9123 0008 8901 2</text><text font-family="Arial,Helvetica" font-size="10.0" x="418.11023" y="63.77953">Robert Schneider AG</text><text font-family="Arial,Helvetica" font-size="10.0" x="418.11023" y="76.1811">Rue du Lac 1268</text><text font-family="Arial,Helvetica" font-size="10.0" x="418.11023" y="88.58267">CH-2501 Biel</text><text font-family="Arial,Helvetica" font-size="9.0" font-weight="bold" x="418.11023" y="111.61417">Reference</text><text font-family="Arial,Helvetica" font-size="10.0" x="418.11023" y="124.01574">21 00000 00003 13947 14300 09017</text><text font-family="Arial,Helvetica" font-size="9.0" font-weight="bold" x="418.11023" y="147.04724">Additional information</text><text font-family="Arial,Helvetica" font-size="10.0" x="418.11023" y="159.44881">Bill No. 3139 for garden work and disposal of cuttings.</text><text font-family="Arial,Helvetica" font-size="9.0" font-weight="bold" x="418.11023" y="182.48031">Payable by (name/address)</text><g><line stroke="black" stroke-linecap="square" stroke-width="0.26mm" x1="418.11023" x2="418.11023" y1="194.88189" y2="201.9685" /><line stroke="black" stroke-linecap="square" stroke-width="0.26mm" x1="418.11023" x2="428.74015" y1="194.88189" y2="194.88189" /><line stroke="black" stroke-linecap="square" stroke-width="0.26mm" x1="418.11023" x2="418.11023" y1="283.46456" y2="276.37795" /><line stroke="black" stroke-linecap="square" stroke-width="0.26mm" x1="418.11023" x2="428.74015" y1="283.46456" y2="283.46456" /><line stroke="black" stroke-linecap="square" stroke-width="0.26mm" x1="637.79526" x2="648.42518" y1="194.88189" y2="194.88189" /><line stroke="black" stroke-linecap="square" stroke-width="0.26mm" x1="648.42518" x2="648.42518" y1="194.88189" y2="201.9685" /><line stroke="black" stroke-linecap="square" stroke-width="0.26mm" x1="637.79526" x2="648.42518" y1="283.46456" y2="283.46456" /><line stroke="black" stroke-linecap="square" stroke-width="0.26mm" x1="648.42518" x2="648.42518" y1="283.46456" y2="276.37795" /></g></g></svg>