<?xml version="1.0" encoding="utf-8" ?>
<svg baseProfile="full" height="106mm" version="1.1" viewBox="0 0 744.094470 375.590540" width="210mm" xmlns="http://www.w3.org/2000/svg" xmlns:ev="http://www.w3.org/2001/xml-events" xmlns:xlink="http://www.w3.org/1999/xlink"><defs /><rect fill="white" height="100%" width="100%" x="0" y="0" /><g><text font-family="Arial,Helvetica" font-size="12.0" font-weight="bold" x="17.71654" y="38.97638">Empfangsschein</text><text font-family="Arial,Helvetica" font-size="8.0" font-weight="bold" x="17.71654" y="56.69291">Konto / Zahlbar an</text><text font-family="Arial,Helvetica" font-size="10.0" x="17.71654" y="69.09449">CH44 3199 9123 0008 8901 2</text><text font-family="Arial,Helvetica" font-size="10.0" x="17.71654" y="81.49606">Robert Schneider AG</text><text font-family="Arial,Helvetica" font-size="10.0" x="17.71654" y="93.89764">Rue du Lac 1268</text><text font-family="Arial,Helvetica" font-size="10.0" x="17.71654" y="106.29921">CH-2501 Biel</text><text font-family="Arial,Helvetica" font-size="8.0" font-weight="bold" x="17.71654" y="122.24409">Referenz</text><text font-family="Arial,Helvetica" font-size="10.0" x="17.71654" y="134.64567">21 00000 00003 13947 14300 09017</text><text font-family="Arial,Helvetica" font-size="8.0" font-weight="bold" x="17.71654" y="150.59055">Zahlbar durch</text><text font-family="Arial,Helvetica" font-size="10.0" x="17.71654" y="162.99212">Pia Rutschmann</text><text font-family="Arial,Helvetica" font-size="10.0" x="17.71654" y="175.3937">Marktgasse 28</text><text font-family="Arial,Helvetica" font-size="10.0" x="17.71654" y="187.79527">CH-9400 Rorschach</text><text font-family="Arial,Helvetica" font-size="8.0" font-weight="bold" x="17.71654" y="258.66141">Währung</text><text font-family="Arial,Helvetica" font-size="8.0" font-weight="bold" x="60.23622" y="258.66141">Betrag</text><text font-family="Arial,Helvetica" font-size="10.0" x="17.71654" y="276.37795">CHF</text><g><line stroke="black" stroke-linecap="square" stroke-width="0.26mm" x1="106.29921" x2="106.29921" y1="251.5748" y2="258.66141" /><line stroke="black" stroke-linecap="square" stroke-width="0.26mm" x1="106.29921" x2="116.92913" y1="251.5748" y2="251.5748" /><line stroke="black" stroke-linecap="square" stroke-width="0.26mm" x1="106.29921" x2="106.29921" y1="290.55118" y2="283.46457" /><line stroke="black" stroke-linecap="square" stroke-width="0.26mm" x1="106.29921" x2="116.92913" y1="290.55118" y2="290.55118" /><line stroke="black" stroke-linecap="square" stroke-width="0.26mm" x1="191.33858" x2="201.9685" y1="251.5748" y2="251.5748" /><line stroke="black" stroke-linecap="square" stroke-width="0.26mm" x1="201.9685" x2="201.9685" y1="251.5748" y2="258.66141" /><line stroke="black" stroke-linecap="square" stroke-width="0.26mm" x1="191.33858" x2="201.9685" y1="290.55118" y2="290.55118" /><line stroke="black" stroke-linecap="square" stroke-width="0.26mm" x1="201.9685" x2="201.9685" y1="290.55118" y2="283.46457" /></g><text font-family="Arial,Helvetica" font-size="8.0" font-weight="bold" text-anchor="end" x="201.96849" y="308.26771">Annahmestelle</text><line fill="none" stroke="black" stroke-dasharray="2 2" x1="0" x2="744.09447" y1="4.04291" y2="4.04291" /><path d="m 0.764814,4.283977 c 0.337358,0.143009 0.862476,-0.115279 0.775145,-0.523225 -0.145918,-0.497473 -0.970289,-0.497475 -1.116209,-2e-6 -0.0636,0.23988 0.128719,0.447618 0.341064,0.523227 z m 3.875732,-1.917196 c 1.069702,0.434082 2.139405,0.868164 3.209107,1.302246 -0.295734,0.396158 -0.866482,0.368049 -1.293405,0.239509 -0.876475,-0.260334 -1.71099,-0.639564 -2.563602,-0.966653 -0.132426,-0.04295 -0.265139,-0.124595 -0.397393,-0.144327 -0.549814,0.22297 -1.09134,0.477143 -1.667719,0.62213 -0.07324,0.232838 0.150307,0.589809 -0.07687,0.842328 -0.311347,0.532157 -1.113542,0.624698 -1.561273,0.213165 -0.384914,-0.301216 -0.379442,-0.940948 7e-6,-1.245402 0.216628,-0.191603 0.506973,-0.286636 0.794095,-0.258382 0.496639,0.01219 1.013014,-0.04849 1.453829,-0.289388 0.437126,-0.238777 0.07006,-0.726966 -0.300853,-0.765416 -0.420775,-0.157424 -0.870816,-0.155853 -1.312747,-0.158623 -0.527075,-0.0016 -1.039244,-0.509731 -0.904342,-1.051293 0.137956,-0.620793 0.952738,-0.891064 1.47649,-0.573851 0.371484,0.188118 0.594679,0.675747 0.390321,1.062196 0.09829,0.262762 0.586716,0.204086 0.826177,0.378204 0.301582,0.119237 0.600056,0.246109 0.899816,0.36981 0.89919,-0.349142 1.785653,-0.732692 2.698347,-1.045565 0.459138,-0.152333 1.033472,-0.283325 1.442046,0.05643 0.217451,0.135635 -0.06954,0.160294 -0.174725,0.220936 -0.979101,0.397316 -1.958202,0.794633 -2.937303,1.19195 z m -3.44165,-1.917196 c -0.338434,-0.14399 -0.861225,0.116943 -0.775146,0.524517 0.143274,0.477916 0.915235,0.499056 1.10329,0.04328 0.09674,-0.247849 -0.09989,-0.490324 -0.328144,-0.567796 z" style="fill:#000000;fill-opacity:1;fill-rule:nonzero;stroke:none" transform="scale(1.9) translate(24,0)" /><line fill="none" stroke="black" stroke-dasharray="2 2" x1="219.68503" x2="219.68503" y1="3.54331" y2="372.04724" /><path d="m 0.764814,4.283977 c 0.337358,0.143009 0.862476,-0.115279 0.775145,-0.523225 -0.145918,-0.497473 -0.970289,-0.497475 -1.116209,-2e-6 -0.0636,0.23988 0.128719,0.447618 0.341064,0.523227 z m 3.875732,-1.917196 c 1.069702,0.434082 2.139405,0.868164 3.209107,1.302246 -0.295734,0.396158 -0.866482,0.368049 -1.293405,0.239509 -0.876475,-0.260334 -1.71099,-0.639564 -2.563602,-0.966653 -0.132426,-0.04295 -0.265139,-0.124595 -0.397393,-0.144327 -0.549814,0.22297 -1.09134,0.477143 -1.667719,0.62213 -0.07324,0.232838 0.150307,0.589809 -0.07687,0.842328 -0.311347,0.532157 -1.113542,0.624698 -1.561273,0.213165 -0.384914,-0.301216 -0.379442,-0.940948 7e-6,-1.245402 0.216628,-0.191603 0.506973,-0.286636 0.794095,-0.258382 0.496639,0.01219 1.013014,-0.04849 1.453829,-0.289388 0.437126,-0.238777 0.07006,-0.726966 -0.300853,-0.765416 -0.420775,-0.157424 -0.870816,-0.155853 -1.312747,-0.158623 -0.527075,-0.0016 -1.039244,-0.509731 -0.904342,-1.051293 0.137956,-0.620793 0.952738,-0.891064 1.47649,-0.573851 0.371484,0.188118 0.594679,0.675747 0.390321,1.062196 0.09829,0.262762 0.586716,0.204086 0.826177,0.378204 0.301582,0.119237 0.600056,0.246109 0.899816,0.36981 0.89919,-0.349142 1.785653,-0.732692 2.698347,-1.045565 0.459138,-0.152333 1.033472,-0.283325 1.442046,0.05643 0.217451,0.135635 -0.06954,0.160294 -0.174725,0.220936 -0.979101,0.397316 -1.958202,0.794633 -2.937303,1.19195 z m -3.44165,-1.917196 c -0.338434,-0.14399 -0.861225,0.116943 -0.775146,0.524517 0.143274,0.477916 0.915235,0.499056 1.10329,0.04328 0.09674,-0.247849 -0.09989,-0.490324 -0.328144,-0.567796 z" style="fill:#000000;fill-opacity:1;fill-rule:nonzero;stroke:none" transform="scale(1.9) translate(118,40) rotate(90)" /><text font-family="Arial,Helvetica" font-size="12.0" font-weight="bold" x="237.40157" y="38.97638">Zahlteil</text><path d="M0,0H1V1H0zM1,0H2V1H1zM2,0H3V1H2zM3,0H4V1H3zM4,0H5V1H4zM5,0H6V1H5zM6,0H7V1H6zM10,0H11V1H10zM12,0H13V1H12zM13,0H14V1H13zM14,0H15V1H14zM16,0H17V1H16zM18,0H19V1H18zM19,0H20V1H19zM20,0H21V1H20zM21,0H22V1H21zM22,0H23V1H22zM25,0H26V1H25zM26,0H27V1H26zM30,0H31V1H30zM32,0H33V1H32zM33,0H34V1H33zM37,0H38V1H37zM41,0H42V1H41zM45,0H46V1H45zM49,0H50V1H49zM55,0H56V1H55zM58,0H59V1H58zM59,0H60V1H59zM60,0H61V1H60zM61,0H62V1H61zM62,0H63V1H62zM63,0H64V1H63zM64,0H65V1H64zM0,1H1V2H0zM6,1H7V2H6zM9,1H10V2H9zM10,1H11V2H10zM13,1H14V2H13zM15,1H16V2H15zM16,1H17V2H16zM17,1H18V2H17zM18,1H19V2H18zM20,1H21V2H20zM21,1H22V2H21zM23,1H24V2H23zM24,1H25V2H24zM29,1H30V2H29zM33,1H34V2H33zM34,1H35V2H34zM36,1H37V2H36zM41,1H42V2H41zM43,1H44V2H43zM44,1H45V2H44zM45,1H46V2H45zM46,1H47V2H46zM48,1H49V2H48zM53,1H54V2H53zM56,1H57V2H56zM58,1H59V2H58zM64,1H65V2H64zM0,2H1V3H0zM2,2H3V3H2zM3,2H4V3H3zM4,2H5V3H4zM6,2H7V3H6zM10,2H11V3H10zM11,2H12V3H11zM12,2H13V3H12zM13,2H14V3H13zM14,2H15V3H14zM17,2H18V3H17zM18,2H19V3H18zM19,2H20V3H19zM20,2H21V3H20zM22,2H23V3H22zM23,2H24V3H23zM25,2H26V3H25zM29,2H30V3H29zM31,2H32V3H31zM34,2H35V3H34zM36,2H37V3H36zM37,2H38V3H37zM40,2H41V3H40zM42,2H43V3H42zM43,2H44V3H43zM44,2H45V3H44zM47,2H48V3H47zM49,2H50V3H49zM50,2H51V3H50zM52,2H53V3H52zM53,2H54V3H53zM54,2H55V3H54zM56,2H57V3H56zM58,2H59V3H58zM60,2H61V3H60zM61,2H62V3H61zM62,2H63V3H62zM64,2H65V3H64zM0,3H1V4H0zM2,3H3V4H2zM3,3H4V4H3zM4,3H5V4H4zM6,3H7V4H6zM9,3H10V4H9zM11,3H12V4H11zM12,3H13V4H12zM14,3H15V4H14zM21,3H22V4H21zM23,3H24V4H23zM24,3H25V4H24zM25,3H26V4H25zM27,3H28V4H27zM29,3H30V4H29zM30,3H31V4H30zM31,3H32V4H31zM33,3H34V4H33zM35,3H36V4H35zM37,3H38V4H37zM38,3H39V4H38zM39,3H40V4H39zM45,3H46V4H45zM46,3H47V4H46zM47,3H48V4H47zM51,3H52V4H51zM53,3H54V4H53zM54,3H55V4H54zM55,3H56V4H55zM58,3H59V4H58zM60,3H61V4H60zM61,3H62V4H61zM62,3H63V4H62zM64,3H65V4H64zM0,4H1V5H0zM2,4H3V5H2zM3,4H4V5H3zM4,4H5V5H4zM6,4H7V5H6zM9,4H10V5H9zM11,4H12V5H11zM12,4H13V5H12zM13,4H14V5H13zM14,4H15V5H14zM15,4H16V5H15zM17,4H18V5H17zM18,4H19V5H18zM19,4H20V5H19zM20,4H21V5H20zM26,4H27V5H26zM30,4H31V5H30zM31,4H32V5H31zM32,4H33V5H32zM33,4H34V5H33zM34,4H35V5H34zM35,4H36V5H35zM38,4H39V5H38zM39,4H40V5H39zM41,4H42V5H41zM47,4H48V5H47zM49,4H50V5H49zM50,4H51V5H50zM51,4H52V5H51zM52,4H53V5H52zM53,4H54V5H53zM56,4H57V5H56zM58,4H59V5H58zM60,4H61V5H60zM61,4H62V5H61zM62,4H63V5H62zM64,4H65V5H64zM0,5H1V6H0zM6,5H7V6H6zM8,5H9V6H8zM12,5H13V6H12zM18,5H19V6H18zM22,5H23V6H22zM25,5H26V6H25zM26,5H27V6H26zM29,5H30V6H29zM30,5H31V6H30zM34,5H35V6H34zM38,5H39V6H38zM39,5H40V6H39zM43,5H44V6H43zM44,5H45V6H44zM45,5H46V6H45zM46,5H47V6H46zM49,5H50V6H49zM50,5H51V6H50zM51,5H52V6H51zM53,5H54V6H53zM54,5H55V6H54zM58,5H59V6H58zM64,5H65V6H64zM0,6H1V7H0zM1,6H2V7H1zM2,6H3V7H2zM3,6H4V7H3zM4,6H5V7H4zM5,6H6V7H5zM6,6H7V7H6zM8,6H9V7H8zM10,6H11V7H10zM12,6H13V7H12zM14,6H15V7H14zM16,6H17V7H16zM18,6H19V7H18zM20,6H21V7H20zM22,6H23V7H22zM24,6H25V7H24zM26,6H27V7H26zM28,6H29V7H28zM30,6H31V7H30zM32,6H33V7H32zM34,6H35V7H34zM36,6H37V7H36zM38,6H39V7H38zM40,6H41V7H40zM42,6H43V7H42zM44,6H45V7H44zM46,6H47V7H46zM48,6H49V7H48zM50,6H51V7H50zM52,6H53V7H52zM54,6H55V7H54zM56,6H57V7H56zM58,6H59V7H58zM59,6H60V7H59zM60,6H61V7H60zM61,6H62V7H61zM62,6H63V7H62zM63,6H64V7H63zM64,6H65V7H64zM9,7H10V8H9zM10,7H11V8H10zM11,7H12V8H11zM12,7H13V8H12zM15,7H16V8H15zM16,7H17V8H16zM18,7H19V8H18zM19,7H20V8H19zM20,7H21V8H20zM21,7H22V8H21zM22,7H23V8H22zM27,7H28V8H27zM28,7H29V8H28zM29,7H30V8H29zM30,7H31V8H30zM34,7H35V8H34zM35,7H36V8H35zM38,7H39V8H38zM44,7H45V8H44zM45,7H46V8H45zM47,7H48V8H47zM48,7H49V8H48zM49,7H50V8H49zM51,7H52V8H51zM52,7H53V8H52zM53,7H54V8H53zM54,7H55V8H54zM0,8H1V9H0zM3,8H4V9H3zM5,8H6V9H5zM6,8H7V9H6zM8,8H9V9H8zM9,8H10V9H9zM11,8H12V9H11zM12,8H13V9H12zM13,8H14V9H13zM15,8H16V9H15zM18,8H19V9H18zM19,8H20V9H19zM21,8H22V9H21zM27,8H28V9H27zM28,8H29V9H28zM29,8H30V9H29zM30,8H31V9H30zM31,8H32V9H31zM32,8H33V9H32zM33,8H34V9H33zM34,8H35V9H34zM35,8H36V9H35zM38,8H39V9H38zM39,8H40V9H39zM40,8H41V9H40zM41,8H42V9H41zM42,8H43V9H42zM43,8H44V9H43zM48,8H49V9H48zM50,8H51V9H50zM52,8H53V9H52zM53,8H54V9H53zM57,8H58V9H57zM59,8H60V9H59zM4,9H5V10H4zM7,9H8V10H7zM8,9H9V10H8zM13,9H14V10H13zM16,9H17V10H16zM17,9H18V10H17zM18,9H19V10H18zM19,9H20V10H19zM20,9H21V10H20zM21,9H22V10H21zM23,9H24V10H23zM27,9H28V10H27zM29,9H30V10H29zM30,9H31V10H30zM33,9H34V10H33zM37,9H38V10H37zM40,9H41V10H40zM44,9H45V10H44zM46,9H47V10H46zM47,9H48V10H47zM50,9H51V10H50zM51,9H52V10H51zM52,9H53V10H52zM54,9H55V10H54zM56,9H57V10H56zM57,9H58V10H57zM59,9H60V10H59zM61,9H62V10H61zM62,9H63V10H62zM63,9H64V10H63zM64,9H65V10H64zM0,10H1V11H0zM1,10H2V11H1zM3,10H4V11H3zM4,10H5V11H4zM6,10H7V11H6zM8,10H9V11H8zM9,10H10V11H9zM11,10H12V11H11zM13,10H14V11H13zM16,10H17V11H16zM18,10H19V11H18zM19,10H20V11H19zM20,10H21V11H20zM22,10H23V11H22zM26,10H27V11H26zM28,10H29V11H28zM31,10H32V11H31zM32,10H33V11H32zM33,10H34V11H33zM38,10H39V11H38zM42,10H43V11H42zM43,10H44V11H43zM45,10H46V11H45zM48,10H49V11H48zM49,10H50V11H49zM50,10H51V11H50zM55,10H56V11H55zM60,10H61V11H60zM63,10H64V11H63zM1,11H2V12H1zM2,11H3V12H2zM3,11H4V12H3zM4,11H5V12H4zM5,11H6V12H5zM11,11H12V12H11zM12,11H13V12H12zM13,11H14V12H13zM14,11H15V12H14zM15,11H16V12H15zM17,11H18V12H17zM19,11H20V12H19zM20,11H21V12H20zM23,11H24V12H23zM25,11H26V12H25zM27,11H28V12H27zM28,11H29V12H28zM31,11H32V12H31zM33,11H34V12H33zM34,11H35V12H34zM35,11H36V12H35zM38,11H39V12H38zM41,11H42V12H41zM43,11H44V12H43zM44,11H45V12H44zM45,11H46V12H45zM48,11H49V12H48zM49,11H50V12H49zM50,11H51V12H50zM51,11H52V12H51zM52,11H53V12H52zM53,11H54V12H53zM57,11H58V12H57zM59,11H60V12H59zM60,11H61V12H60zM61,11H62V12H61zM63,11H64V12H63zM64,11H65V12H64zM6,12H7V13H6zM7,12H8V13H7zM8,12H9V13H8zM10,12H11V13H10zM12,12H13V13H12zM13,12H14V13H13zM14,12H15V13H14zM15,12H16V13H15zM16,12H17V13H16zM17,12H18V13H17zM18,12H19V13H18zM21,12H22V13H21zM23,12H24V13H23zM25,12H26V13H25zM26,12H27V13H26zM28,12H29V13H28zM29,12H30V13H29zM30,12H31V13H30zM38,12H39V13H38zM39,12H40V13H39zM42,12H43V13H42zM43,12H44V13H43zM51,12H52V13H51zM52,12H53V13H52zM54,12H55V13H54zM55,12H56V13H55zM57,12H58V13H57zM59,12H60V13H59zM60,12H61V13H60zM61,12H62V13H61zM62,12H63V13H62zM63,12H64V13H63zM64,12H65V13H64zM0,13H1V14H0zM2,13H3V14H2zM3,13H4V14H3zM7,13H8V14H7zM8,13H9V14H8zM13,13H14V14H13zM15,13H16V14H15zM16,13H17V14H16zM18,13H19V14H18zM21,13H22V14H21zM31,13H32V14H31zM32,13H33V14H32zM34,13H35V14H34zM35,13H36V14H35zM36,13H37V14H36zM39,13H40V14H39zM41,13H42V14H41zM42,13H43V14H42zM44,13H45V14H44zM47,13H48V14H47zM51,13H52V14H51zM52,13H53V14H52zM55,13H56V14H55zM57,13H58V14H57zM58,13H59V14H58zM60,13H61V14H60zM63,13H64V14H63zM64,13H65V14H64zM0,14H1V15H0zM1,14H2V15H1zM3,14H4V15H3zM6,14H7V15H6zM7,14H8V15H7zM9,14H10V15H9zM11,14H12V15H11zM14,14H15V15H14zM17,14H18V15H17zM18,14H19V15H18zM19,14H20V15H19zM22,14H23V15H22zM23,14H24V15H23zM24,14H25V15H24zM26,14H27V15H26zM29,14H30V15H29zM30,14H31V15H30zM34,14H35V15H34zM36,14H37V15H36zM37,14H38V15H37zM39,14H40V15H39zM40,14H41V15H40zM41,14H42V15H41zM42,14H43V15H42zM43,14H44V15H43zM46,14H47V15H46zM48,14H49V15H48zM49,14H50V15H49zM53,14H54V15H53zM55,14H56V15H55zM56,14H57V15H56zM58,14H59V15H58zM59,14H60V15H59zM62,14H63V15H62zM63,14H64V15H63zM1,15H2V16H1zM2,15H3V16H2zM3,15H4V16H3zM10,15H11V16H10zM13,15H14V16H13zM14,15H15V16H14zM15,15H16V16H15zM18,15H19V16H18zM20,15H21V16H20zM21,15H22V16H21zM25,15H26V16H25zM26,15H27V16H26zM28,15H29V16H28zM30,15H31V16H30zM31,15H32V16H31zM37,15H38V16H37zM39,15H40V16H39zM43,15H44V16H43zM44,15H45V16H44zM45,15H46V16H45zM47,15H48V16H47zM53,15H54V16H53zM54,15H55V16H54zM55,15H56V16H55zM56,15H57V16H56zM59,15H60V16H59zM61,15H62V16H61zM63,15H64V16H63zM64,15H65V16H64zM0,16H1V17H0zM1,16H2V17H1zM4,16H5V17H4zM5,16H6V17H5zM6,16H7V17H6zM7,16H8V17H7zM9,16H10V17H9zM14,16H15V17H14zM15,16H16V17H15zM19,16H20V17H19zM20,16H21V17H20zM23,16H24V17H23zM24,16H25V17H24zM25,16H26V17H25zM26,16H27V17H26zM27,16H28V17H27zM29,16H30V17H29zM30,16H31V17H30zM31,16H32V17H31zM32,16H33V17H32zM36,16H37V17H36zM37,16H38V17H37zM39,16H40V17H39zM40,16H41V17H40zM47,16H48V17H47zM48,16H49V17H48zM49,16H50V17H49zM50,16H51V17H50zM60,16H61V17H60zM61,16H62V17H61zM63,16H64V17H63zM0,17H1V18H0zM1,17H2V18H1zM4,17H5V18H4zM5,17H6V18H5zM7,17H8V18H7zM11,17H12V18H11zM12,17H13V18H12zM15,17H16V18H15zM16,17H17V18H16zM17,17H18V18H17zM19,17H20V18H19zM21,17H22V18H21zM24,17H25V18H24zM26,17H27V18H26zM27,17H28V18H27zM32,17H33V18H32zM33,17H34V18H33zM36,17H37V18H36zM39,17H40V18H39zM40,17H41V18H40zM41,17H42V18H41zM42,17H43V18H42zM43,17H44V18H43zM44,17H45V18H44zM45,17H46V18H45zM46,17H47V18H46zM48,17H49V18H48zM49,17H50V18H49zM51,17H52V18H51zM52,17H53V18H52zM55,17H56V18H55zM58,17H59V18H58zM0,18H1V19H0zM1,18H2V19H1zM2,18H3V19H2zM5,18H6V19H5zM6,18H7V19H6zM7,18H8V19H7zM10,18H11V19H10zM12,18H13V19H12zM13,18H14V19H13zM14,18H15V19H14zM15,18H16V19H15zM16,18H17V19H16zM18,18H19V19H18zM24,18H25V19H24zM26,18H27V19H26zM28,18H29V19H28zM33,18H34V19H33zM34,18H35V19H34zM37,18H38V19H37zM38,18H39V19H38zM42,18H43V19H42zM48,18H49V19H48zM53,18H54V19H53zM54,18H55V19H54zM55,18H56V19H55zM56,18H57V19H56zM57,18H58V19H57zM58,18H59V19H58zM60,18H61V19H60zM64,18H65V19H64zM0,19H1V20H0zM2,19H3V20H2zM4,19H5V20H4zM5,19H6V20H5zM9,19H10V20H9zM13,19H14V20H13zM16,19H17V20H16zM17,19H18V20H17zM18,19H19V20H18zM22,19H23V20H22zM23,19H24V20H23zM24,19H25V20H24zM26,19H27V20H26zM28,19H29V20H28zM29,19H30V20H29zM30,19H31V20H30zM32,19H33V20H32zM34,19H35V20H34zM40,19H41V20H40zM43,19H44V20H43zM46,19H47V20H46zM51,19H52V20H51zM53,19H54V20H53zM54,19H55V20H54zM55,19H56V20H55zM57,19H58V20H57zM60,19H61V20H60zM61,19H62V20H61zM63,19H64V20H63zM2,20H3V21H2zM4,20H5V21H4zM6,20H7V21H6zM7,20H8V21H7zM9,20H10V21H9zM10,20H11V21H10zM11,20H12V21H11zM14,20H15V21H14zM15,20H16V21H15zM17,20H18V21H17zM18,20H19V21H18zM19,20H20V21H19zM20,20H21V21H20zM21,20H22V21H21zM22,20H23V21H22zM25,20H26V21H25zM26,20H27V21H26zM28,20H29V21H28zM29,20H30V21H29zM32,20H33V21H32zM34,20H35V21H34zM35,20H36V21H35zM36,20H37V21H36zM40,20H41V21H40zM41,20H42V21H41zM46,20H47V21H46zM51,20H52V21H51zM52,20H53V21H52zM53,20H54V21H53zM55,20H56V21H55zM60,20H61V21H60zM61,20H62V21H61zM1,21H2V22H1zM2,21H3V22H2zM3,21H4V22H3zM4,21H5V22H4zM5,21H6V22H5zM7,21H8V22H7zM11,21H12V22H11zM12,21H13V22H12zM14,21H15V22H14zM16,21H17V22H16zM17,21H18V22H17zM18,21H19V22H18zM20,21H21V22H20zM21,21H22V22H21zM22,21H23V22H22zM25,21H26V22H25zM26,21H27V22H26zM28,21H29V22H28zM29,21H30V22H29zM31,21H32V22H31zM33,21H34V22H33zM34,21H35V22H34zM35,21H36V22H35zM36,21H37V22H36zM37,21H38V22H37zM39,21H40V22H39zM40,21H41V22H40zM42,21H43V22H42zM43,21H44V22H43zM44,21H45V22H44zM46,21H47V22H46zM47,21H48V22H47zM51,21H52V22H51zM53,21H54V22H53zM55,21H56V22H55zM57,21H58V22H57zM59,21H60V22H59zM63,21H64V22H63zM64,21H65V22H64zM0,22H1V23H0zM3,22H4V23H3zM4,22H5V23H4zM5,22H6V23H5zM6,22H7V23H6zM7,22H8V23H7zM8,22H9V23H8zM11,22H12V23H11zM12,22H13V23H12zM15,22H16V23H15zM18,22H19V23H18zM20,22H21V23H20zM22,22H23V23H22zM26,22H27V23H26zM28,22H29V23H28zM29,22H30V23H29zM32,22H33V23H32zM33,22H34V23H33zM38,22H39V23H38zM40,22H41V23H40zM41,22H42V23H41zM42,22H43V23H42zM43,22H44V23H43zM45,22H46V23H45zM47,22H48V23H47zM48,22H49V23H48zM49,22H50V23H49zM53,22H54V23H53zM54,22H55V23H54zM55,22H56V23H55zM56,22H57V23H56zM57,22H58V23H57zM59,22H60V23H59zM60,22H61V23H60zM61,22H62V23H61zM63,22H64V23H63zM0,23H1V24H0zM2,23H3V24H2zM3,23H4V24H3zM8,23H9V24H8zM10,23H11V24H10zM11,23H12V24H11zM13,23H14V24H13zM19,23H20V24H19zM20,23H21V24H20zM22,23H23V24H22zM24,23H25V24H24zM25,23H26V24H25zM26,23H27V24H26zM27,23H28V24H27zM31,23H32V24H31zM33,23H34V24H33zM37,23H38V24H37zM43,23H44V24H43zM45,23H46V24H45zM46,23H47V24H46zM49,23H50V24H49zM51,23H52V24H51zM52,23H53V24H52zM54,23H55V24H54zM56,23H57V24H56zM61,23H62V24H61zM62,23H63V24H62zM63,23H64V24H63zM64,23H65V24H64zM0,24H1V25H0zM2,24H3V25H2zM3,24H4V25H3zM6,24H7V25H6zM14,24H15V25H14zM15,24H16V25H15zM19,24H20V25H19zM20,24H21V25H20zM21,24H22V25H21zM24,24H25V25H24zM26,24H27V25H26zM29,24H30V25H29zM31,24H32V25H31zM34,24H35V25H34zM35,24H36V25H35zM37,24H38V25H37zM38,24H39V25H38zM40,24H41V25H40zM41,24H42V25H41zM43,24H44V25H43zM46,24H47V25H46zM47,24H48V25H47zM50,24H51V25H50zM55,24H56V25H55zM56,24H57V25H56zM61,24H62V25H61zM62,24H63V25H62zM64,24H65V25H64zM0,25H1V26H0zM1,25H2V26H1zM4,25H5V26H4zM5,25H6V26H5zM8,25H9V26H8zM10,25H11V26H10zM12,25H13V26H12zM14,25H15V26H14zM15,25H16V26H15zM16,25H17V26H16zM19,25H20V26H19zM20,25H21V26H20zM21,25H22V26H21zM26,25H27V26H26zM27,25H28V26H27zM28,25H29V26H28zM29,25H30V26H29zM32,25H33V26H32zM33,25H34V26H33zM34,25H35V26H34zM35,25H36V26H35zM36,25H37V26H36zM37,25H38V26H37zM39,25H40V26H39zM44,25H45V26H44zM46,25H47V26H46zM47,25H48V26H47zM50,25H51V26H50zM51,25H52V26H51zM52,25H53V26H52zM54,25H55V26H54zM57,25H58V26H57zM59,25H60V26H59zM61,25H62V26H61zM63,25H64V26H63zM3,26H4V27H3zM5,26H6V27H5zM6,26H7V27H6zM7,26H8V27H7zM8,26H9V27H8zM12,26H13V27H12zM13,26H14V27H13zM15,26H16V27H15zM16,26H17V27H16zM18,26H19V27H18zM19,26H20V27H19zM20,26H21V27H20zM23,26H24V27H23zM24,26H25V27H24zM27,26H28V27H27zM28,26H29V27H28zM33,26H34V27H33zM34,26H35V27H34zM35,26H36V27H35zM37,26H38V27H37zM38,26H39V27H38zM39,26H40V27H39zM41,26H42V27H41zM44,26H45V27H44zM45,26H46V27H45zM46,26H47V27H46zM50,26H51V27H50zM52,26H53V27H52zM53,26H54V27H53zM57,26H58V27H57zM58,26H59V27H58zM60,26H61V27H60zM0,27H1V28H0zM3,27H4V28H3zM5,27H6V28H5zM8,27H9V28H8zM9,27H10V28H9zM11,27H12V28H11zM13,27H14V28H13zM14,27H15V28H14zM15,27H16V28H15zM16,27H17V28H16zM18,27H19V28H18zM19,27H20V28H19zM21,27H22V28H21zM23,27H24V28H23zM26,27H27V28H26zM27,27H28V28H27zM33,27H34V28H33zM34,27H35V28H34zM35,27H36V28H35zM37,27H38V28H37zM39,27H40V28H39zM41,27H42V28H41zM42,27H43V28H42zM43,27H44V28H43zM45,27H46V28H45zM47,27H48V28H47zM49,27H50V28H49zM50,27H51V28H50zM51,27H52V28H51zM53,27H54V28H53zM54,27H55V28H54zM56,27H57V28H56zM57,27H58V28H57zM63,27H64V28H63zM1,28H2V29H1zM4,28H5V29H4zM6,28H7V29H6zM8,28H9V29H8zM9,28H10V29H9zM10,28H11V29H10zM15,28H16V29H15zM16,28H17V29H16zM17,28H18V29H17zM21,28H22V29H21zM23,28H24V29H23zM24,28H25V29H24zM25,28H26V29H25zM26,28H27V29H26zM30,28H31V29H30zM31,28H32V29H31zM32,28H33V29H32zM33,28H34V29H33zM36,28H37V29H36zM39,28H40V29H39zM40,28H41V29H40zM41,28H42V29H41zM44,28H45V29H44zM45,28H46V29H45zM46,28H47V29H46zM48,28H49V29H48zM53,28H54V29H53zM56,28H57V29H56zM60,28H61V29H60zM61,28H62V29H61zM63,28H64V29H63zM2,29H3V30H2zM3,29H4V30H3zM5,29H6V30H5zM7,29H8V30H7zM9,29H10V30H9zM12,29H13V30H12zM13,29H14V30H13zM14,29H15V30H14zM18,29H19V30H18zM19,29H20V30H19zM21,29H22V30H21zM22,29H23V30H22zM23,29H24V30H23zM28,29H29V30H28zM29,29H30V30H29zM30,29H31V30H30zM31,29H32V30H31zM32,29H33V30H32zM33,29H34V30H33zM34,29H35V30H34zM38,29H39V30H38zM40,29H41V30H40zM42,29H43V30H42zM47,29H48V30H47zM50,29H51V30H50zM51,29H52V30H51zM54,29H55V30H54zM55,29H56V30H55zM56,29H57V30H56zM57,29H58V30H57zM62,29H63V30H62zM63,29H64V30H63zM1,30H2V31H1zM3,30H4V31H3zM4,30H5V31H4zM5,30H6V31H5zM6,30H7V31H6zM7,30H8V31H7zM8,30H9V31H8zM9,30H10V31H9zM10,30H11V31H10zM12,30H13V31H12zM13,30H14V31H13zM14,30H15V31H14zM15,30H16V31H15zM16,30H17V31H16zM17,30H18V31H17zM20,30H21V31H20zM23,30H24V31H23zM29,30H30V31H29zM30,30H31V31H30zM31,30H32V31H31zM32,30H33V31H32zM33,30H34V31H33zM34,30H35V31H34zM36,30H37V31H36zM37,30H38V31H37zM40,30H41V31H40zM41,30H42V31H41zM42,30H43V31H42zM46,30H47V31H46zM47,30H48V31H47zM49,30H50V31H49zM52,30H53V31H52zM53,30H54V31H53zM54,30H55V31H54zM56,30H57V31H56zM57,30H58V31H57zM58,30H59V31H58zM59,30H60V31H59zM60,30H61V31H60zM62,30H63V31H62zM64,30H65V31H64zM1,31H2V32H1zM2,31H3V32H2zM4,31H5V32H4zM8,31H9V32H8zM11,31H12V32H11zM12,31H13V32H12zM15,31H16V32H15zM18,31H19V32H18zM19,31H20V32H19zM23,31H24V32H23zM24,31H25V32H24zM25,31H26V32H25zM29,31H30V32H29zM30,31H31V32H30zM34,31H35V32H34zM40,31H41V32H40zM41,31H42V32H41zM43,31H44V32H43zM45,31H46V32H45zM46,31H47V32H46zM52,31H53V32H52zM53,31H54V32H53zM55,31H56V32H55zM56,31H57V32H56zM60,31H61V32H60zM63,31H64V32H63zM64,31H65V32H64zM0,32H1V33H0zM4,32H5V33H4zM6,32H7V33H6zM8,32H9V33H8zM9,32H10V33H9zM12,32H13V33H12zM13,32H14V33H13zM15,32H16V33H15zM17,32H18V33H17zM22,32H23V33H22zM23,32H24V33H23zM24,32H25V33H24zM25,32H26V33H25zM27,32H28V33H27zM30,32H31V33H30zM32,32H33V33H32zM34,32H35V33H34zM35,32H36V33H35zM36,32H37V33H36zM37,32H38V33H37zM40,32H41V33H40zM42,32H43V33H42zM45,32H46V33H45zM46,32H47V33H46zM47,32H48V33H47zM48,32H49V33H48zM49,32H50V33H49zM52,32H53V33H52zM54,32H55V33H54zM56,32H57V33H56zM58,32H59V33H58zM60,32H61V33H60zM61,32H62V33H61zM64,32H65V33H64zM0,33H1V34H0zM2,33H3V34H2zM4,33H5V34H4zM8,33H9V34H8zM12,33H13V34H12zM13,33H14V34H13zM14,33H15V34H14zM15,33H16V34H15zM16,33H17V34H16zM17,33H18V34H17zM19,33H20V34H19zM20,33H21V34H20zM23,33H24V34H23zM26,33H27V34H26zM27,33H28V34H27zM30,33H31V34H30zM34,33H35V34H34zM37,33H38V34H37zM41,33H42V34H41zM45,33H46V34H45zM49,33H50V34H49zM53,33H54V34H53zM56,33H57V34H56zM60,33H61V34H60zM61,33H62V34H61zM62,33H63V34H62zM0,34H1V35H0zM3,34H4V35H3zM4,34H5V35H4zM5,34H6V35H5zM6,34H7V35H6zM7,34H8V35H7zM8,34H9V35H8zM9,34H10V35H9zM14,34H15V35H14zM16,34H17V35H16zM17,34H18V35H17zM20,34H21V35H20zM21,34H22V35H21zM23,34H24V35H23zM24,34H25V35H24zM27,34H28V35H27zM28,34H29V35H28zM30,34H31V35H30zM31,34H32V35H31zM32,34H33V35H32zM33,34H34V35H33zM34,34H35V35H34zM36,34H37V35H36zM38,34H39V35H38zM41,34H42V35H41zM42,34H43V35H42zM43,34H44V35H43zM44,34H45V35H44zM45,34H46V35H45zM48,34H49V35H48zM50,34H51V35H50zM53,34H54V35H53zM54,34H55V35H54zM55,34H56V35H55zM56,34H57V35H56zM57,34H58V35H57zM58,34H59V35H58zM59,34H60V35H59zM60,34H61V35H60zM61,34H62V35H61zM63,34H64V35H63zM1,35H2V36H1zM2,35H3V36H2zM3,35H4V36H3zM4,35H5V36H4zM7,35H8V36H7zM10,35H11V36H10zM11,35H12V36H11zM12,35H13V36H12zM17,35H18V36H17zM19,35H20V36H19zM22,35H23V36H22zM23,35H24V36H23zM25,35H26V36H25zM27,35H28V36H27zM29,35H30V36H29zM32,35H33V36H32zM37,35H38V36H37zM39,35H40V36H39zM40,35H41V36H40zM43,35H44V36H43zM44,35H45V36H44zM45,35H46V36H45zM49,35H50V36H49zM51,35H52V36H51zM55,35H56V36H55zM62,35H63V36H62zM63,35H64V36H63zM0,36H1V37H0zM1,36H2V37H1zM2,36H3V37H2zM3,36H4V37H3zM6,36H7V37H6zM10,36H11V37H10zM11,36H12V37H11zM13,36H14V37H13zM14,36H15V37H14zM16,36H17V37H16zM20,36H21V37H20zM25,36H26V37H25zM27,36H28V37H27zM28,36H29V37H28zM30,36H31V37H30zM36,36H37V37H36zM38,36H39V37H38zM39,36H40V37H39zM40,36H41V37H40zM42,36H43V37H42zM46,36H47V37H46zM48,36H49V37H48zM52,36H53V37H52zM55,36H56V37H55zM56,36H57V37H56zM58,36H59V37H58zM62,36H63V37H62zM4,37H5V38H4zM7,37H8V38H7zM9,37H10V38H9zM11,37H12V38H11zM12,37H13V38H12zM13,37H14V38H13zM14,37H15V38H14zM17,37H18V38H17zM18,37H19V38H18zM27,37H28V38H27zM29,37H30V38H29zM31,37H32V38H31zM32,37H33V38H32zM41,37H42V38H41zM42,37H43V38H42zM43,37H44V38H43zM44,37H45V38H44zM45,37H46V38H45zM46,37H47V38H46zM52,37H53V38H52zM53,37H54V38H53zM56,37H57V38H56zM57,37H58V38H57zM58,37H59V38H58zM59,37H60V38H59zM60,37H61V38H60zM62,37H63V38H62zM63,37H64V38H63zM64,37H65V38H64zM0,38H1V39H0zM1,38H2V39H1zM4,38H5V39H4zM5,38H6V39H5zM6,38H7V39H6zM7,38H8V39H7zM10,38H11V39H10zM12,38H13V39H12zM13,38H14V39H13zM17,38H18V39H17zM20,38H21V39H20zM22,38H23V39H22zM23,38H24V39H23zM27,38H28V39H27zM29,38H30V39H29zM35,38H36V39H35zM36,38H37V39H36zM38,38H39V39H38zM41,38H42V39H41zM42,38H43V39H42zM44,38H45V39H44zM47,38H48V39H47zM48,38H49V39H48zM49,38H50V39H49zM50,38H51V39H50zM56,38H57V39H56zM58,38H59V39H58zM59,38H60V39H59zM60,38H61V39H60zM61,38H62V39H61zM64,38H65V39H64zM0,39H1V40H0zM1,39H2V40H1zM2,39H3V40H2zM5,39H6V40H5zM7,39H8V40H7zM8,39H9V40H8zM10,39H11V40H10zM13,39H14V40H13zM14,39H15V40H14zM15,39H16V40H15zM16,39H17V40H16zM17,39H18V40H17zM18,39H19V40H18zM19,39H20V40H19zM21,39H22V40H21zM24,39H25V40H24zM25,39H26V40H25zM27,39H28V40H27zM28,39H29V40H28zM29,39H30V40H29zM31,39H32V40H31zM32,39H33V40H32zM33,39H34V40H33zM34,39H35V40H34zM40,39H41V40H40zM41,39H42V40H41zM43,39H44V40H43zM45,39H46V40H45zM48,39H49V40H48zM57,39H58V40H57zM61,39H62V40H61zM64,39H65V40H64zM0,40H1V41H0zM3,40H4V41H3zM5,40H6V41H5zM6,40H7V41H6zM7,40H8V41H7zM10,40H11V41H10zM14,40H15V41H14zM16,40H17V41H16zM19,40H20V41H19zM20,40H21V41H20zM22,40H23V41H22zM23,40H24V41H23zM26,40H27V41H26zM27,40H28V41H27zM30,40H31V41H30zM31,40H32V41H31zM32,40H33V41H32zM37,40H38V41H37zM38,40H39V41H38zM39,40H40V41H39zM42,40H43V41H42zM44,40H45V41H44zM46,40H47V41H46zM47,40H48V41H47zM49,40H50V41H49zM54,40H55V41H54zM55,40H56V41H55zM56,40H57V41H56zM60,40H61V41H60zM61,40H62V41H61zM62,40H63V41H62zM64,40H65V41H64zM0,41H1V42H0zM1,41H2V42H1zM2,41H3V42H2zM3,41H4V42H3zM8,41H9V42H8zM9,41H10V42H9zM10,41H11V42H10zM11,41H12V42H11zM13,41H14V42H13zM16,41H17V42H16zM19,41H20V42H19zM20,41H21V42H20zM25,41H26V42H25zM27,41H28V42H27zM29,41H30V42H29zM32,41H33V42H32zM35,41H36V42H35zM37,41H38V42H37zM39,41H40V42H39zM40,41H41V42H40zM42,41H43V42H42zM46,41H47V42H46zM47,41H48V42H47zM51,41H52V42H51zM53,41H54V42H53zM54,41H55V42H54zM56,41H57V42H56zM59,41H60V42H59zM61,41H62V42H61zM62,41H63V42H62zM64,41H65V42H64zM2,42H3V43H2zM3,42H4V43H3zM4,42H5V43H4zM6,42H7V43H6zM9,42H10V43H9zM11,42H12V43H11zM14,42H15V43H14zM15,42H16V43H15zM16,42H17V43H16zM18,42H19V43H18zM21,42H22V43H21zM22,42H23V43H22zM26,42H27V43H26zM28,42H29V43H28zM30,42H31V43H30zM32,42H33V43H32zM34,42H35V43H34zM36,42H37V43H36zM40,42H41V43H40zM42,42H43V43H42zM44,42H45V43H44zM46,42H47V43H46zM48,42H49V43H48zM49,42H50V43H49zM50,42H51V43H50zM52,42H53V43H52zM55,42H56V43H55zM58,42H59V43H58zM60,42H61V43H60zM61,42H62V43H61zM64,42H65V43H64zM0,43H1V44H0zM1,43H2V44H1zM8,43H9V44H8zM12,43H13V44H12zM13,43H14V44H13zM16,43H17V44H16zM19,43H20V44H19zM20,43H21V44H20zM21,43H22V44H21zM24,43H25V44H24zM25,43H26V44H25zM28,43H29V44H28zM29,43H30V44H29zM30,43H31V44H30zM31,43H32V44H31zM32,43H33V44H32zM34,43H35V44H34zM35,43H36V44H35zM38,43H39V44H38zM39,43H40V44H39zM40,43H41V44H40zM44,43H45V44H44zM45,43H46V44H45zM50,43H51V44H50zM51,43H52V44H51zM57,43H58V44H57zM58,43H59V44H58zM59,43H60V44H59zM63,43H64V44H63zM64,43H65V44H64zM1,44H2V45H1zM2,44H3V45H2zM4,44H5V45H4zM6,44H7V45H6zM9,44H10V45H9zM10,44H11V45H10zM11,44H12V45H11zM13,44H14V45H13zM14,44H15V45H14zM15,44H16V45H15zM20,44H21V45H20zM22,44H23V45H22zM24,44H25V45H24zM28,44H29V45H28zM29,44H30V45H29zM34,44H35V45H34zM35,44H36V45H35zM38,44H39V45H38zM39,44H40V45H39zM41,44H42V45H41zM43,44H44V45H43zM44,44H45V45H44zM47,44H48V45H47zM48,44H49V45H48zM50,44H51V45H50zM51,44H52V45H51zM52,44H53V45H52zM53,44H54V45H53zM54,44H55V45H54zM56,44H57V45H56zM57,44H58V45H57zM59,44H60V45H59zM62,44H63V45H62zM64,44H65V45H64zM1,45H2V46H1zM3,45H4V46H3zM7,45H8V46H7zM9,45H10V46H9zM12,45H13V46H12zM19,45H20V46H19zM20,45H21V46H20zM21,45H22V46H21zM22,45H23V46H22zM23,45H24V46H23zM28,45H29V46H28zM29,45H30V46H29zM32,45H33V46H32zM33,45H34V46H33zM35,45H36V46H35zM37,45H38V46H37zM39,45H40V46H39zM40,45H41V46H40zM41,45H42V46H41zM42,45H43V46H42zM43,45H44V46H43zM46,45H47V46H46zM47,45H48V46H47zM48,45H49V46H48zM49,45H50V46H49zM51,45H52V46H51zM52,45H53V46H52zM55,45H56V46H55zM57,45H58V46H57zM58,45H59V46H58zM59,45H60V46H59zM61,45H62V46H61zM62,45H63V46H62zM63,45H64V46H63zM64,45H65V46H64zM0,46H1V47H0zM5,46H6V47H5zM6,46H7V47H6zM7,46H8V47H7zM11,46H12V47H11zM12,46H13V47H12zM14,46H15V47H14zM16,46H17V47H16zM18,46H19V47H18zM19,46H20V47H19zM23,46H24V47H23zM25,46H26V47H25zM30,46H31V47H30zM31,46H32V47H31zM33,46H34V47H33zM35,46H36V47H35zM36,46H37V47H36zM38,46H39V47H38zM41,46H42V47H41zM42,46H43V47H42zM44,46H45V47H44zM45,46H46V47H45zM50,46H51V47H50zM55,46H56V47H55zM57,46H58V47H57zM58,46H59V47H58zM61,46H62V47H61zM63,46H64V47H63zM64,46H65V47H64zM0,47H1V48H0zM1,47H2V48H1zM4,47H5V48H4zM7,47H8V48H7zM11,47H12V48H11zM14,47H15V48H14zM16,47H17V48H16zM17,47H18V48H17zM18,47H19V48H18zM19,47H20V48H19zM21,47H22V48H21zM22,47H23V48H22zM27,47H28V48H27zM28,47H29V48H28zM30,47H31V48H30zM35,47H36V48H35zM41,47H42V48H41zM43,47H44V48H43zM49,47H50V48H49zM50,47H51V48H50zM53,47H54V48H53zM56,47H57V48H56zM57,47H58V48H57zM61,47H62V48H61zM63,47H64V48H63zM64,47H65V48H64zM0,48H1V49H0zM2,48H3V49H2zM4,48H5V49H4zM6,48H7V49H6zM7,48H8V49H7zM10,48H11V49H10zM11,48H12V49H11zM12,48H13V49H12zM13,48H14V49H13zM14,48H15V49H14zM16,48H17V49H16zM17,48H18V49H17zM18,48H19V49H18zM19,48H20V49H19zM22,48H23V49H22zM25,48H26V49H25zM26,48H27V49H26zM27,48H28V49H27zM28,48H29V49H28zM29,48H30V49H29zM34,48H35V49H34zM36,48H37V49H36zM38,48H39V49H38zM39,48H40V49H39zM43,48H44V49H43zM46,48H47V49H46zM47,48H48V49H47zM50,48H51V49H50zM52,48H53V49H52zM54,48H55V49H54zM55,48H56V49H55zM57,48H58V49H57zM62,48H63V49H62zM63,48H64V49H63zM64,48H65V49H64zM0,49H1V50H0zM2,49H3V50H2zM3,49H4V50H3zM5,49H6V50H5zM7,49H8V50H7zM9,49H10V50H9zM10,49H11V50H10zM13,49H14V50H13zM14,49H15V50H14zM17,49H18V50H17zM19,49H20V50H19zM24,49H25V50H24zM27,49H28V50H27zM28,49H29V50H28zM32,49H33V50H32zM33,49H34V50H33zM34,49H35V50H34zM35,49H36V50H35zM37,49H38V50H37zM38,49H39V50H38zM39,49H40V50H39zM40,49H41V50H40zM42,49H43V50H42zM44,49H45V50H44zM47,49H48V50H47zM48,49H49V50H48zM49,49H50V50H49zM50,49H51V50H50zM51,49H52V50H51zM53,49H54V50H53zM54,49H55V50H54zM55,49H56V50H55zM58,49H59V50H58zM59,49H60V50H59zM64,49H65V50H64zM4,50H5V51H4zM5,50H6V51H5zM6,50H7V51H6zM9,50H10V51H9zM10,50H11V51H10zM12,50H13V51H12zM13,50H14V51H13zM17,50H18V51H17zM20,50H21V51H20zM22,50H23V51H22zM24,50H25V51H24zM25,50H26V51H25zM26,50H27V51H26zM31,50H32V51H31zM32,50H33V51H32zM33,50H34V51H33zM37,50H38V51H37zM40,50H41V51H40zM42,50H43V51H42zM44,50H45V51H44zM47,50H48V51H47zM48,50H49V51H48zM49,50H50V51H49zM51,50H52V51H51zM52,50H53V51H52zM53,50H54V51H53zM58,50H59V51H58zM61,50H62V51H61zM62,50H63V51H62zM64,50H65V51H64zM0,51H1V52H0zM2,51H3V52H2zM3,51H4V52H3zM4,51H5V52H4zM5,51H6V52H5zM7,51H8V52H7zM8,51H9V52H8zM9,51H10V52H9zM10,51H11V52H10zM15,51H16V52H15zM19,51H20V52H19zM21,51H22V52H21zM26,51H27V52H26zM27,51H28V52H27zM28,51H29V52H28zM29,51H30V52H29zM31,51H32V52H31zM32,51H33V52H32zM33,51H34V52H33zM37,51H38V52H37zM38,51H39V52H38zM41,51H42V52H41zM46,51H47V52H46zM47,51H48V52H47zM49,51H50V52H49zM51,51H52V52H51zM52,51H53V52H52zM55,51H56V52H55zM56,51H57V52H56zM57,51H58V52H57zM59,51H60V52H59zM63,51H64V52H63zM2,52H3V53H2zM3,52H4V53H3zM4,52H5V53H4zM6,52H7V53H6zM7,52H8V53H7zM9,52H10V53H9zM10,52H11V53H10zM11,52H12V53H11zM15,52H16V53H15zM17,52H18V53H17zM18,52H19V53H18zM20,52H21V53H20zM21,52H22V53H21zM23,52H24V53H23zM25,52H26V53H25zM31,52H32V53H31zM32,52H33V53H32zM34,52H35V53H34zM36,52H37V53H36zM37,52H38V53H37zM42,52H43V53H42zM43,52H44V53H43zM44,52H45V53H44zM46,52H47V53H46zM49,52H50V53H49zM50,52H51V53H50zM51,52H52V53H51zM54,52H55V53H54zM55,52H56V53H55zM56,52H57V53H56zM57,52H58V53H57zM58,52H59V53H58zM60,52H61V53H60zM62,52H63V53H62zM63,52H64V53H63zM1,53H2V54H1zM2,53H3V54H2zM10,53H11V54H10zM13,53H14V54H13zM14,53H15V54H14zM16,53H17V54H16zM17,53H18V54H17zM19,53H20V54H19zM21,53H22V54H21zM22,53H23V54H22zM25,53H26V54H25zM28,53H29V54H28zM29,53H30V54H29zM33,53H34V54H33zM34,53H35V54H34zM37,53H38V54H37zM38,53H39V54H38zM39,53H40V54H39zM41,53H42V54H41zM42,53H43V54H42zM43,53H44V54H43zM44,53H45V54H44zM46,53H47V54H46zM49,53H50V54H49zM50,53H51V54H50zM51,53H52V54H51zM52,53H53V54H52zM53,53H54V54H53zM57,53H58V54H57zM58,53H59V54H58zM61,53H62V54H61zM63,53H64V54H63zM64,53H65V54H64zM2,54H3V55H2zM3,54H4V55H3zM5,54H6V55H5zM6,54H7V55H6zM8,54H9V55H8zM9,54H10V55H9zM10,54H11V55H10zM12,54H13V55H12zM13,54H14V55H13zM17,54H18V55H17zM18,54H19V55H18zM20,54H21V55H20zM21,54H22V55H21zM24,54H25V55H24zM25,54H26V55H25zM26,54H27V55H26zM28,54H29V55H28zM29,54H30V55H29zM30,54H31V55H30zM31,54H32V55H31zM32,54H33V55H32zM34,54H35V55H34zM35,54H36V55H35zM36,54H37V55H36zM37,54H38V55H37zM38,54H39V55H38zM40,54H41V55H40zM42,54H43V55H42zM47,54H48V55H47zM48,54H49V55H48zM49,54H50V55H49zM50,54H51V55H50zM53,54H54V55H53zM57,54H58V55H57zM60,54H61V55H60zM63,54H64V55H63zM64,54H65V55H64zM0,55H1V56H0zM3,55H4V56H3zM7,55H8V56H7zM9,55H10V56H9zM11,55H12V56H11zM15,55H16V56H15zM20,55H21V56H20zM23,55H24V56H23zM25,55H26V56H25zM26,55H27V56H26zM27,55H28V56H27zM29,55H30V56H29zM32,55H33V56H32zM34,55H35V56H34zM35,55H36V56H35zM36,55H37V56H36zM39,55H40V56H39zM40,55H41V56H40zM41,55H42V56H41zM45,55H46V56H45zM46,55H47V56H46zM51,55H52V56H51zM52,55H53V56H52zM54,55H55V56H54zM57,55H58V56H57zM58,55H59V56H58zM59,55H60V56H59zM63,55H64V56H63zM64,55H65V56H64zM1,56H2V57H1zM2,56H3V57H2zM4,56H5V57H4zM6,56H7V57H6zM7,56H8V57H7zM8,56H9V57H8zM11,56H12V57H11zM13,56H14V57H13zM14,56H15V57H14zM15,56H16V57H15zM16,56H17V57H16zM20,56H21V57H20zM26,56H27V57H26zM28,56H29V57H28zM29,56H30V57H29zM30,56H31V57H30zM31,56H32V57H31zM32,56H33V57H32zM33,56H34V57H33zM34,56H35V57H34zM37,56H38V57H37zM42,56H43V57H42zM43,56H44V57H43zM44,56H45V57H44zM51,56H52V57H51zM52,56H53V57H52zM54,56H55V57H54zM56,56H57V57H56zM57,56H58V57H57zM58,56H59V57H58zM59,56H60V57H59zM60,56H61V57H60zM61,56H62V57H61zM64,56H65V57H64zM8,57H9V58H8zM9,57H10V58H9zM12,57H13V58H12zM14,57H15V58H14zM17,57H18V58H17zM23,57H24V58H23zM24,57H25V58H24zM25,57H26V58H25zM26,57H27V58H26zM27,57H28V58H27zM30,57H31V58H30zM34,57H35V58H34zM35,57H36V58H35zM37,57H38V58H37zM39,57H40V58H39zM40,57H41V58H40zM41,57H42V58H41zM43,57H44V58H43zM45,57H46V58H45zM47,57H48V58H47zM49,57H50V58H49zM51,57H52V58H51zM55,57H56V58H55zM56,57H57V58H56zM60,57H61V58H60zM62,57H63V58H62zM0,58H1V59H0zM1,58H2V59H1zM2,58H3V59H2zM3,58H4V59H3zM4,58H5V59H4zM5,58H6V59H5zM6,58H7V59H6zM10,58H11V59H10zM12,58H13V59H12zM13,58H14V59H13zM15,58H16V59H15zM19,58H20V59H19zM21,58H22V59H21zM22,58H23V59H22zM23,58H24V59H23zM24,58H25V59H24zM29,58H30V59H29zM30,58H31V59H30zM32,58H33V59H32zM34,58H35V59H34zM35,58H36V59H35zM36,58H37V59H36zM37,58H38V59H37zM38,58H39V59H38zM42,58H43V59H42zM43,58H44V59H43zM45,58H46V59H45zM48,58H49V59H48zM49,58H50V59H49zM50,58H51V59H50zM52,58H53V59H52zM53,58H54V59H53zM56,58H57V59H56zM58,58H59V59H58zM60,58H61V59H60zM61,58H62V59H61zM62,58H63V59H62zM0,59H1V60H0zM6,59H7V60H6zM8,59H9V60H8zM10,59H11V60H10zM11,59H12V60H11zM15,59H16V60H15zM19,59H20V60H19zM20,59H21V60H20zM22,59H23V60H22zM24,59H25V60H24zM27,59H28V60H27zM28,59H29V60H28zM30,59H31V60H30zM34,59H35V60H34zM37,59H38V60H37zM40,59H41V60H40zM42,59H43V60H42zM43,59H44V60H43zM44,59H45V60H44zM45,59H46V60H45zM46,59H47V60H46zM49,59H50V60H49zM50,59H51V60H50zM52,59H53V60H52zM55,59H56V60H55zM56,59H57V60H56zM60,59H61V60H60zM62,59H63V60H62zM63,59H64V60H63zM64,59H65V60H64zM0,60H1V61H0zM2,60H3V61H2zM3,60H4V61H3zM4,60H5V61H4zM6,60H7V61H6zM11,60H12V61H11zM12,60H13V61H12zM13,60H14V61H13zM14,60H15V61H14zM15,60H16V61H15zM18,60H19V61H18zM22,60H23V61H22zM23,60H24V61H23zM25,60H26V61H25zM26,60H27V61H26zM27,60H28V61H27zM28,60H29V61H28zM29,60H30V61H29zM30,60H31V61H30zM31,60H32V61H31zM32,60H33V61H32zM33,60H34V61H33zM34,60H35V61H34zM37,60H38V61H37zM40,60H41V61H40zM41,60H42V61H41zM45,60H46V61H45zM48,60H49V61H48zM49,60H50V61H49zM52,60H53V61H52zM53,60H54V61H53zM55,60H56V61H55zM56,60H57V61H56zM57,60H58V61H57zM58,60H59V61H58zM59,60H60V61H59zM60,60H61V61H60zM61,60H62V61H61zM0,61H1V62H0zM2,61H3V62H2zM3,61H4V62H3zM4,61H5V62H4zM6,61H7V62H6zM8,61H9V62H8zM9,61H10V62H9zM10,61H11V62H10zM13,61H14V62H13zM16,61H17V62H16zM18,61H19V62H18zM20,61H21V62H20zM21,61H22V62H21zM24,61H25V62H24zM25,61H26V62H25zM26,61H27V62H26zM27,61H28V62H27zM28,61H29V62H28zM30,61H31V62H30zM31,61H32V62H31zM33,61H34V62H33zM35,61H36V62H35zM36,61H37V62H36zM39,61H40V62H39zM40,61H41V62H40zM41,61H42V62H41zM44,61H45V62H44zM45,61H46V62H45zM51,61H52V62H51zM52,61H53V62H52zM58,61H59V62H58zM59,61H60V62H59zM60,61H61V62H60zM62,61H63V62H62zM63,61H64V62H63zM64,61H65V62H64zM0,62H1V63H0zM2,62H3V63H2zM3,62H4V63H3zM4,62H5V63H4zM6,62H7V63H6zM12,62H13V63H12zM15,62H16V63H15zM17,62H18V63H17zM18,62H19V63H18zM19,62H20V63H19zM20,62H21V63H20zM21,62H22V63H21zM23,62H24V63H23zM24,62H25V63H24zM27,62H28V63H27zM28,62H29V63H28zM29,62H30V63H29zM37,62H38V63H37zM38,62H39V63H38zM41,62H42V63H41zM42,62H43V63H42zM44,62H45V63H44zM45,62H46V63H45zM46,62H47V63H46zM47,62H48V63H47zM48,62H49V63H48zM50,62H51V63H50zM52,62H53V63H52zM54,62H55V63H54zM56,62H57V63H56zM58,62H59V63H58zM60,62H61V63H60zM62,62H63V63H62zM64,62H65V63H64zM0,63H1V64H0zM6,63H7V64H6zM9,63H10V64H9zM11,63H12V64H11zM13,63H14V64H13zM14,63H15V64H14zM17,63H18V64H17zM18,63H19V64H18zM19,63H20V64H19zM23,63H24V64H23zM25,63H26V64H25zM27,63H28V64H27zM30,63H31V64H30zM31,63H32V64H31zM32,63H33V64H32zM34,63H35V64H34zM35,63H36V64H35zM38,63H39V64H38zM39,63H40V64H39zM42,63H43V64H42zM43,63H44V64H43zM46,63H47V64H46zM47,63H48V64H47zM50,63H51V64H50zM51,63H52V64H51zM54,63H55V64H54zM55,63H56V64H55zM57,63H58V64H57zM59,63H60V64H59zM61,63H62V64H61zM63,63H64V64H63zM0,64H1V65H0zM1,64H2V65H1zM2,64H3V65H2zM3,64H4V65H3zM4,64H5V65H4zM5,64H6V65H5zM6,64H7V65H6zM8,64H9V65H8zM11,64H12V65H11zM12,64H13V65H12zM14,64H15V65H14zM15,64H16V65H15zM16,64H17V65H16zM22,64H23V65H22zM23,64H24V65H23zM27,64H28V65H27zM28,64H29V65H28zM29,64H30V65H29zM30,64H31V65H30zM31,64H32V65H31zM35,64H36V65H35zM37,64H38V65H37zM39,64H40V65H39zM40,64H41V65H40zM46,64H47V65H46zM47,64H48V65H47zM49,64H50V65H49zM51,64H52V65H51zM52,64H53V65H52zM55,64H56V65H55zM56,64H57V65H56zM57,64H58V65H57zM60,64H61V65H60zM62,64H63V65H62zM63,64H64V65H63z" style="fill:#000000;fill-opacity:1;fill-rule:nonzero;stroke:none" transform="translate(237.40157,61) scale(2.4966686153846154)" /><g id="swiss-cross" transform="translate(305.4890105263158,129.0874405263158) scale(1.305428947368421)"><polygon fill="black" points="18.3,0.7 1.6,0.7 0.7,0.7 0.7,1.6 0.7,18.3 0.7,19.1 1.6,19.1 18.3,19.1 19.1,19.1 19.1,18.3 19.1,1.6 19.1,0.7" /><rect fill="white" height="11" width="3.3" x="8.3" y="4" /><rect fill="white" height="3.3" width="11" x="4.4" y="7.9" /><polygon fill="none" points="0.7,1.6 0.7,18.3 0.7,19.1 1.6,19.1 18.3,19.1 19.1,19.1 19.1,18.3 19.1,1.6 19.1,0.7 18.3,0.7 1.6,0.7 0.7,0.7" stroke="white" stroke-width="1.4357" /></g><text font-family="Arial,Helvetica" font-size="9.0" font-weight="bold" x="237.40157" y="258.66141">Währung</text><text font-family="Arial,Helvetica" font-size="9.0" font-weight="bold" x="279.92125" y="258.66141">Betrag</text><text font-family="Arial,Helvetica" font-size="10.0" x="237.40157" y="276.37795">CHF</text><g><line stroke="black" stroke-linecap="square" stroke-width="0.26mm" x1="279.92125" x2="279.92125" y1="269.29133" y2="276.37794" /><line stroke="black" stroke-linecap="square" stroke-width="0.26mm" x1="279.92125" x2="290.55117" y1="269.29133" y2="269.29133" /><line stroke="black" stroke-linecap="square" stroke-width="0.26mm" x1="279.92125" x2="279.92125" y1="322.44094" y2="315.35433" /><line stroke="black" stroke-linecap="square" stroke-width="0.26mm" x1="279.92125" x2="290.55117" y1="322.44094" y2="322.44094" /><line stroke="black" stroke-linecap="square" stroke-width="0.26mm" x1="411.02361" x2="421.65353" y1="269.29133" y2="269.29133" /><line stroke="black" stroke-linecap="square" stroke-width="0.26mm" x1="421.65353" x2="421.65353" y1="269.29133" y2="276.37794" /><line stroke="black" stroke-linecap="square" stroke-width="0.26mm" x1="411.02361" x2="421.65353" y1="322.44094" y2="322.44094" /><line stroke="black" stroke-linecap="square" stroke-width="0.26mm" x1="421.65353" x2="421.65353" y1="322.44094" y2="315.35433" /></g><text font-family="Arial,Helvetica" font-size="9.0" font-weight="bold" x="418.11023" y="38.97638">Konto / Zahlbar an</text><text font-family="Arial,Helvetica" font-size="10.0" x="418.11023" y="51.37795">CH44 3199 9123 0008 8901 2</text><text font-family="Arial,Helvetica" font-size="10.0" x="418.11023" y="63.77953">Robert Schneider AG</text><text font-family="Arial,Helvetica" font-size="10.0" x="418.11023" y="76.1811">Rue du Lac 1268</text><text font-family="Arial,Helvetica" font-size="10.0" x="418.11023" y="88.58267">CH-2501 Biel</text><text font-family="Arial,Helvetica" font-size="9.0" font-weight="bold" x="418.11023" y="111.61417">Referenz</text><text font-family="Arial,Helvetica" font-size="10.0" x="418.11023" y="124.01574">21 00000 00003 13947 14300 09017</text><text font-family="Arial,Helvetica" font-size="9.0" font-weight="bold" x="418.11023" y="147.04724">Zusätzliche Informationen</text><text font-family="Arial,Helvetica" font-size="10.0" x="418.11023" y="159.44881">Bill No. 3139 for garden work and disposal of cuttings.</text><text font-family="Arial,Helvetica" font-size="9.0" font-weight="bold" x="418.11023" y="182.48031">Zahlbar durch</text><text font-family="Arial,Helvetica" font-size="10.0" x="418.11023" y="194.88189">Pia Rutschmann</text><text font-family="Arial,Helvetica" font-size="10.0" x="418.11023" y="207.28346">Marktgasse 28</text><text font-family="Arial,Helvetica" font-size="10.0" x="418.11023" y="219.68503">CH-9400 Rorschach</text></g></svg>