<?xml version="1.0" encoding="utf-8" ?>
<svg baseProfile="full" height="106mm" version="1.1" viewBox="0 0 744.094470 375.590540" width="210mm" xmlns="http://www.w3.org/2000/svg" xmlns:ev="http://www.w3.org/2001/xml-events" xmlns:xlink="http://www.w3.org/1999/xlink"><defs /><rect fill="white" height="100%" width="100%" x="0" y="0" /><g><text font-family="Arial,Helvetica" font-size="12.0" font-weight="bold" x="17.71654" y="38.97638">Empfangsschein</text><text font-family="Arial,Helvetica" font-size="8.0" font-weight="bold" x="17.71654" y="56.69291">Konto / Zahlbar an</text><text font-family="Arial,Helvetica" font-size="10.0" x="17.71654" y="69.09449">CH44 3199 9123 0008 8901 2</text><text font-family="Arial,Helvetica" font-size="10.0" x="17.71654" y="81.49606">Robert Schneider AG</text><text font-family="Arial,Helvetica" font-size="10.0" x="17.71654" y="93.89764">Rue du Lac 1268</text><text font-family="Arial,Helvetica" font-size="10.0" x="17.71654" y="106.29921">CH-2501 Biel</text><text font-family="Arial,Helvetica" font-size="8.0" font-weight="bold" x="17.71654" y="122.24409">Referenz</text><text font-family="Arial,Helvetica" font-size="10.0" x="17.71654" y="134.64567">21 00000 00003 13947 14300 09017</text><text font-family="Arial,Helvetica" font-size="8.0" font-weight="bold" x="17.71654" y="150.59055">Zahlbar durch</text><text font-family="Arial,Helvetica" font-size="10.0" x="17.71654" y="162.99212">Pia Rutschmann</text><text font-family="Arial,Helvetica" font-size="10.0" x="17.71654" y="175.3937">Marktgasse 28</text><text font-family="Arial,Helvetica" font-size="10.0" x="17.71654" y="187.79527">CH-9400 Rorschach</text><text font-family="Arial,Helvetica" font-size="8.0" font-weight="bold" x="17.71654" y="258.66141">Währung</text><text font-family="Arial,Helvetica" font-size="8.0" font-weight="bold" x="60.23622" y="258.66141">Betrag</text><text font-family="Arial,Helvetica" font-size="10.0" x="17.71654" y="276.37795">CHF</text><text font-family="Arial,Helvetica" font-size="10.0" x="60.23622" y="276.37795">250.25</text><text font-family="Arial,Helvetica" font-size="8.0" font-weight="bold" text-anchor="end" x="201.96849" y="308.26771">Annahmestelle</text><line fill="none" stroke="black" stroke-dasharray="2 2" x1="0" x2="744.09447" y1="4.04291" y2="4.04291" /><path d="m 0.764814,4.283977 c 0.337358,0.143009 0.862476,-0.115279 0.775145,-0.523225 -0.145918,-0.497473 -0.970289,-0.497475 -1.116209,-2e-6 -0.0636,0.23988 0.128719,0.447618 0.341064,0.523227 z m 3.875732,-1.917196 c 1.069702,0.434082 2.139405,0.868164 3.209107,1.302246 -0.295734,0.396158 -0.866482,0.368049 -1.293405,0.239509 -0.876475,-0.260334 -1.71099,-0.639564 -2.563602,-0.966653 -0.132426,-0.04295 -0.265139,-0.124595 -0.397393,-0.144327 -0.549814,0.22297 -1.09134,0.477143 -1.667719,0.62213 -0.07324,0.232838 0.150307,0.589809 -0.07687,0.842328 -0.311347,0.532157 -1.113542,0.624698 -1.561273,0.213165 -0.384914,-0.301216 -0.379442,-0.940948 7e-6,-1.245402 0.216628,-0.191603 0.506973,-0.286636 0.794095,-0.258382 0.496639,0.01219 1.013014,-0.04849 1.453829,-0.289388 0.437126,-0.238777 0.07006,-0.726966 -0.300853,-0.765416 -0.420775,-0.157424 -0.870816,-0.155853 -1.312747,-0.158623 -0.527075,-0.0016 -1.039244,-0.509731 -0.904342,-1.051293 0.137956,-0.620793 0.952738,-0.891064 1.47649,-0.573851 0.371484,0.188118 0.594679,0.675747 0.390321,1.062196 0.09829,0.262762 0.586716,0.204086 0.826177,0.378204 0.301582,0.119237 0.600056,0.246109 0.899816,0.36981 0.89919,-0.349142 1.785653,-0.732692 2.698347,-1.045565 0.459138,-0.152333 1.033472,-0.283325 1.442046,0.05643 0.217451,0.135635 -0.06954,0.160294 -0.174725,0.220936 -0.979101,0.397316 -1.958202,0.794633 -2.937303,1.19195 z m -3.44165,-1.917196 c -0.338434,-0.14399 -0.861225,0.116943 -0.775146,0.524517 0.143274,0.477916 0.915235,0.499056 1.10329,0.04328 0.09674,-0.247849 -0.09989,-0.490324 -0.328144,-0.567796 z" style="fill:#000000;fill-opacity:1;fill-rule:nonzero;stroke:none" transform="scale(1.9) translate(24,0)" /><line fill="none" stroke="black" stroke-dasharray="2 2" x1="219.68503" x2="219.68503" y1="3.54331" y2="372.04724" /><path d="m 0.764814,4.283977 c 0.337358,0.143009 0.862476,-0.115279 0.775145,-0.523225 -0.145918,-0.497473 -0.970289,-0.497475 -1.116209,-2e-6 -0.0636,0.23988 0.128719,0.447618 0.341064,0.523227 z m 3.875732,-1.917196 c 1.069702,0.434082 2.139405,0.868164 3.209107,1.302246 -0.295734,0.396158 -0.866482,0.368049 -1.293405,0.239509 -0.876475,-0.260334 -1.71099,-0.639564 -2.563602,-0.966653 -0.132426,-0.04295 -0.265139,-0.124595 -0.397393,-0.144327 -0.549814,0.22297 -1.09134,0.477143 -1.667719,0.62213 -0.07324,0.232838 0.150307,0.589809 -0.07687,0.842328 -0.311347,0.532157 -1.113542,0.624698 -1.561273,0.213165 -0.384914,-0.301216 -0.379442,-0.940948 7e-6,-1.245402 0.216628,-0.191603 0.506973,-0.286636 0.794095,-0.258382 0.496639,0.01219 1.013014,-0.04849 1.453829,-0.289388 0.437126,-0.238777 0.07006,-0.726966 -0.300853,-0.765416 -0.420775,-0.157424 -0.870816,-0.155853 -1.312747,-0.158623 -0.527075,-0.0016 -1.039244,-0.509731 -0.904342,-1.051293 0.137956,-0.620793 0.952738,-0.891064 1.47649,-0.573851 0.371484,0.188118 0.594679,0.675747 0.390321,1.062196 0.09829,0.262762 0.586716,0.204086 0.826177,0.378204 0.301582,0.119237 0.600056,0.246109 0.899816,0.36981 0.89919,-0.349142 1.785653,-0.732692 2.698347,-1.045565 0.459138,-0.152333 1.033472,-0.283325 1.442046,0.05643 0.217451,0.135635 -0.06954,0.160294 -0.174725,0.220936 -0.979101,0.397316 -1.958202,0.794633 -2.937303,1.19195 z m -3.44165,-1.917196 c -0.338434,-0.14399 -0.861225,0.116943 -0.775146,0.524517 0.143274,0.477916 0.915235,0.499056 1.10329,0.04328 0.09674,-0.247849 -0.09989,-0.490324 -0.328144,-0.567796 z" style="fill:#000000;fill-opacity:1;fill-rule:nonzero;stroke:none" transform="scale(1.9) translate(118,40) rotate(90)" /><text font-family="Arial,Helvetica" font-size="12.0" font-weight="bold" x="237.40157" y="38.97638">Zahlteil</text><path d="M0,0H1V1H0zM1,0H2V1H1zM2,0H3V1H2zM3,0H4V1H3zM4,0H5V1H4zM5,0H6V1H5zM6,0H7V1H6zM10,0H11V1H10zM11,0H12V1H11zM12,0H13V1H12zM13,0H14V1H13zM14,0H15V1H14zM15,0H16V1H15zM18,0H19V1H18zM23,0H24V1H23zM26,0H27V1H26zM27,0H28V1H27zM28,0H29V1H28zM30,0H31V1H30zM34,0H35V1H34zM37,0H38V1H37zM38,0H39V1H38zM39,0H40V1H39zM40,0H41V1H40zM41,0H42V1H41zM44,0H45V1H44zM46,0H47V1H46zM49,0H50V1H49zM50,0H51V1H50zM51,0H52V1H51zM52,0H53V1H52zM55,0H56V1H55zM58,0H59V1H58zM59,0H60V1H59zM60,0H61V1H60zM61,0H62V1H61zM62,0H63V1H62zM63,0H64V1H63zM64,0H65V1H64zM0,1H1V2H0zM6,1H7V2H6zM9,1H10V2H9zM15,1H16V2H15zM16,1H17V2H16zM19,1H20V2H19zM24,1H25V2H24zM28,1H29V2H28zM30,1H31V2H30zM33,1H34V2H33zM35,1H36V2H35zM40,1H41V2H40zM42,1H43V2H42zM43,1H44V2H43zM44,1H45V2H44zM45,1H46V2H45zM47,1H48V2H47zM52,1H53V2H52zM56,1H57V2H56zM58,1H59V2H58zM64,1H65V2H64zM0,2H1V3H0zM2,2H3V3H2zM3,2H4V3H3zM4,2H5V3H4zM6,2H7V3H6zM8,2H9V3H8zM9,2H10V3H9zM10,2H11V3H10zM11,2H12V3H11zM13,2H14V3H13zM14,2H15V3H14zM16,2H17V3H16zM17,2H18V3H17zM22,2H23V3H22zM24,2H25V3H24zM25,2H26V3H25zM27,2H28V3H27zM28,2H29V3H28zM31,2H32V3H31zM33,2H34V3H33zM36,2H37V3H36zM37,2H38V3H37zM41,2H42V3H41zM42,2H43V3H42zM44,2H45V3H44zM45,2H46V3H45zM46,2H47V3H46zM47,2H48V3H47zM48,2H49V3H48zM49,2H50V3H49zM50,2H51V3H50zM51,2H52V3H51zM54,2H55V3H54zM56,2H57V3H56zM58,2H59V3H58zM60,2H61V3H60zM61,2H62V3H61zM62,2H63V3H62zM64,2H65V3H64zM0,3H1V4H0zM2,3H3V4H2zM3,3H4V4H3zM4,3H5V4H4zM6,3H7V4H6zM8,3H9V4H8zM9,3H10V4H9zM14,3H15V4H14zM15,3H16V4H15zM16,3H17V4H16zM19,3H20V4H19zM21,3H22V4H21zM33,3H34V4H33zM36,3H37V4H36zM38,3H39V4H38zM39,3H40V4H39zM40,3H41V4H40zM41,3H42V4H41zM42,3H43V4H42zM45,3H46V4H45zM46,3H47V4H46zM47,3H48V4H47zM48,3H49V4H48zM49,3H50V4H49zM51,3H52V4H51zM54,3H55V4H54zM55,3H56V4H55zM58,3H59V4H58zM60,3H61V4H60zM61,3H62V4H61zM62,3H63V4H62zM64,3H65V4H64zM0,4H1V5H0zM2,4H3V5H2zM3,4H4V5H3zM4,4H5V5H4zM6,4H7V5H6zM8,4H9V5H8zM9,4H10V5H9zM10,4H11V5H10zM12,4H13V5H12zM13,4H14V5H13zM14,4H15V5H14zM16,4H17V5H16zM17,4H18V5H17zM18,4H19V5H18zM19,4H20V5H19zM20,4H21V5H20zM21,4H22V5H21zM22,4H23V5H22zM24,4H25V5H24zM25,4H26V5H25zM27,4H28V5H27zM28,4H29V5H28zM30,4H31V5H30zM31,4H32V5H31zM32,4H33V5H32zM33,4H34V5H33zM34,4H35V5H34zM35,4H36V5H35zM37,4H38V5H37zM40,4H41V5H40zM41,4H42V5H41zM43,4H44V5H43zM44,4H45V5H44zM45,4H46V5H45zM47,4H48V5H47zM53,4H54V5H53zM56,4H57V5H56zM58,4H59V5H58zM60,4H61V5H60zM61,4H62V5H61zM62,4H63V5H62zM64,4H65V5H64zM0,5H1V6H0zM6,5H7V6H6zM8,5H9V6H8zM11,5H12V6H11zM15,5H16V6H15zM24,5H25V6H24zM25,5H26V6H25zM26,5H27V6H26zM29,5H30V6H29zM30,5H31V6H30zM34,5H35V6H34zM37,5H38V6H37zM39,5H40V6H39zM40,5H41V6H40zM42,5H43V6H42zM45,5H46V6H45zM46,5H47V6H46zM48,5H49V6H48zM51,5H52V6H51zM53,5H54V6H53zM54,5H55V6H54zM58,5H59V6H58zM64,5H65V6H64zM0,6H1V7H0zM1,6H2V7H1zM2,6H3V7H2zM3,6H4V7H3zM4,6H5V7H4zM5,6H6V7H5zM6,6H7V7H6zM8,6H9V7H8zM10,6H11V7H10zM12,6H13V7H12zM14,6H15V7H14zM16,6H17V7H16zM18,6H19V7H18zM20,6H21V7H20zM22,6H23V7H22zM24,6H25V7H24zM26,6H27V7H26zM28,6H29V7H28zM30,6H31V7H30zM32,6H33V7H32zM34,6H35V7H34zM36,6H37V7H36zM38,6H39V7H38zM40,6H41V7H40zM42,6H43V7H42zM44,6H45V7H44zM46,6H47V7H46zM48,6H49V7H48zM50,6H51V7H50zM52,6H53V7H52zM54,6H55V7H54zM56,6H57V7H56zM58,6H59V7H58zM59,6H60V7H59zM60,6H61V7H60zM61,6H62V7H61zM62,6H63V7H62zM63,6H64V7H63zM64,6H65V7H64zM8,7H9V8H8zM9,7H10V8H9zM10,7H11V8H10zM11,7H12V8H11zM15,7H16V8H15zM19,7H20V8H19zM20,7H21V8H20zM23,7H24V8H23zM24,7H25V8H24zM27,7H28V8H27zM28,7H29V8H28zM30,7H31V8H30zM34,7H35V8H34zM36,7H37V8H36zM38,7H39V8H38zM41,7H42V8H41zM42,7H43V8H42zM45,7H46V8H45zM46,7H47V8H46zM47,7H48V8H47zM49,7H50V8H49zM51,7H52V8H51zM0,8H1V9H0zM2,8H3V9H2zM3,8H4V9H3zM4,8H5V9H4zM5,8H6V9H5zM6,8H7V9H6zM9,8H10V9H9zM12,8H13V9H12zM16,8H17V9H16zM17,8H18V9H17zM19,8H20V9H19zM23,8H24V9H23zM30,8H31V9H30zM31,8H32V9H31zM32,8H33V9H32zM33,8H34V9H33zM34,8H35V9H34zM36,8H37V9H36zM38,8H39V9H38zM39,8H40V9H39zM42,8H43V9H42zM45,8H46V9H45zM46,8H47V9H46zM47,8H48V9H47zM48,8H49V9H48zM50,8H51V9H50zM51,8H52V9H51zM56,8H57V9H56zM58,8H59V9H58zM59,8H60V9H59zM60,8H61V9H60zM61,8H62V9H61zM62,8H63V9H62zM3,9H4V10H3zM5,9H6V10H5zM7,9H8V10H7zM9,9H10V10H9zM11,9H12V10H11zM12,9H13V10H12zM13,9H14V10H13zM14,9H15V10H14zM16,9H17V10H16zM17,9H18V10H17zM20,9H21V10H20zM24,9H25V10H24zM25,9H26V10H25zM27,9H28V10H27zM31,9H32V10H31zM33,9H34V10H33zM35,9H36V10H35zM36,9H37V10H36zM39,9H40V10H39zM40,9H41V10H40zM41,9H42V10H41zM42,9H43V10H42zM46,9H47V10H46zM47,9H48V10H47zM48,9H49V10H48zM49,9H50V10H49zM50,9H51V10H50zM51,9H52V10H51zM53,9H54V10H53zM59,9H60V10H59zM60,9H61V10H60zM63,9H64V10H63zM64,9H65V10H64zM4,10H5V11H4zM5,10H6V11H5zM6,10H7V11H6zM7,10H8V11H7zM8,10H9V11H8zM11,10H12V11H11zM13,10H14V11H13zM15,10H16V11H15zM16,10H17V11H16zM17,10H18V11H17zM18,10H19V11H18zM21,10H22V11H21zM22,10H23V11H22zM25,10H26V11H25zM27,10H28V11H27zM36,10H37V11H36zM37,10H38V11H37zM39,10H40V11H39zM42,10H43V11H42zM47,10H48V11H47zM51,10H52V11H51zM56,10H57V11H56zM58,10H59V11H58zM61,10H62V11H61zM62,10H63V11H62zM63,10H64V11H63zM64,10H65V11H64zM2,11H3V12H2zM5,11H6V12H5zM7,11H8V12H7zM8,11H9V12H8zM11,11H12V12H11zM13,11H14V12H13zM15,11H16V12H15zM17,11H18V12H17zM21,11H22V12H21zM22,11H23V12H22zM23,11H24V12H23zM24,11H25V12H24zM26,11H27V12H26zM27,11H28V12H27zM30,11H31V12H30zM31,11H32V12H31zM32,11H33V12H32zM33,11H34V12H33zM34,11H35V12H34zM36,11H37V12H36zM37,11H38V12H37zM39,11H40V12H39zM40,11H41V12H40zM41,11H42V12H41zM42,11H43V12H42zM43,11H44V12H43zM45,11H46V12H45zM47,11H48V12H47zM53,11H54V12H53zM54,11H55V12H54zM57,11H58V12H57zM60,11H61V12H60zM63,11H64V12H63zM64,11H65V12H64zM1,12H2V13H1zM2,12H3V13H2zM3,12H4V13H3zM4,12H5V13H4zM6,12H7V13H6zM8,12H9V13H8zM10,12H11V13H10zM12,12H13V13H12zM14,12H15V13H14zM20,12H21V13H20zM23,12H24V13H23zM25,12H26V13H25zM29,12H30V13H29zM30,12H31V13H30zM31,12H32V13H31zM33,12H34V13H33zM34,12H35V13H34zM35,12H36V13H35zM40,12H41V13H40zM42,12H43V13H42zM45,12H46V13H45zM46,12H47V13H46zM47,12H48V13H47zM48,12H49V13H48zM50,12H51V13H50zM51,12H52V13H51zM54,12H55V13H54zM55,12H56V13H55zM58,12H59V13H58zM60,12H61V13H60zM61,12H62V13H61zM62,12H63V13H62zM63,12H64V13H63zM0,13H1V14H0zM4,13H5V14H4zM5,13H6V14H5zM9,13H10V14H9zM11,13H12V14H11zM12,13H13V14H12zM15,13H16V14H15zM23,13H24V14H23zM24,13H25V14H24zM27,13H28V14H27zM28,13H29V14H28zM29,13H30V14H29zM31,13H32V14H31zM32,13H33V14H32zM36,13H37V14H36zM39,13H40V14H39zM40,13H41V14H40zM46,13H47V14H46zM48,13H49V14H48zM51,13H52V14H51zM53,13H54V14H53zM54,13H55V14H54zM56,13H57V14H56zM57,13H58V14H57zM59,13H60V14H59zM60,13H61V14H60zM62,13H63V14H62zM0,14H1V15H0zM2,14H3V15H2zM3,14H4V15H3zM5,14H6V15H5zM6,14H7V15H6zM7,14H8V15H7zM8,14H9V15H8zM9,14H10V15H9zM14,14H15V15H14zM15,14H16V15H15zM16,14H17V15H16zM19,14H20V15H19zM21,14H22V15H21zM24,14H25V15H24zM26,14H27V15H26zM27,14H28V15H27zM30,14H31V15H30zM33,14H34V15H33zM36,14H37V15H36zM37,14H38V15H37zM40,14H41V15H40zM42,14H43V15H42zM45,14H46V15H45zM47,14H48V15H47zM48,14H49V15H48zM49,14H50V15H49zM51,14H52V15H51zM55,14H56V15H55zM56,14H57V15H56zM57,14H58V15H57zM60,14H61V15H60zM61,14H62V15H61zM62,14H63V15H62zM64,14H65V15H64zM1,15H2V16H1zM3,15H4V16H3zM5,15H6V16H5zM8,15H9V16H8zM10,15H11V16H10zM11,15H12V16H11zM12,15H13V16H12zM13,15H14V16H13zM14,15H15V16H14zM15,15H16V16H15zM17,15H18V16H17zM19,15H20V16H19zM20,15H21V16H20zM21,15H22V16H21zM22,15H23V16H22zM23,15H24V16H23zM24,15H25V16H24zM26,15H27V16H26zM29,15H30V16H29zM31,15H32V16H31zM32,15H33V16H32zM35,15H36V16H35zM36,15H37V16H36zM38,15H39V16H38zM39,15H40V16H39zM40,15H41V16H40zM42,15H43V16H42zM43,15H44V16H43zM56,15H57V16H56zM59,15H60V16H59zM60,15H61V16H60zM61,15H62V16H61zM63,15H64V16H63zM2,16H3V17H2zM3,16H4V17H3zM4,16H5V17H4zM5,16H6V17H5zM6,16H7V17H6zM7,16H8V17H7zM8,16H9V17H8zM9,16H10V17H9zM10,16H11V17H10zM11,16H12V17H11zM12,16H13V17H12zM13,16H14V17H13zM14,16H15V17H14zM15,16H16V17H15zM17,16H18V17H17zM19,16H20V17H19zM22,16H23V17H22zM24,16H25V17H24zM29,16H30V17H29zM30,16H31V17H30zM31,16H32V17H31zM33,16H34V17H33zM35,16H36V17H35zM38,16H39V17H38zM40,16H41V17H40zM43,16H44V17H43zM44,16H45V17H44zM45,16H46V17H45zM46,16H47V17H46zM51,16H52V17H51zM52,16H53V17H52zM56,16H57V17H56zM57,16H58V17H57zM60,16H61V17H60zM61,16H62V17H61zM62,16H63V17H62zM1,17H2V18H1zM2,17H3V18H2zM4,17H5V18H4zM5,17H6V18H5zM7,17H8V18H7zM8,17H9V18H8zM10,17H11V18H10zM13,17H14V18H13zM16,17H17V18H16zM17,17H18V18H17zM18,17H19V18H18zM20,17H21V18H20zM24,17H25V18H24zM25,17H26V18H25zM27,17H28V18H27zM31,17H32V18H31zM33,17H34V18H33zM37,17H38V18H37zM38,17H39V18H38zM39,17H40V18H39zM41,17H42V18H41zM45,17H46V18H45zM48,17H49V18H48zM50,17H51V18H50zM51,17H52V18H51zM52,17H53V18H52zM54,17H55V18H54zM55,17H56V18H55zM58,17H59V18H58zM61,17H62V18H61zM62,17H63V18H62zM1,18H2V19H1zM3,18H4V19H3zM4,18H5V19H4zM5,18H6V19H5zM6,18H7V19H6zM7,18H8V19H7zM9,18H10V19H9zM11,18H12V19H11zM12,18H13V19H12zM13,18H14V19H13zM15,18H16V19H15zM16,18H17V19H16zM18,18H19V19H18zM20,18H21V19H20zM21,18H22V19H21zM22,18H23V19H22zM24,18H25V19H24zM26,18H27V19H26zM27,18H28V19H27zM32,18H33V19H32zM35,18H36V19H35zM36,18H37V19H36zM38,18H39V19H38zM42,18H43V19H42zM47,18H48V19H47zM48,18H49V19H48zM53,18H54V19H53zM54,18H55V19H54zM56,18H57V19H56zM62,18H63V19H62zM63,18H64V19H63zM1,19H2V20H1zM2,19H3V20H2zM8,19H9V20H8zM9,19H10V20H9zM10,19H11V20H10zM11,19H12V20H11zM12,19H13V20H12zM13,19H14V20H13zM15,19H16V20H15zM16,19H17V20H16zM19,19H20V20H19zM20,19H21V20H20zM23,19H24V20H23zM24,19H25V20H24zM26,19H27V20H26zM30,19H31V20H30zM31,19H32V20H31zM33,19H34V20H33zM35,19H36V20H35zM36,19H37V20H36zM37,19H38V20H37zM43,19H44V20H43zM45,19H46V20H45zM47,19H48V20H47zM48,19H49V20H48zM50,19H51V20H50zM51,19H52V20H51zM52,19H53V20H52zM55,19H56V20H55zM57,19H58V20H57zM58,19H59V20H58zM60,19H61V20H60zM61,19H62V20H61zM63,19H64V20H63zM64,19H65V20H64zM0,20H1V21H0zM1,20H2V21H1zM2,20H3V21H2zM3,20H4V21H3zM5,20H6V21H5zM6,20H7V21H6zM11,20H12V21H11zM14,20H15V21H14zM18,20H19V21H18zM23,20H24V21H23zM25,20H26V21H25zM26,20H27V21H26zM27,20H28V21H27zM29,20H30V21H29zM30,20H31V21H30zM33,20H34V21H33zM36,20H37V21H36zM39,20H40V21H39zM45,20H46V21H45zM46,20H47V21H46zM47,20H48V21H47zM50,20H51V21H50zM57,20H58V21H57zM58,20H59V21H58zM59,20H60V21H59zM61,20H62V21H61zM63,20H64V21H63zM64,20H65V21H64zM1,21H2V22H1zM2,21H3V22H2zM3,21H4V22H3zM4,21H5V22H4zM7,21H8V22H7zM11,21H12V22H11zM13,21H14V22H13zM14,21H15V22H14zM15,21H16V22H15zM16,21H17V22H16zM19,21H20V22H19zM20,21H21V22H20zM21,21H22V22H21zM22,21H23V22H22zM24,21H25V22H24zM28,21H29V22H28zM30,21H31V22H30zM34,21H35V22H34zM37,21H38V22H37zM38,21H39V22H38zM39,21H40V22H39zM40,21H41V22H40zM42,21H43V22H42zM44,21H45V22H44zM48,21H49V22H48zM51,21H52V22H51zM53,21H54V22H53zM54,21H55V22H54zM55,21H56V22H55zM56,21H57V22H56zM57,21H58V22H57zM61,21H62V22H61zM63,21H64V22H63zM64,21H65V22H64zM0,22H1V23H0zM2,22H3V23H2zM4,22H5V23H4zM5,22H6V23H5zM6,22H7V23H6zM7,22H8V23H7zM9,22H10V23H9zM13,22H14V23H13zM14,22H15V23H14zM18,22H19V23H18zM20,22H21V23H20zM21,22H22V23H21zM22,22H23V23H22zM24,22H25V23H24zM26,22H27V23H26zM27,22H28V23H27zM28,22H29V23H28zM29,22H30V23H29zM30,22H31V23H30zM38,22H39V23H38zM39,22H40V23H39zM40,22H41V23H40zM41,22H42V23H41zM42,22H43V23H42zM44,22H45V23H44zM45,22H46V23H45zM46,22H47V23H46zM47,22H48V23H47zM48,22H49V23H48zM49,22H50V23H49zM51,22H52V23H51zM54,22H55V23H54zM56,22H57V23H56zM59,22H60V23H59zM62,22H63V23H62zM1,23H2V24H1zM3,23H4V24H3zM4,23H5V24H4zM5,23H6V24H5zM10,23H11V24H10zM11,23H12V24H11zM14,23H15V24H14zM15,23H16V24H15zM18,23H19V24H18zM20,23H21V24H20zM22,23H23V24H22zM24,23H25V24H24zM26,23H27V24H26zM27,23H28V24H27zM30,23H31V24H30zM31,23H32V24H31zM33,23H34V24H33zM36,23H37V24H36zM42,23H43V24H42zM44,23H45V24H44zM45,23H46V24H45zM48,23H49V24H48zM49,23H50V24H49zM51,23H52V24H51zM52,23H53V24H52zM55,23H56V24H55zM57,23H58V24H57zM63,23H64V24H63zM64,23H65V24H64zM0,24H1V25H0zM4,24H5V25H4zM6,24H7V25H6zM9,24H10V25H9zM10,24H11V25H10zM11,24H12V25H11zM12,24H13V25H12zM19,24H20V25H19zM20,24H21V25H20zM22,24H23V25H22zM23,24H24V25H23zM27,24H28V25H27zM28,24H29V25H28zM30,24H31V25H30zM31,24H32V25H31zM32,24H33V25H32zM33,24H34V25H33zM34,24H35V25H34zM35,24H36V25H35zM37,24H38V25H37zM38,24H39V25H38zM39,24H40V25H39zM41,24H42V25H41zM42,24H43V25H42zM43,24H44V25H43zM44,24H45V25H44zM45,24H46V25H45zM47,24H48V25H47zM50,24H51V25H50zM51,24H52V25H51zM52,24H53V25H52zM53,24H54V25H53zM54,24H55V25H54zM56,24H57V25H56zM57,24H58V25H57zM59,24H60V25H59zM60,24H61V25H60zM61,24H62V25H61zM63,24H64V25H63zM1,25H2V26H1zM3,25H4V26H3zM12,25H13V26H12zM14,25H15V26H14zM17,25H18V26H17zM18,25H19V26H18zM19,25H20V26H19zM21,25H22V26H21zM22,25H23V26H22zM23,25H24V26H23zM24,25H25V26H24zM25,25H26V26H25zM27,25H28V26H27zM32,25H33V26H32zM34,25H35V26H34zM37,25H38V26H37zM39,25H40V26H39zM40,25H41V26H40zM41,25H42V26H41zM44,25H45V26H44zM45,25H46V26H45zM48,25H49V26H48zM49,25H50V26H49zM51,25H52V26H51zM54,25H55V26H54zM55,25H56V26H55zM61,25H62V26H61zM63,25H64V26H63zM64,25H65V26H64zM5,26H6V27H5zM6,26H7V27H6zM9,26H10V27H9zM11,26H12V27H11zM14,26H15V27H14zM17,26H18V27H17zM19,26H20V27H19zM20,26H21V27H20zM22,26H23V27H22zM24,26H25V27H24zM26,26H27V27H26zM29,26H30V27H29zM33,26H34V27H33zM40,26H41V27H40zM41,26H42V27H41zM44,26H45V27H44zM47,26H48V27H47zM51,26H52V27H51zM54,26H55V27H54zM63,26H64V27H63zM64,26H65V27H64zM1,27H2V28H1zM2,27H3V28H2zM4,27H5V28H4zM7,27H8V28H7zM8,27H9V28H8zM11,27H12V28H11zM13,27H14V28H13zM14,27H15V28H14zM16,27H17V28H16zM18,27H19V28H18zM21,27H22V28H21zM23,27H24V28H23zM24,27H25V28H24zM25,27H26V28H25zM27,27H28V28H27zM30,27H31V28H30zM31,27H32V28H31zM33,27H34V28H33zM36,27H37V28H36zM38,27H39V28H38zM39,27H40V28H39zM42,27H43V28H42zM45,27H46V28H45zM46,27H47V28H46zM48,27H49V28H48zM51,27H52V28H51zM54,27H55V28H54zM55,27H56V28H55zM57,27H58V28H57zM59,27H60V28H59zM60,27H61V28H60zM61,27H62V28H61zM63,27H64V28H63zM2,28H3V29H2zM3,28H4V29H3zM6,28H7V29H6zM7,28H8V29H7zM11,28H12V29H11zM13,28H14V29H13zM14,28H15V29H14zM15,28H16V29H15zM20,28H21V29H20zM25,28H26V29H25zM26,28H27V29H26zM27,28H28V29H27zM29,28H30V29H29zM33,28H34V29H33zM34,28H35V29H34zM36,28H37V29H36zM37,28H38V29H37zM38,28H39V29H38zM40,28H41V29H40zM41,28H42V29H41zM42,28H43V29H42zM43,28H44V29H43zM48,28H49V29H48zM49,28H50V29H49zM50,28H51V29H50zM51,28H52V29H51zM53,28H54V29H53zM55,28H56V29H55zM57,28H58V29H57zM58,28H59V29H58zM60,28H61V29H60zM62,28H63V29H62zM0,29H1V30H0zM1,29H2V30H1zM3,29H4V30H3zM4,29H5V30H4zM8,29H9V30H8zM10,29H11V30H10zM12,29H13V30H12zM14,29H15V30H14zM15,29H16V30H15zM16,29H17V30H16zM17,29H18V30H17zM18,29H19V30H18zM19,29H20V30H19zM22,29H23V30H22zM23,29H24V30H23zM24,29H25V30H24zM28,29H29V30H28zM29,29H30V30H29zM36,29H37V30H36zM38,29H39V30H38zM40,29H41V30H40zM42,29H43V30H42zM43,29H44V30H43zM44,29H45V30H44zM45,29H46V30H45zM47,29H48V30H47zM48,29H49V30H48zM50,29H51V30H50zM51,29H52V30H51zM54,29H55V30H54zM58,29H59V30H58zM60,29H61V30H60zM61,29H62V30H61zM63,29H64V30H63zM1,30H2V31H1zM2,30H3V31H2zM4,30H5V31H4zM5,30H6V31H5zM6,30H7V31H6zM7,30H8V31H7zM8,30H9V31H8zM11,30H12V31H11zM16,30H17V31H16zM17,30H18V31H17zM21,30H22V31H21zM22,30H23V31H22zM24,30H25V31H24zM26,30H27V31H26zM27,30H28V31H27zM28,30H29V31H28zM29,30H30V31H29zM30,30H31V31H30zM31,30H32V31H31zM32,30H33V31H32zM33,30H34V31H33zM34,30H35V31H34zM36,30H37V31H36zM39,30H40V31H39zM42,30H43V31H42zM44,30H45V31H44zM45,30H46V31H45zM47,30H48V31H47zM49,30H50V31H49zM50,30H51V31H50zM51,30H52V31H51zM56,30H57V31H56zM57,30H58V31H57zM58,30H59V31H58zM59,30H60V31H59zM60,30H61V31H60zM63,30H64V31H63zM0,31H1V32H0zM1,31H2V32H1zM2,31H3V32H2zM3,31H4V32H3zM4,31H5V32H4zM8,31H9V32H8zM9,31H10V32H9zM10,31H11V32H10zM11,31H12V32H11zM13,31H14V32H13zM15,31H16V32H15zM17,31H18V32H17zM19,31H20V32H19zM25,31H26V32H25zM26,31H27V32H26zM28,31H29V32H28zM30,31H31V32H30zM34,31H35V32H34zM35,31H36V32H35zM36,31H37V32H36zM42,31H43V32H42zM43,31H44V32H43zM45,31H46V32H45zM47,31H48V32H47zM48,31H49V32H48zM51,31H52V32H51zM55,31H56V32H55zM56,31H57V32H56zM60,31H61V32H60zM61,31H62V32H61zM63,31H64V32H63zM0,32H1V33H0zM3,32H4V33H3zM4,32H5V33H4zM6,32H7V33H6zM8,32H9V33H8zM9,32H10V33H9zM11,32H12V33H11zM15,32H16V33H15zM18,32H19V33H18zM21,32H22V33H21zM26,32H27V33H26zM29,32H30V33H29zM30,32H31V33H30zM32,32H33V33H32zM34,32H35V33H34zM36,32H37V33H36zM37,32H38V33H37zM39,32H40V33H39zM41,32H42V33H41zM42,32H43V33H42zM48,32H49V33H48zM49,32H50V33H49zM51,32H52V33H51zM56,32H57V33H56zM58,32H59V33H58zM60,32H61V33H60zM62,32H63V33H62zM63,32H64V33H63zM1,33H2V34H1zM2,33H3V34H2zM3,33H4V34H3zM4,33H5V34H4zM8,33H9V34H8zM9,33H10V34H9zM12,33H13V34H12zM15,33H16V34H15zM16,33H17V34H16zM17,33H18V34H17zM20,33H21V34H20zM21,33H22V34H21zM22,33H23V34H22zM24,33H25V34H24zM26,33H27V34H26zM27,33H28V34H27zM29,33H30V34H29zM30,33H31V34H30zM34,33H35V34H34zM35,33H36V34H35zM36,33H37V34H36zM42,33H43V34H42zM43,33H44V34H43zM45,33H46V34H45zM47,33H48V34H47zM48,33H49V34H48zM51,33H52V34H51zM55,33H56V34H55zM56,33H57V34H56zM60,33H61V34H60zM61,33H62V34H61zM63,33H64V34H63zM2,34H3V35H2zM4,34H5V35H4zM5,34H6V35H5zM6,34H7V35H6zM7,34H8V35H7zM8,34H9V35H8zM10,34H11V35H10zM11,34H12V35H11zM12,34H13V35H12zM14,34H15V35H14zM15,34H16V35H15zM16,34H17V35H16zM19,34H20V35H19zM21,34H22V35H21zM24,34H25V35H24zM25,34H26V35H25zM26,34H27V35H26zM28,34H29V35H28zM30,34H31V35H30zM31,34H32V35H31zM32,34H33V35H32zM33,34H34V35H33zM34,34H35V35H34zM36,34H37V35H36zM37,34H38V35H37zM39,34H40V35H39zM41,34H42V35H41zM42,34H43V35H42zM48,34H49V35H48zM49,34H50V35H49zM51,34H52V35H51zM54,34H55V35H54zM56,34H57V35H56zM57,34H58V35H57zM58,34H59V35H58zM59,34H60V35H59zM60,34H61V35H60zM62,34H63V35H62zM3,35H4V36H3zM4,35H5V36H4zM8,35H9V36H8zM9,35H10V36H9zM11,35H12V36H11zM21,35H22V36H21zM23,35H24V36H23zM26,35H27V36H26zM27,35H28V36H27zM29,35H30V36H29zM30,35H31V36H30zM31,35H32V36H31zM34,35H35V36H34zM35,35H36V36H35zM36,35H37V36H36zM38,35H39V36H38zM39,35H40V36H39zM42,35H43V36H42zM43,35H44V36H43zM44,35H45V36H44zM45,35H46V36H45zM47,35H48V36H47zM48,35H49V36H48zM50,35H51V36H50zM52,35H53V36H52zM54,35H55V36H54zM56,35H57V36H56zM57,35H58V36H57zM58,35H59V36H58zM60,35H61V36H60zM61,35H62V36H61zM62,35H63V36H62zM64,35H65V36H64zM0,36H1V37H0zM4,36H5V37H4zM6,36H7V37H6zM8,36H9V37H8zM10,36H11V37H10zM11,36H12V37H11zM12,36H13V37H12zM13,36H14V37H13zM14,36H15V37H14zM18,36H19V37H18zM20,36H21V37H20zM24,36H25V37H24zM25,36H26V37H25zM26,36H27V37H26zM27,36H28V37H27zM30,36H31V37H30zM32,36H33V37H32zM33,36H34V37H33zM34,36H35V37H34zM42,36H43V37H42zM43,36H44V37H43zM45,36H46V37H45zM50,36H51V37H50zM55,36H56V37H55zM62,36H63V37H62zM63,36H64V37H63zM1,37H2V38H1zM2,37H3V38H2zM3,37H4V38H3zM4,37H5V38H4zM7,37H8V38H7zM10,37H11V38H10zM12,37H13V38H12zM18,37H19V38H18zM20,37H21V38H20zM21,37H22V38H21zM23,37H24V38H23zM24,37H25V38H24zM27,37H28V38H27zM28,37H29V38H28zM30,37H31V38H30zM31,37H32V38H31zM32,37H33V38H32zM34,37H35V38H34zM35,37H36V38H35zM40,37H41V38H40zM43,37H44V38H43zM44,37H45V38H44zM45,37H46V38H45zM47,37H48V38H47zM52,37H53V38H52zM54,37H55V38H54zM56,37H57V38H56zM57,37H58V38H57zM61,37H62V38H61zM63,37H64V38H63zM6,38H7V39H6zM7,38H8V39H7zM10,38H11V39H10zM13,38H14V39H13zM14,38H15V39H14zM16,38H17V39H16zM18,38H19V39H18zM20,38H21V39H20zM21,38H22V39H21zM24,38H25V39H24zM38,38H39V39H38zM39,38H40V39H39zM42,38H43V39H42zM44,38H45V39H44zM45,38H46V39H45zM46,38H47V39H46zM49,38H50V39H49zM50,38H51V39H50zM51,38H52V39H51zM52,38H53V39H52zM53,38H54V39H53zM56,38H57V39H56zM57,38H58V39H57zM60,38H61V39H60zM63,38H64V39H63zM0,39H1V40H0zM4,39H5V40H4zM8,39H9V40H8zM9,39H10V40H9zM11,39H12V40H11zM13,39H14V40H13zM14,39H15V40H14zM15,39H16V40H15zM16,39H17V40H16zM20,39H21V40H20zM22,39H23V40H22zM23,39H24V40H23zM24,39H25V40H24zM25,39H26V40H25zM26,39H27V40H26zM27,39H28V40H27zM28,39H29V40H28zM30,39H31V40H30zM32,39H33V40H32zM33,39H34V40H33zM34,39H35V40H34zM37,39H38V40H37zM42,39H43V40H42zM44,39H45V40H44zM45,39H46V40H45zM49,39H50V40H49zM51,39H52V40H51zM53,39H54V40H53zM54,39H55V40H54zM55,39H56V40H55zM57,39H58V40H57zM58,39H59V40H58zM59,39H60V40H59zM60,39H61V40H60zM62,39H63V40H62zM1,40H2V41H1zM2,40H3V41H2zM4,40H5V41H4zM5,40H6V41H5zM6,40H7V41H6zM7,40H8V41H7zM8,40H9V41H8zM9,40H10V41H9zM10,40H11V41H10zM13,40H14V41H13zM14,40H15V41H14zM15,40H16V41H15zM16,40H17V41H16zM17,40H18V41H17zM22,40H23V41H22zM23,40H24V41H23zM26,40H27V41H26zM30,40H31V41H30zM33,40H34V41H33zM35,40H36V41H35zM36,40H37V41H36zM42,40H43V41H42zM44,40H45V41H44zM45,40H46V41H45zM46,40H47V41H46zM47,40H48V41H47zM50,40H51V41H50zM51,40H52V41H51zM54,40H55V41H54zM57,40H58V41H57zM60,40H61V41H60zM62,40H63V41H62zM63,40H64V41H63zM64,40H65V41H64zM2,41H3V42H2zM4,41H5V42H4zM7,41H8V42H7zM9,41H10V42H9zM11,41H12V42H11zM12,41H13V42H12zM13,41H14V42H13zM16,41H17V42H16zM24,41H25V42H24zM26,41H27V42H26zM27,41H28V42H27zM28,41H29V42H28zM29,41H30V42H29zM30,41H31V42H30zM31,41H32V42H31zM35,41H36V42H35zM38,41H39V42H38zM39,41H40V42H39zM46,41H47V42H46zM49,41H50V42H49zM50,41H51V42H50zM51,41H52V42H51zM53,41H54V42H53zM55,41H56V42H55zM58,41H59V42H58zM59,41H60V42H59zM60,41H61V42H60zM63,41H64V42H63zM64,41H65V42H64zM0,42H1V43H0zM3,42H4V43H3zM6,42H7V43H6zM7,42H8V43H7zM8,42H9V43H8zM10,42H11V43H10zM11,42H12V43H11zM13,42H14V43H13zM14,42H15V43H14zM17,42H18V43H17zM18,42H19V43H18zM20,42H21V43H20zM22,42H23V43H22zM27,42H28V43H27zM28,42H29V43H28zM30,42H31V43H30zM33,42H34V43H33zM36,42H37V43H36zM38,42H39V43H38zM39,42H40V43H39zM40,42H41V43H40zM42,42H43V43H42zM44,42H45V43H44zM45,42H46V43H45zM49,42H50V43H49zM51,42H52V43H51zM55,42H56V43H55zM56,42H57V43H56zM57,42H58V43H57zM60,42H61V43H60zM61,42H62V43H61zM62,42H63V43H62zM63,42H64V43H63zM64,42H65V43H64zM2,43H3V44H2zM3,43H4V44H3zM4,43H5V44H4zM9,43H10V44H9zM11,43H12V44H11zM13,43H14V44H13zM14,43H15V44H14zM17,43H18V44H17zM19,43H20V44H19zM20,43H21V44H20zM21,43H22V44H21zM22,43H23V44H22zM23,43H24V44H23zM25,43H26V44H25zM31,43H32V44H31zM32,43H33V44H32zM35,43H36V44H35zM36,43H37V44H36zM38,43H39V44H38zM41,43H42V44H41zM42,43H43V44H42zM44,43H45V44H44zM45,43H46V44H45zM46,43H47V44H46zM47,43H48V44H47zM48,43H49V44H48zM50,43H51V44H50zM52,43H53V44H52zM53,43H54V44H53zM54,43H55V44H54zM56,43H57V44H56zM58,43H59V44H58zM60,43H61V44H60zM61,43H62V44H61zM63,43H64V44H63zM1,44H2V45H1zM3,44H4V45H3zM4,44H5V45H4zM5,44H6V45H5zM6,44H7V45H6zM8,44H9V45H8zM10,44H11V45H10zM16,44H17V45H16zM17,44H18V45H17zM20,44H21V45H20zM23,44H24V45H23zM24,44H25V45H24zM33,44H34V45H33zM35,44H36V45H35zM38,44H39V45H38zM40,44H41V45H40zM43,44H44V45H43zM45,44H46V45H45zM46,44H47V45H46zM48,44H49V45H48zM50,44H51V45H50zM54,44H55V45H54zM57,44H58V45H57zM59,44H60V45H59zM60,44H61V45H60zM61,44H62V45H61zM62,44H63V45H62zM0,45H1V46H0zM1,45H2V46H1zM2,45H3V46H2zM3,45H4V46H3zM5,45H6V46H5zM8,45H9V46H8zM10,45H11V46H10zM11,45H12V46H11zM14,45H15V46H14zM17,45H18V46H17zM18,45H19V46H18zM20,45H21V46H20zM21,45H22V46H21zM22,45H23V46H22zM24,45H25V46H24zM25,45H26V46H25zM27,45H28V46H27zM30,45H31V46H30zM31,45H32V46H31zM32,45H33V46H32zM33,45H34V46H33zM39,45H40V46H39zM46,45H47V46H46zM51,45H52V46H51zM53,45H54V46H53zM54,45H55V46H54zM57,45H58V46H57zM63,45H64V46H63zM64,45H65V46H64zM0,46H1V47H0zM1,46H2V47H1zM6,46H7V47H6zM7,46H8V47H7zM11,46H12V47H11zM12,46H13V47H12zM13,46H14V47H13zM15,46H16V47H15zM16,46H17V47H16zM20,46H21V47H20zM21,46H22V47H21zM22,46H23V47H22zM23,46H24V47H23zM25,46H26V47H25zM26,46H27V47H26zM27,46H28V47H27zM28,46H29V47H28zM30,46H31V47H30zM32,46H33V47H32zM35,46H36V47H35zM36,46H37V47H36zM37,46H38V47H37zM41,46H42V47H41zM42,46H43V47H42zM49,46H50V47H49zM55,46H56V47H55zM59,46H60V47H59zM61,46H62V47H61zM62,46H63V47H62zM64,46H65V47H64zM2,47H3V48H2zM7,47H8V48H7zM10,47H11V48H10zM11,47H12V48H11zM12,47H13V48H12zM14,47H15V48H14zM16,47H17V48H16zM17,47H18V48H17zM18,47H19V48H18zM20,47H21V48H20zM22,47H23V48H22zM24,47H25V48H24zM26,47H27V48H26zM27,47H28V48H27zM28,47H29V48H28zM29,47H30V48H29zM31,47H32V48H31zM32,47H33V48H32zM36,47H37V48H36zM38,47H39V48H38zM39,47H40V48H39zM40,47H41V48H40zM42,47H43V48H42zM44,47H45V48H44zM45,47H46V48H45zM46,47H47V48H46zM47,47H48V48H47zM48,47H49V48H48zM49,47H50V48H49zM50,47H51V48H50zM51,47H52V48H51zM57,47H58V48H57zM58,47H59V48H58zM63,47H64V48H63zM64,47H65V48H64zM0,48H1V49H0zM1,48H2V49H1zM3,48H4V49H3zM4,48H5V49H4zM6,48H7V49H6zM7,48H8V49H7zM8,48H9V49H8zM10,48H11V49H10zM11,48H12V49H11zM12,48H13V49H12zM16,48H17V49H16zM19,48H20V49H19zM20,48H21V49H20zM25,48H26V49H25zM26,48H27V49H26zM33,48H34V49H33zM35,48H36V49H35zM39,48H40V49H39zM40,48H41V49H40zM44,48H45V49H44zM45,48H46V49H45zM46,48H47V49H46zM48,48H49V49H48zM51,48H52V49H51zM52,48H53V49H52zM56,48H57V49H56zM58,48H59V49H58zM59,48H60V49H59zM60,48H61V49H60zM61,48H62V49H61zM62,48H63V49H62zM63,48H64V49H63zM0,49H1V50H0zM2,49H3V50H2zM3,49H4V50H3zM4,49H5V50H4zM7,49H8V50H7zM9,49H10V50H9zM11,49H12V50H11zM12,49H13V50H12zM14,49H15V50H14zM17,49H18V50H17zM18,49H19V50H18zM19,49H20V50H19zM21,49H22V50H21zM23,49H24V50H23zM27,49H28V50H27zM30,49H31V50H30zM33,49H34V50H33zM37,49H38V50H37zM38,49H39V50H38zM39,49H40V50H39zM41,49H42V50H41zM42,49H43V50H42zM45,49H46V50H45zM51,49H52V50H51zM54,49H55V50H54zM55,49H56V50H55zM0,50H1V51H0zM1,50H2V51H1zM3,50H4V51H3zM4,50H5V51H4zM5,50H6V51H5zM6,50H7V51H6zM7,50H8V51H7zM11,50H12V51H11zM13,50H14V51H13zM15,50H16V51H15zM20,50H21V51H20zM21,50H22V51H21zM25,50H26V51H25zM26,50H27V51H26zM27,50H28V51H27zM28,50H29V51H28zM30,50H31V51H30zM31,50H32V51H31zM34,50H35V51H34zM35,50H36V51H35zM36,50H37V51H36zM38,50H39V51H38zM39,50H40V51H39zM42,50H43V51H42zM43,50H44V51H43zM49,50H50V51H49zM53,50H54V51H53zM54,50H55V51H54zM55,50H56V51H55zM56,50H57V51H56zM57,50H58V51H57zM59,50H60V51H59zM61,50H62V51H61zM62,50H63V51H62zM63,50H64V51H63zM0,51H1V52H0zM2,51H3V52H2zM3,51H4V52H3zM5,51H6V52H5zM8,51H9V52H8zM9,51H10V52H9zM10,51H11V52H10zM13,51H14V52H13zM17,51H18V52H17zM18,51H19V52H18zM19,51H20V52H19zM21,51H22V52H21zM24,51H25V52H24zM25,51H26V52H25zM26,51H27V52H26zM27,51H28V52H27zM28,51H29V52H28zM33,51H34V52H33zM35,51H36V52H35zM36,51H37V52H36zM37,51H38V52H37zM41,51H42V52H41zM42,51H43V52H42zM43,51H44V52H43zM45,51H46V52H45zM46,51H47V52H46zM48,51H49V52H48zM49,51H50V52H49zM51,51H52V52H51zM52,51H53V52H52zM54,51H55V52H54zM55,51H56V52H55zM57,51H58V52H57zM61,51H62V52H61zM63,51H64V52H63zM0,52H1V53H0zM4,52H5V53H4zM6,52H7V53H6zM8,52H9V53H8zM10,52H11V53H10zM12,52H13V53H12zM13,52H14V53H13zM14,52H15V53H14zM16,52H17V53H16zM17,52H18V53H17zM18,52H19V53H18zM19,52H20V53H19zM23,52H24V53H23zM24,52H25V53H24zM26,52H27V53H26zM27,52H28V53H27zM31,52H32V53H31zM32,52H33V53H32zM33,52H34V53H33zM34,52H35V53H34zM36,52H37V53H36zM38,52H39V53H38zM39,52H40V53H39zM42,52H43V53H42zM45,52H46V53H45zM54,52H55V53H54zM58,52H59V53H58zM59,52H60V53H59zM60,52H61V53H60zM61,52H62V53H61zM0,53H1V54H0zM8,53H9V54H8zM10,53H11V54H10zM11,53H12V54H11zM12,53H13V54H12zM17,53H18V54H17zM18,53H19V54H18zM19,53H20V54H19zM20,53H21V54H20zM21,53H22V54H21zM22,53H23V54H22zM26,53H27V54H26zM28,53H29V54H28zM29,53H30V54H29zM30,53H31V54H30zM31,53H32V54H31zM33,53H34V54H33zM34,53H35V54H34zM36,53H37V54H36zM37,53H38V54H37zM38,53H39V54H38zM39,53H40V54H39zM48,53H49V54H48zM51,53H52V54H51zM52,53H53V54H52zM53,53H54V54H53zM54,53H55V54H54zM57,53H58V54H57zM58,53H59V54H58zM60,53H61V54H60zM62,53H63V54H62zM63,53H64V54H63zM64,53H65V54H64zM2,54H3V55H2zM3,54H4V55H3zM5,54H6V55H5zM6,54H7V55H6zM7,54H8V55H7zM11,54H12V55H11zM13,54H14V55H13zM14,54H15V55H14zM16,54H17V55H16zM17,54H18V55H17zM18,54H19V55H18zM19,54H20V55H19zM20,54H21V55H20zM22,54H23V55H22zM23,54H24V55H23zM25,54H26V55H25zM27,54H28V55H27zM30,54H31V55H30zM31,54H32V55H31zM32,54H33V55H32zM33,54H34V55H33zM35,54H36V55H35zM36,54H37V55H36zM39,54H40V55H39zM44,54H45V55H44zM45,54H46V55H45zM46,54H47V55H46zM47,54H48V55H47zM48,54H49V55H48zM49,54H50V55H49zM51,54H52V55H51zM52,54H53V55H52zM58,54H59V55H58zM60,54H61V55H60zM62,54H63V55H62zM0,55H1V56H0zM3,55H4V56H3zM8,55H9V56H8zM9,55H10V56H9zM10,55H11V56H10zM11,55H12V56H11zM12,55H13V56H12zM15,55H16V56H15zM17,55H18V56H17zM18,55H19V56H18zM19,55H20V56H19zM20,55H21V56H20zM22,55H23V56H22zM25,55H26V56H25zM26,55H27V56H26zM27,55H28V56H27zM28,55H29V56H28zM30,55H31V56H30zM38,55H39V56H38zM39,55H40V56H39zM42,55H43V56H42zM45,55H46V56H45zM47,55H48V56H47zM48,55H49V56H48zM49,55H50V56H49zM51,55H52V56H51zM54,55H55V56H54zM55,55H56V56H55zM56,55H57V56H56zM57,55H58V56H57zM59,55H60V56H59zM60,55H61V56H60zM63,55H64V56H63zM1,56H2V57H1zM2,56H3V57H2zM4,56H5V57H4zM6,56H7V57H6zM9,56H10V57H9zM10,56H11V57H10zM11,56H12V57H11zM13,56H14V57H13zM14,56H15V57H14zM16,56H17V57H16zM17,56H18V57H17zM19,56H20V57H19zM20,56H21V57H20zM21,56H22V57H21zM22,56H23V57H22zM23,56H24V57H23zM26,56H27V57H26zM27,56H28V57H27zM30,56H31V57H30zM31,56H32V57H31zM32,56H33V57H32zM33,56H34V57H33zM34,56H35V57H34zM35,56H36V57H35zM37,56H38V57H37zM38,56H39V57H38zM39,56H40V57H39zM40,56H41V57H40zM42,56H43V57H42zM43,56H44V57H43zM44,56H45V57H44zM45,56H46V57H45zM46,56H47V57H46zM47,56H48V57H47zM49,56H50V57H49zM54,56H55V57H54zM55,56H56V57H55zM56,56H57V57H56zM57,56H58V57H57zM58,56H59V57H58zM59,56H60V57H59zM60,56H61V57H60zM61,56H62V57H61zM63,56H64V57H63zM8,57H9V58H8zM9,57H10V58H9zM11,57H12V58H11zM13,57H14V58H13zM14,57H15V58H14zM15,57H16V58H15zM18,57H19V58H18zM23,57H24V58H23zM24,57H25V58H24zM26,57H27V58H26zM27,57H28V58H27zM30,57H31V58H30zM34,57H35V58H34zM36,57H37V58H36zM37,57H38V58H37zM39,57H40V58H39zM40,57H41V58H40zM41,57H42V58H41zM42,57H43V58H42zM45,57H46V58H45zM48,57H49V58H48zM50,57H51V58H50zM51,57H52V58H51zM54,57H55V58H54zM56,57H57V58H56zM60,57H61V58H60zM61,57H62V58H61zM62,57H63V58H62zM0,58H1V59H0zM1,58H2V59H1zM2,58H3V59H2zM3,58H4V59H3zM4,58H5V59H4zM5,58H6V59H5zM6,58H7V59H6zM9,58H10V59H9zM11,58H12V59H11zM14,58H15V59H14zM15,58H16V59H15zM18,58H19V59H18zM19,58H20V59H19zM20,58H21V59H20zM21,58H22V59H21zM25,58H26V59H25zM27,58H28V59H27zM29,58H30V59H29zM30,58H31V59H30zM32,58H33V59H32zM34,58H35V59H34zM35,58H36V59H35zM36,58H37V59H36zM38,58H39V59H38zM39,58H40V59H39zM44,58H45V59H44zM45,58H46V59H45zM48,58H49V59H48zM49,58H50V59H49zM50,58H51V59H50zM51,58H52V59H51zM52,58H53V59H52zM54,58H55V59H54zM55,58H56V59H55zM56,58H57V59H56zM58,58H59V59H58zM60,58H61V59H60zM63,58H64V59H63zM0,59H1V60H0zM6,59H7V60H6zM8,59H9V60H8zM9,59H10V60H9zM10,59H11V60H10zM12,59H13V60H12zM16,59H17V60H16zM17,59H18V60H17zM18,59H19V60H18zM25,59H26V60H25zM27,59H28V60H27zM28,59H29V60H28zM29,59H30V60H29zM30,59H31V60H30zM34,59H35V60H34zM36,59H37V60H36zM40,59H41V60H40zM42,59H43V60H42zM45,59H46V60H45zM48,59H49V60H48zM50,59H51V60H50zM52,59H53V60H52zM54,59H55V60H54zM55,59H56V60H55zM56,59H57V60H56zM60,59H61V60H60zM61,59H62V60H61zM63,59H64V60H63zM64,59H65V60H64zM0,60H1V61H0zM2,60H3V61H2zM3,60H4V61H3zM4,60H5V61H4zM6,60H7V61H6zM8,60H9V61H8zM9,60H10V61H9zM14,60H15V61H14zM15,60H16V61H15zM18,60H19V61H18zM21,60H22V61H21zM22,60H23V61H22zM23,60H24V61H23zM25,60H26V61H25zM26,60H27V61H26zM30,60H31V61H30zM31,60H32V61H31zM32,60H33V61H32zM33,60H34V61H33zM34,60H35V61H34zM37,60H38V61H37zM38,60H39V61H38zM39,60H40V61H39zM41,60H42V61H41zM44,60H45V61H44zM46,60H47V61H46zM48,60H49V61H48zM49,60H50V61H49zM50,60H51V61H50zM51,60H52V61H51zM53,60H54V61H53zM56,60H57V61H56zM57,60H58V61H57zM58,60H59V61H58zM59,60H60V61H59zM60,60H61V61H60zM61,60H62V61H61zM62,60H63V61H62zM63,60H64V61H63zM64,60H65V61H64zM0,61H1V62H0zM2,61H3V62H2zM3,61H4V62H3zM4,61H5V62H4zM6,61H7V62H6zM8,61H9V62H8zM9,61H10V62H9zM10,61H11V62H10zM11,61H12V62H11zM13,61H14V62H13zM14,61H15V62H14zM15,61H16V62H15zM16,61H17V62H16zM17,61H18V62H17zM20,61H21V62H20zM22,61H23V62H22zM25,61H26V62H25zM27,61H28V62H27zM29,61H30V62H29zM30,61H31V62H30zM31,61H32V62H31zM33,61H34V62H33zM34,61H35V62H34zM37,61H38V62H37zM39,61H40V62H39zM42,61H43V62H42zM44,61H45V62H44zM45,61H46V62H45zM47,61H48V62H47zM48,61H49V62H48zM49,61H50V62H49zM51,61H52V62H51zM54,61H55V62H54zM56,61H57V62H56zM60,61H61V62H60zM61,61H62V62H61zM63,61H64V62H63zM0,62H1V63H0zM2,62H3V63H2zM3,62H4V63H3zM4,62H5V63H4zM6,62H7V63H6zM8,62H9V63H8zM9,62H10V63H9zM10,62H11V63H10zM13,62H14V63H13zM14,62H15V63H14zM16,62H17V63H16zM17,62H18V63H17zM19,62H20V63H19zM20,62H21V63H20zM22,62H23V63H22zM23,62H24V63H23zM24,62H25V63H24zM26,62H27V63H26zM30,62H31V63H30zM31,62H32V63H31zM32,62H33V63H32zM33,62H34V63H33zM34,62H35V63H34zM35,62H36V63H35zM37,62H38V63H37zM38,62H39V63H38zM39,62H40V63H39zM40,62H41V63H40zM44,62H45V63H44zM45,62H46V63H45zM48,62H49V63H48zM49,62H50V63H49zM50,62H51V63H50zM51,62H52V63H51zM55,62H56V63H55zM57,62H58V63H57zM59,62H60V63H59zM63,62H64V63H63zM0,63H1V64H0zM6,63H7V64H6zM9,63H10V64H9zM10,63H11V64H10zM11,63H12V64H11zM12,63H13V64H12zM13,63H14V64H13zM14,63H15V64H14zM17,63H18V64H17zM19,63H20V64H19zM20,63H21V64H20zM21,63H22V64H21zM22,63H23V64H22zM24,63H25V64H24zM25,63H26V64H25zM26,63H27V64H26zM27,63H28V64H27zM29,63H30V64H29zM30,63H31V64H30zM32,63H33V64H32zM34,63H35V64H34zM36,63H37V64H36zM37,63H38V64H37zM38,63H39V64H38zM39,63H40V64H39zM41,63H42V64H41zM46,63H47V64H46zM48,63H49V64H48zM49,63H50V64H49zM50,63H51V64H50zM51,63H52V64H51zM52,63H53V64H52zM54,63H55V64H54zM57,63H58V64H57zM60,63H61V64H60zM61,63H62V64H61zM63,63H64V64H63zM0,64H1V65H0zM1,64H2V65H1zM2,64H3V65H2zM3,64H4V65H3zM4,64H5V65H4zM5,64H6V65H5zM6,64H7V65H6zM8,64H9V65H8zM11,64H12V65H11zM13,64H14V65H13zM15,64H16V65H15zM16,64H17V65H16zM17,64H18V65H17zM18,64H19V65H18zM19,64H20V65H19zM20,64H21V65H20zM24,64H25V65H24zM27,64H28V65H27zM30,64H31V65H30zM31,64H32V65H31zM33,64H34V65H33zM35,64H36V65H35zM38,64H39V65H38zM40,64H41V65H40zM43,64H44V65H43zM44,64H45V65H44zM45,64H46V65H45zM46,64H47V65H46zM47,64H48V65H47zM50,64H51V65H50zM51,64H52V65H51zM55,64H56V65H55zM56,64H57V65H56zM62,64H63V65H62z" style="fill:#000000;fill-opacity:1;fill-rule:nonzero;stroke:none" transform="translate(237.40157,61) scale(2.4966686153846154)" /><g id="swiss-cross" transform="translate(305.4890105263158,129.0874405263158) scale(1.305428947368421)"><polygon fill="black" points="18.3,0.7 1.6,0.7 0.7,0.7 0.7,1.6 0.7,18.3 0.7,19.1 1.6,19.1 18.3,19.1 19.1,19.1 19.1,18.3 19.1,1.6 19.1,0.7" /><rect fill="white" height="11" width="3.3" x="8.3" y="4" /><rect fill="white" height="3.3" width="11" x="4.4" y="7.9" /><polygon fill="none" points="0.7,1.6 0.7,18.3 0.7,19.1 1.6,19.1 18.3,19.1 19.1,19.1 19.1,18.3 19.1,1.6 19.1,0.7 18.3,0.7 1.6,0.7 0.7,0.7" stroke="white" stroke-width="1.4357" /></g><text font-family="Arial,Helvetica" font-size="9.0" font-weight="bold" x="237.40157" y="258.66141">Währung</text><text font-family="Arial,Helvetica" font-size="9.0" font-weight="bold" x="279.92125" y="258.66141">Betrag</text><text font-family="Arial,Helvetica" font-size="10.0" x="237.40157" y="276.37795">CHF</text><text font-family="Arial,Helvetica" font-size="10.0" x="279.92125" y="276.37795">250.25</text><text font-family="Arial,Helvetica" font-size="9.0" font-weight="bold" x="418.11023" y="38.97638">Konto / Zahlbar an</text><text font-family="Arial,Helvetica" font-size="10.0" x="418.11023" y="51.37795">CH44 3199 9123 0008 8901 2</text><text font-family="Arial,Helvetica" font-size="10.0" x="418.11023" y="63.77953">Robert Schneider AG</text><text font-family="Arial,Helvetica" font-size="10.0" x="418.11023" y="76.1811">Rue du Lac 1268</text><text font-family="Arial,Helvetica" font-size="10.0" x="418.11023" y="88.58267">CH-2501 Biel</text><text font-family="Arial,Helvetica" font-size="9.0" font-weight="bold" x="418.11023" y="111.61417">Referenz</text><text font-family="Arial,Helvetica" font-size="10.0" x="418.11023" y="124.01574">21 00000 00003 13947 14300 09017</text><text font-family="Arial,Helvetica" font-size="9.0" font-weight="bold" x="418.11023" y="147.04724">Zusätzliche Informationen</text><text font-family="Arial,Helvetica" font-size="10.0" x="418.11023" y="159.44881">Bill No. 3139 for garden work and disposal of cuttings.</text><text font-family="Arial,Helvetica" font-size="9.0" font-weight="bold" x="418.11023" y="182.48031">Zahlbar durch</text><text font-family="Arial,Helvetica" font-size="10.0" x="418.11023" y="194.88189">Pia Rutschmann</text><text font-family="Arial,Helvetica" font-size="10.0" x="418.11023" y="207.28346">Marktgasse 28</text><text font-family="Arial,Helvetica" font-size="10.0" x="418.11023" y="219.68503">CH-9400 Rorschach</text></g></svg>