<?xml version="1.0" encoding="utf-8" ?>
<svg baseProfile="full" height="106mm" version="1.1" viewBox="0 0 744.094470 375.590540" width="210mm" xmlns="http://www.w3.org/2000/svg" xmlns:ev="http://www.w3.org/2001/xml-events" xmlns:xlink="http://www.w3.org/1999/xlink"><defs /><rect fill="white" height="100%" width="100%" x="0" y="0" /><g><text font-family="Arial,Helvetica" font-size="12.0" font-weight="bold" x="17.71654" y="38.97638">Receipt</text><text font-family="Arial,Helvetica" font-size="8.0" font-weight="bold" x="17.71654" y="56.69291">Account / Payable to</text><text font-family="Arial,Helvetica" font-size="10.0" x="17.71654" y="69.09449">CH58 0079 1123 0008 8901 2</text><text font-family="Arial,Helvetica" font-size="10.0" x="17.71654" y="81.49606">John Doe</text><text font-family="Arial,Helvetica" font-size="10.0" x="17.71654" y="93.89764">CH-2501 Biel</text><text font-family="Arial,Helvetica" font-size="8.0" font-weight="bold" x="17.71654" y="109.84252">Payable by (name/address)</text><g><line stroke="black" stroke-linecap="square" stroke-width="0.26mm" x1="17.71654" x2="17.71654" y1="122.24409" y2="129.3307" /><line stroke="black" stroke-linecap="square" stroke-width="0.26mm" x1="17.71654" x2="28.34646" y1="122.24409" y2="122.24409" /><line stroke="black" stroke-linecap="square" stroke-width="0.26mm" x1="17.71654" x2="17.71654" y1="210.82676" y2="203.74015" /><line stroke="black" stroke-linecap="square" stroke-width="0.26mm" x1="17.71654" x2="28.34646" y1="210.82676" y2="210.82676" /><line stroke="black" stroke-linecap="square" stroke-width="0.26mm" x1="191.33858" x2="201.9685" y1="122.24409" y2="122.24409" /><line stroke="black" stroke-linecap="square" stroke-width="0.26mm" x1="201.9685" x2="201.9685" y1="122.24409" y2="129.3307" /><line stroke="black" stroke-linecap="square" stroke-width="0.26mm" x1="191.33858" x2="201.9685" y1="210.82676" y2="210.82676" /><line stroke="black" stroke-linecap="square" stroke-width="0.26mm" x1="201.9685" x2="201.9685" y1="210.82676" y2="203.74015" /></g><text font-family="Arial,Helvetica" font-size="8.0" font-weight="bold" x="17.71654" y="258.66141">Currency</text><text font-family="Arial,Helvetica" font-size="8.0" font-weight="bold" x="60.23622" y="258.66141">Amount</text><text font-family="Arial,Helvetica" font-size="10.0" x="17.71654" y="276.37795">CHF</text><g><line stroke="black" stroke-linecap="square" stroke-width="0.26mm" x1="106.29921" x2="106.29921" y1="251.5748" y2="258.66141" /><line stroke="black" stroke-linecap="square" stroke-width="0.26mm" x1="106.29921" x2="116.92913" y1="251.5748" y2="251.5748" /><line stroke="black" stroke-linecap="square" stroke-width="0.26mm" x1="106.29921" x2="106.29921" y1="290.55118" y2="283.46457" /><line stroke="black" stroke-linecap="square" stroke-width="0.26mm" x1="106.29921" x2="116.92913" y1="290.55118" y2="290.55118" /><line stroke="black" stroke-linecap="square" stroke-width="0.26mm" x1="191.33858" x2="201.9685" y1="251.5748" y2="251.5748" /><line stroke="black" stroke-linecap="square" stroke-width="0.26mm" x1="201.9685" x2="201.9685" y1="251.5748" y2="258.66141" /><line stroke="black" stroke-linecap="square" stroke-width="0.26mm" x1="191.33858" x2="201.9685" y1="290.55118" y2="290.55118" /><line stroke="black" stroke-linecap="square" stroke-width="0.26mm" x1="201.9685" x2="201.9685" y1="290.55118" y2="283.46457" /></g><text font-family="Arial,Helvetica" font-size="8.0" font-weight="bold" text-anchor="end" x="201.96849" y="308.26771">Acceptance point</text><line fill="none" stroke="black" stroke-dasharray="2 2" x1="0" x2="744.09447" y1="4.04291" y2="4.04291" /><path d="m 0.764814,4.283977 c 0.337358,0.143009 0.862476,-0.115279 0.775145,-0.523225 -0.145918,-0.497473 -0.970289,-0.497475 -1.116209,-2e-6 -0.0636,0.23988 0.128719,0.447618 0.341064,0.523227 z m 3.875732,-1.917196 c 1.069702,0.434082 2.139405,0.868164 3.209107,1.302246 -0.295734,0.396158 -0.866482,0.368049 -1.293405,0.239509 -0.876475,-0.260334 -1.71099,-0.639564 -2.563602,-0.966653 -0.132426,-0.04295 -0.265139,-0.124595 -0.397393,-0.144327 -0.549814,0.22297 -1.09134,0.477143 -1.667719,0.62213 -0.07324,0.232838 0.150307,0.589809 -0.07687,0.842328 -0.311347,0.532157 -1.113542,0.624698 -1.561273,0.213165 -0.384914,-0.301216 -0.379442,-0.940948 7e-6,-1.245402 0.216628,-0.191603 0.506973,-0.286636 0.794095,-0.258382 0.496639,0.01219 1.013014,-0.04849 1.453829,-0.289388 0.437126,-0.238777 0.07006,-0.726966 -0.300853,-0.765416 -0.420775,-0.157424 -0.870816,-0.155853 -1.312747,-0.158623 -0.527075,-0.0016 -1.039244,-0.509731 -0.904342,-1.051293 0.137956,-0.620793 0.952738,-0.891064 1.47649,-0.573851 0.371484,0.188118 0.594679,0.675747 0.390321,1.062196 0.09829,0.262762 0.586716,0.204086 0.826177,0.378204 0.301582,0.119237 0.600056,0.246109 0.899816,0.36981 0.89919,-0.349142 1.785653,-0.732692 2.698347,-1.045565 0.459138,-0.152333 1.033472,-0.283325 1.442046,0.05643 0.217451,0.135635 -0.06954,0.160294 -0.174725,0.220936 -0.979101,0.397316 -1.958202,0.794633 -2.937303,1.19195 z m -3.44165,-1.917196 c -0.338434,-0.14399 -0.861225,0.116943 -0.775146,0.524517 0.143274,0.477916 0.915235,0.499056 1.10329,0.04328 0.09674,-0.247849 -0.09989,-0.490324 -0.328144,-0.567796 z" style="fill:#000000;fill-opacity:1;fill-rule:nonzero;stroke:none" transform="scale(1.9) translate(24,0)" /><line fill="none" stroke="black" stroke-dasharray="2 2" x1="219.68503" x2="219.68503" y1="3.54331" y2="372.04724" /><path d="m 0.764814,4.283977 c 0.337358,0.143009 0.862476,-0.115279 0.775145,-0.523225 -0.145918,-0.497473 -0.970289,-0.497475 -1.116209,-2e-6 -0.0636,0.23988 0.128719,0.447618 0.341064,0.523227 z m 3.875732,-1.917196 c 1.069702,0.434082 2.139405,0.868164 3.209107,1.302246 -0.295734,0.396158 -0.866482,0.368049 -1.293405,0.239509 -0.876475,-0.260334 -1.71099,-0.639564 -2.563602,-0.966653 -0.132426,-0.04295 -0.265139,-0.124595 -0.397393,-0.144327 -0.549814,0.22297 -1.09134,0.477143 -1.667719,0.62213 -0.07324,0.232838 0.150307,0.589809 -0.07687,0.842328 -0.311347,0.532157 -1.113542,0.624698 -1.561273,0.213165 -0.384914,-0.301216 -0.379442,-0.940948 7e-6,-1.245402 0.216628,-0.191603 0.506973,-0.286636 0.794095,-0.258382 0.496639,0.01219 1.013014,-0.04849 1.453829,-0.289388 0.437126,-0.238777 0.07006,-0.726966 -0.300853,-0.765416 -0.420775,-0.157424 -0.870816,-0.155853 -1.312747,-0.158623 -0.527075,-0.0016 -1.039244,-0.509731 -0.904342,-1.051293 0.137956,-0.620793 0.952738,-0.891064 1.47649,-0.573851 0.371484,0.188118 0.594679,0.675747 0.390321,1.062196 0.09829,0.262762 0.586716,0.204086 0.826177,0.378204 0.301582,0.119237 0.600056,0.246109 0.899816,0.36981 0.89919,-0.349142 1.785653,-0.732692 2.698347,-1.045565 0.459138,-0.152333 1.033472,-0.283325 1.442046,0.05643 0.217451,0.135635 -0.06954,0.160294 -0.174725,0.220936 -0.979101,0.397316 -1.958202,0.794633 -2.937303,1.19195 z m -3.44165,-1.917196 c -0.338434,-0.14399 -0.861225,0.116943 -0.775146,0.524517 0.143274,0.477916 0.915235,0.499056 1.10329,0.04328 0.09674,-0.247849 -0.09989,-0.490324 -0.328144,-0.567796 z" style="fill:#000000;fill-opacity:1;fill-rule:nonzero;stroke:none" transform="scale(1.9) translate(118,40) rotate(90)" /><text font-family="Arial,Helvetica" font-size="12.0" font-weight="bold" x="237.40157" y="38.97638">Payment part</text><path d="M0,0H1V1H0zM1,0H2V1H1zM2,0H3V1H2zM3,0H4V1H3zM4,0H5V1H4zM5,0H6V1H5zM6,0H7V1H6zM8,0H9V1H8zM11,0H12V1H11zM12,0H13V1H12zM16,0H17V1H16zM19,0H20V1H19zM20,0H21V1H20zM22,0H23V1H22zM24,0H25V1H24zM26,0H27V1H26zM30,0H31V1H30zM31,0H32V1H31zM36,0H37V1H36zM38,0H39V1H38zM39,0H40V1H39zM40,0H41V1H40zM41,0H42V1H41zM42,0H43V1H42zM43,0H44V1H43zM44,0H45V1H44zM0,1H1V2H0zM6,1H7V2H6zM10,1H11V2H10zM13,1H14V2H13zM15,1H16V2H15zM16,1H17V2H16zM18,1H19V2H18zM24,1H25V2H24zM25,1H26V2H25zM31,1H32V2H31zM35,1H36V2H35zM38,1H39V2H38zM44,1H45V2H44zM0,2H1V3H0zM2,2H3V3H2zM3,2H4V3H3zM4,2H5V3H4zM6,2H7V3H6zM9,2H10V3H9zM10,2H11V3H10zM13,2H14V3H13zM15,2H16V3H15zM16,2H17V3H16zM17,2H18V3H17zM20,2H21V3H20zM22,2H23V3H22zM23,2H24V3H23zM24,2H25V3H24zM26,2H27V3H26zM28,2H29V3H28zM29,2H30V3H29zM30,2H31V3H30zM31,2H32V3H31zM33,2H34V3H33zM35,2H36V3H35zM38,2H39V3H38zM40,2H41V3H40zM41,2H42V3H41zM42,2H43V3H42zM44,2H45V3H44zM0,3H1V4H0zM2,3H3V4H2zM3,3H4V4H3zM4,3H5V4H4zM6,3H7V4H6zM8,3H9V4H8zM9,3H10V4H9zM11,3H12V4H11zM12,3H13V4H12zM13,3H14V4H13zM14,3H15V4H14zM21,3H22V4H21zM23,3H24V4H23zM24,3H25V4H24zM26,3H27V4H26zM28,3H29V4H28zM29,3H30V4H29zM31,3H32V4H31zM35,3H36V4H35zM36,3H37V4H36zM38,3H39V4H38zM40,3H41V4H40zM41,3H42V4H41zM42,3H43V4H42zM44,3H45V4H44zM0,4H1V5H0zM2,4H3V5H2zM3,4H4V5H3zM4,4H5V5H4zM6,4H7V5H6zM8,4H9V5H8zM10,4H11V5H10zM11,4H12V5H11zM12,4H13V5H12zM16,4H17V5H16zM19,4H20V5H19zM20,4H21V5H20zM21,4H22V5H21zM22,4H23V5H22zM23,4H24V5H23zM24,4H25V5H24zM25,4H26V5H25zM29,4H30V5H29zM30,4H31V5H30zM31,4H32V5H31zM32,4H33V5H32zM34,4H35V5H34zM35,4H36V5H35zM36,4H37V5H36zM38,4H39V5H38zM40,4H41V5H40zM41,4H42V5H41zM42,4H43V5H42zM44,4H45V5H44zM0,5H1V6H0zM6,5H7V6H6zM8,5H9V6H8zM9,5H10V6H9zM11,5H12V6H11zM14,5H15V6H14zM15,5H16V6H15zM17,5H18V6H17zM19,5H20V6H19zM20,5H21V6H20zM24,5H25V6H24zM25,5H26V6H25zM26,5H27V6H26zM28,5H29V6H28zM31,5H32V6H31zM33,5H34V6H33zM38,5H39V6H38zM44,5H45V6H44zM0,6H1V7H0zM1,6H2V7H1zM2,6H3V7H2zM3,6H4V7H3zM4,6H5V7H4zM5,6H6V7H5zM6,6H7V7H6zM8,6H9V7H8zM10,6H11V7H10zM12,6H13V7H12zM14,6H15V7H14zM16,6H17V7H16zM18,6H19V7H18zM20,6H21V7H20zM22,6H23V7H22zM24,6H25V7H24zM26,6H27V7H26zM28,6H29V7H28zM30,6H31V7H30zM32,6H33V7H32zM34,6H35V7H34zM36,6H37V7H36zM38,6H39V7H38zM39,6H40V7H39zM40,6H41V7H40zM41,6H42V7H41zM42,6H43V7H42zM43,6H44V7H43zM44,6H45V7H44zM8,7H9V8H8zM10,7H11V8H10zM12,7H13V8H12zM13,7H14V8H13zM15,7H16V8H15zM17,7H18V8H17zM18,7H19V8H18zM19,7H20V8H19zM20,7H21V8H20zM24,7H25V8H24zM27,7H28V8H27zM28,7H29V8H28zM29,7H30V8H29zM30,7H31V8H30zM32,7H33V8H32zM33,7H34V8H33zM34,7H35V8H34zM35,7H36V8H35zM36,7H37V8H36zM0,8H1V9H0zM4,8H5V9H4zM6,8H7V9H6zM7,8H8V9H7zM8,8H9V9H8zM15,8H16V9H15zM17,8H18V9H17zM19,8H20V9H19zM20,8H21V9H20zM21,8H22V9H21zM22,8H23V9H22zM23,8H24V9H23zM24,8H25V9H24zM25,8H26V9H25zM26,8H27V9H26zM30,8H31V9H30zM32,8H33V9H32zM35,8H36V9H35zM36,8H37V9H36zM37,8H38V9H37zM38,8H39V9H38zM39,8H40V9H39zM40,8H41V9H40zM41,8H42V9H41zM44,8H45V9H44zM1,9H2V10H1zM2,9H3V10H2zM4,9H5V10H4zM9,9H10V10H9zM12,9H13V10H12zM13,9H14V10H13zM16,9H17V10H16zM18,9H19V10H18zM19,9H20V10H19zM20,9H21V10H20zM23,9H24V10H23zM24,9H25V10H24zM25,9H26V10H25zM29,9H30V10H29zM30,9H31V10H30zM31,9H32V10H31zM32,9H33V10H32zM35,9H36V10H35zM36,9H37V10H36zM37,9H38V10H37zM38,9H39V10H38zM40,9H41V10H40zM42,9H43V10H42zM44,9H45V10H44zM0,10H1V11H0zM1,10H2V11H1zM3,10H4V11H3zM4,10H5V11H4zM6,10H7V11H6zM8,10H9V11H8zM9,10H10V11H9zM10,10H11V11H10zM11,10H12V11H11zM12,10H13V11H12zM13,10H14V11H13zM15,10H16V11H15zM17,10H18V11H17zM19,10H20V11H19zM21,10H22V11H21zM22,10H23V11H22zM23,10H24V11H23zM26,10H27V11H26zM27,10H28V11H27zM28,10H29V11H28zM33,10H34V11H33zM34,10H35V11H34zM35,10H36V11H35zM37,10H38V11H37zM38,10H39V11H38zM39,10H40V11H39zM41,10H42V11H41zM43,10H44V11H43zM0,11H1V12H0zM1,11H2V12H1zM2,11H3V12H2zM3,11H4V12H3zM7,11H8V12H7zM8,11H9V12H8zM13,11H14V12H13zM14,11H15V12H14zM16,11H17V12H16zM17,11H18V12H17zM22,11H23V12H22zM27,11H28V12H27zM29,11H30V12H29zM32,11H33V12H32zM33,11H34V12H33zM34,11H35V12H34zM35,11H36V12H35zM36,11H37V12H36zM38,11H39V12H38zM40,11H41V12H40zM43,11H44V12H43zM44,11H45V12H44zM1,12H2V13H1zM6,12H7V13H6zM7,12H8V13H7zM9,12H10V13H9zM11,12H12V13H11zM16,12H17V13H16zM18,12H19V13H18zM20,12H21V13H20zM22,12H23V13H22zM24,12H25V13H24zM26,12H27V13H26zM30,12H31V13H30zM31,12H32V13H31zM32,12H33V13H32zM33,12H34V13H33zM34,12H35V13H34zM36,12H37V13H36zM37,12H38V13H37zM38,12H39V13H38zM39,12H40V13H39zM43,12H44V13H43zM44,12H45V13H44zM0,13H1V14H0zM1,13H2V14H1zM2,13H3V14H2zM3,13H4V14H3zM4,13H5V14H4zM5,13H6V14H5zM7,13H8V14H7zM10,13H11V14H10zM11,13H12V14H11zM12,13H13V14H12zM13,13H14V14H13zM15,13H16V14H15zM19,13H20V14H19zM20,13H21V14H20zM21,13H22V14H21zM22,13H23V14H22zM23,13H24V14H23zM25,13H26V14H25zM28,13H29V14H28zM29,13H30V14H29zM30,13H31V14H30zM33,13H34V14H33zM35,13H36V14H35zM36,13H37V14H36zM38,13H39V14H38zM42,13H43V14H42zM44,13H45V14H44zM0,14H1V15H0zM1,14H2V15H1zM3,14H4V15H3zM6,14H7V15H6zM11,14H12V15H11zM13,14H14V15H13zM14,14H15V15H14zM15,14H16V15H15zM16,14H17V15H16zM17,14H18V15H17zM18,14H19V15H18zM19,14H20V15H19zM21,14H22V15H21zM23,14H24V15H23zM25,14H26V15H25zM27,14H28V15H27zM28,14H29V15H28zM29,14H30V15H29zM30,14H31V15H30zM32,14H33V15H32zM36,14H37V15H36zM37,14H38V15H37zM39,14H40V15H39zM41,14H42V15H41zM42,14H43V15H42zM43,14H44V15H43zM0,15H1V16H0zM4,15H5V16H4zM5,15H6V16H5zM7,15H8V16H7zM10,15H11V16H10zM13,15H14V16H13zM14,15H15V16H14zM15,15H16V16H15zM18,15H19V16H18zM19,15H20V16H19zM23,15H24V16H23zM24,15H25V16H24zM26,15H27V16H26zM28,15H29V16H28zM29,15H30V16H29zM33,15H34V16H33zM34,15H35V16H34zM35,15H36V16H35zM36,15H37V16H36zM40,15H41V16H40zM41,15H42V16H41zM2,16H3V17H2zM4,16H5V17H4zM5,16H6V17H5zM6,16H7V17H6zM7,16H8V17H7zM8,16H9V17H8zM9,16H10V17H9zM11,16H12V17H11zM12,16H13V17H12zM14,16H15V17H14zM15,16H16V17H15zM16,16H17V17H16zM17,16H18V17H17zM18,16H19V17H18zM19,16H20V17H19zM20,16H21V17H20zM24,16H25V17H24zM25,16H26V17H25zM26,16H27V17H26zM27,16H28V17H27zM30,16H31V17H30zM31,16H32V17H31zM32,16H33V17H32zM35,16H36V17H35zM37,16H38V17H37zM38,16H39V17H38zM39,16H40V17H39zM41,16H42V17H41zM42,16H43V17H42zM43,16H44V17H43zM1,17H2V18H1zM2,17H3V18H2zM4,17H5V18H4zM7,17H8V18H7zM9,17H10V18H9zM13,17H14V18H13zM14,17H15V18H14zM15,17H16V18H15zM19,17H20V18H19zM24,17H25V18H24zM26,17H27V18H26zM32,17H33V18H32zM33,17H34V18H33zM36,17H37V18H36zM38,17H39V18H38zM42,17H43V18H42zM44,17H45V18H44zM1,18H2V19H1zM2,18H3V19H2zM3,18H4V19H3zM5,18H6V19H5zM6,18H7V19H6zM7,18H8V19H7zM12,18H13V19H12zM13,18H14V19H13zM14,18H15V19H14zM17,18H18V19H17zM18,18H19V19H18zM21,18H22V19H21zM22,18H23V19H22zM23,18H24V19H23zM24,18H25V19H24zM25,18H26V19H25zM27,18H28V19H27zM29,18H30V19H29zM30,18H31V19H30zM31,18H32V19H31zM32,18H33V19H32zM33,18H34V19H33zM35,18H36V19H35zM38,18H39V19H38zM39,18H40V19H39zM41,18H42V19H41zM43,18H44V19H43zM3,19H4V20H3zM4,19H5V20H4zM5,19H6V20H5zM7,19H8V20H7zM9,19H10V20H9zM13,19H14V20H13zM14,19H15V20H14zM17,19H18V20H17zM19,19H20V20H19zM21,19H22V20H21zM22,19H23V20H22zM27,19H28V20H27zM29,19H30V20H29zM30,19H31V20H30zM32,19H33V20H32zM33,19H34V20H33zM34,19H35V20H34zM35,19H36V20H35zM39,19H40V20H39zM2,20H3V21H2zM4,20H5V21H4zM5,20H6V21H5zM6,20H7V21H6zM7,20H8V21H7zM8,20H9V21H8zM9,20H10V21H9zM11,20H12V21H11zM12,20H13V21H12zM17,20H18V21H17zM18,20H19V21H18zM20,20H21V21H20zM21,20H22V21H21zM22,20H23V21H22zM23,20H24V21H23zM24,20H25V21H24zM25,20H26V21H25zM27,20H28V21H27zM30,20H31V21H30zM32,20H33V21H32zM34,20H35V21H34zM36,20H37V21H36zM37,20H38V21H37zM38,20H39V21H38zM39,20H40V21H39zM40,20H41V21H40zM43,20H44V21H43zM0,21H1V22H0zM3,21H4V22H3zM4,21H5V22H4zM8,21H9V22H8zM12,21H13V22H12zM13,21H14V22H13zM14,21H15V22H14zM16,21H17V22H16zM17,21H18V22H17zM18,21H19V22H18zM20,21H21V22H20zM24,21H25V22H24zM25,21H26V22H25zM26,21H27V22H26zM29,21H30V22H29zM30,21H31V22H30zM31,21H32V22H31zM32,21H33V22H32zM33,21H34V22H33zM35,21H36V22H35zM36,21H37V22H36zM40,21H41V22H40zM42,21H43V22H42zM44,21H45V22H44zM0,22H1V23H0zM1,22H2V23H1zM2,22H3V23H2zM3,22H4V23H3zM4,22H5V23H4zM6,22H7V23H6zM8,22H9V23H8zM10,22H11V23H10zM11,22H12V23H11zM12,22H13V23H12zM14,22H15V23H14zM15,22H16V23H15zM17,22H18V23H17zM20,22H21V23H20zM22,22H23V23H22zM24,22H25V23H24zM26,22H27V23H26zM27,22H28V23H27zM28,22H29V23H28zM36,22H37V23H36zM38,22H39V23H38zM40,22H41V23H40zM41,22H42V23H41zM44,22H45V23H44zM1,23H2V24H1zM2,23H3V24H2zM3,23H4V24H3zM4,23H5V24H4zM8,23H9V24H8zM10,23H11V24H10zM11,23H12V24H11zM14,23H15V24H14zM20,23H21V24H20zM24,23H25V24H24zM27,23H28V24H27zM29,23H30V24H29zM31,23H32V24H31zM35,23H36V24H35zM36,23H37V24H36zM40,23H41V24H40zM44,23H45V24H44zM2,24H3V25H2zM4,24H5V25H4zM5,24H6V25H5zM6,24H7V25H6zM7,24H8V25H7zM8,24H9V25H8zM10,24H11V25H10zM12,24H13V25H12zM13,24H14V25H13zM15,24H16V25H15zM18,24H19V25H18zM20,24H21V25H20zM21,24H22V25H21zM22,24H23V25H22zM23,24H24V25H23zM24,24H25V25H24zM25,24H26V25H25zM30,24H31V25H30zM32,24H33V25H32zM33,24H34V25H33zM36,24H37V25H36zM37,24H38V25H37zM38,24H39V25H38zM39,24H40V25H39zM40,24H41V25H40zM42,24H43V25H42zM43,24H44V25H43zM44,24H45V25H44zM2,25H3V26H2zM5,25H6V26H5zM9,25H10V26H9zM10,25H11V26H10zM11,25H12V26H11zM16,25H17V26H16zM17,25H18V26H17zM18,25H19V26H18zM24,25H25V26H24zM25,25H26V26H25zM26,25H27V26H26zM27,25H28V26H27zM29,25H30V26H29zM30,25H31V26H30zM31,25H32V26H31zM32,25H33V26H32zM36,25H37V26H36zM37,25H38V26H37zM38,25H39V26H38zM39,25H40V26H39zM44,25H45V26H44zM0,26H1V27H0zM2,26H3V27H2zM6,26H7V27H6zM8,26H9V27H8zM9,26H10V27H9zM10,26H11V27H10zM11,26H12V27H11zM12,26H13V27H12zM15,26H16V27H15zM20,26H21V27H20zM21,26H22V27H21zM24,26H25V27H24zM29,26H30V27H29zM30,26H31V27H30zM32,26H33V27H32zM33,26H34V27H33zM34,26H35V27H34zM35,26H36V27H35zM37,26H38V27H37zM39,26H40V27H39zM40,26H41V27H40zM41,26H42V27H41zM43,26H44V27H43zM0,27H1V28H0zM2,27H3V28H2zM5,27H6V28H5zM7,27H8V28H7zM9,27H10V28H9zM10,27H11V28H10zM13,27H14V28H13zM14,27H15V28H14zM21,27H22V28H21zM22,27H23V28H22zM23,27H24V28H23zM24,27H25V28H24zM28,27H29V28H28zM29,27H30V28H29zM30,27H31V28H30zM31,27H32V28H31zM32,27H33V28H32zM33,27H34V28H33zM34,27H35V28H34zM36,27H37V28H36zM38,27H39V28H38zM39,27H40V28H39zM44,27H45V28H44zM1,28H2V29H1zM2,28H3V29H2zM3,28H4V29H3zM4,28H5V29H4zM5,28H6V29H5zM6,28H7V29H6zM8,28H9V29H8zM12,28H13V29H12zM13,28H14V29H13zM15,28H16V29H15zM16,28H17V29H16zM18,28H19V29H18zM19,28H20V29H19zM20,28H21V29H20zM21,28H22V29H21zM24,28H25V29H24zM26,28H27V29H26zM27,28H28V29H27zM30,28H31V29H30zM32,28H33V29H32zM33,28H34V29H33zM36,28H37V29H36zM37,28H38V29H37zM38,28H39V29H38zM41,28H42V29H41zM42,28H43V29H42zM0,29H1V30H0zM2,29H3V30H2zM5,29H6V30H5zM7,29H8V30H7zM8,29H9V30H8zM9,29H10V30H9zM14,29H15V30H14zM15,29H16V30H15zM19,29H20V30H19zM21,29H22V30H21zM24,29H25V30H24zM25,29H26V30H25zM29,29H30V30H29zM30,29H31V30H30zM36,29H37V30H36zM37,29H38V30H37zM38,29H39V30H38zM43,29H44V30H43zM3,30H4V31H3zM4,30H5V31H4zM5,30H6V31H5zM6,30H7V31H6zM8,30H9V31H8zM9,30H10V31H9zM10,30H11V31H10zM12,30H13V31H12zM13,30H14V31H13zM14,30H15V31H14zM15,30H16V31H15zM16,30H17V31H16zM18,30H19V31H18zM19,30H20V31H19zM21,30H22V31H21zM23,30H24V31H23zM26,30H27V31H26zM27,30H28V31H27zM33,30H34V31H33zM34,30H35V31H34zM35,30H36V31H35zM36,30H37V31H36zM40,30H41V31H40zM41,30H42V31H41zM42,30H43V31H42zM43,30H44V31H43zM1,31H2V32H1zM2,31H3V32H2zM8,31H9V32H8zM9,31H10V32H9zM10,31H11V32H10zM11,31H12V32H11zM12,31H13V32H12zM17,31H18V32H17zM19,31H20V32H19zM20,31H21V32H20zM21,31H22V32H21zM22,31H23V32H22zM24,31H25V32H24zM27,31H28V32H27zM29,31H30V32H29zM30,31H31V32H30zM33,31H34V32H33zM36,31H37V32H36zM37,31H38V32H37zM38,31H39V32H38zM0,32H1V33H0zM1,32H2V33H1zM3,32H4V33H3zM6,32H7V33H6zM13,32H14V33H13zM15,32H16V33H15zM18,32H19V33H18zM20,32H21V33H20zM21,32H22V33H21zM25,32H26V33H25zM27,32H28V33H27zM31,32H32V33H31zM32,32H33V33H32zM37,32H38V33H37zM38,32H39V33H38zM40,32H41V33H40zM42,32H43V33H42zM43,32H44V33H43zM44,32H45V33H44zM1,33H2V34H1zM2,33H3V34H2zM4,33H5V34H4zM5,33H6V34H5zM10,33H11V34H10zM13,33H14V34H13zM17,33H18V34H17zM18,33H19V34H18zM21,33H22V34H21zM23,33H24V34H23zM25,33H26V34H25zM26,33H27V34H26zM30,33H31V34H30zM32,33H33V34H32zM33,33H34V34H33zM35,33H36V34H35zM36,33H37V34H36zM37,33H38V34H37zM39,33H40V34H39zM43,33H44V34H43zM4,34H5V35H4zM6,34H7V35H6zM7,34H8V35H7zM11,34H12V35H11zM15,34H16V35H15zM16,34H17V35H16zM21,34H22V35H21zM22,34H23V35H22zM23,34H24V35H23zM25,34H26V35H25zM27,34H28V35H27zM28,34H29V35H28zM29,34H30V35H29zM30,34H31V35H30zM34,34H35V35H34zM35,34H36V35H35zM36,34H37V35H36zM37,34H38V35H37zM39,34H40V35H39zM40,34H41V35H40zM41,34H42V35H41zM43,34H44V35H43zM1,35H2V36H1zM2,35H3V36H2zM3,35H4V36H3zM4,35H5V36H4zM9,35H10V36H9zM10,35H11V36H10zM12,35H13V36H12zM14,35H15V36H14zM16,35H17V36H16zM18,35H19V36H18zM22,35H23V36H22zM28,35H29V36H28zM29,35H30V36H29zM31,35H32V36H31zM32,35H33V36H32zM33,35H34V36H33zM34,35H35V36H34zM37,35H38V36H37zM39,35H40V36H39zM40,35H41V36H40zM0,36H1V37H0zM3,36H4V37H3zM4,36H5V37H4zM6,36H7V37H6zM8,36H9V37H8zM9,36H10V37H9zM11,36H12V37H11zM14,36H15V37H14zM15,36H16V37H15zM16,36H17V37H16zM18,36H19V37H18zM19,36H20V37H19zM20,36H21V37H20zM21,36H22V37H21zM22,36H23V37H22zM23,36H24V37H23zM24,36H25V37H24zM25,36H26V37H25zM26,36H27V37H26zM27,36H28V37H27zM30,36H31V37H30zM32,36H33V37H32zM34,36H35V37H34zM36,36H37V37H36zM37,36H38V37H37zM38,36H39V37H38zM39,36H40V37H39zM40,36H41V37H40zM41,36H42V37H41zM42,36H43V37H42zM43,36H44V37H43zM44,36H45V37H44zM8,37H9V38H8zM16,37H17V38H16zM17,37H18V38H17zM20,37H21V38H20zM24,37H25V38H24zM25,37H26V38H25zM26,37H27V38H26zM29,37H30V38H29zM30,37H31V38H30zM31,37H32V38H31zM33,37H34V38H33zM36,37H37V38H36zM40,37H41V38H40zM42,37H43V38H42zM43,37H44V38H43zM0,38H1V39H0zM1,38H2V39H1zM2,38H3V39H2zM3,38H4V39H3zM4,38H5V39H4zM5,38H6V39H5zM6,38H7V39H6zM8,38H9V39H8zM10,38H11V39H10zM12,38H13V39H12zM13,38H14V39H13zM14,38H15V39H14zM15,38H16V39H15zM16,38H17V39H16zM20,38H21V39H20zM22,38H23V39H22zM24,38H25V39H24zM27,38H28V39H27zM29,38H30V39H29zM30,38H31V39H30zM32,38H33V39H32zM36,38H37V39H36zM38,38H39V39H38zM40,38H41V39H40zM42,38H43V39H42zM0,39H1V40H0zM6,39H7V40H6zM10,39H11V40H10zM14,39H15V40H14zM15,39H16V40H15zM16,39H17V40H16zM18,39H19V40H18zM20,39H21V40H20zM24,39H25V40H24zM28,39H29V40H28zM29,39H30V40H29zM30,39H31V40H30zM32,39H33V40H32zM33,39H34V40H33zM35,39H36V40H35zM36,39H37V40H36zM40,39H41V40H40zM41,39H42V40H41zM43,39H44V40H43zM0,40H1V41H0zM2,40H3V41H2zM3,40H4V41H3zM4,40H5V41H4zM6,40H7V41H6zM8,40H9V41H8zM13,40H14V41H13zM14,40H15V41H14zM17,40H18V41H17zM18,40H19V41H18zM19,40H20V41H19zM20,40H21V41H20zM21,40H22V41H21zM22,40H23V41H22zM23,40H24V41H23zM24,40H25V41H24zM25,40H26V41H25zM30,40H31V41H30zM32,40H33V41H32zM34,40H35V41H34zM36,40H37V41H36zM37,40H38V41H37zM38,40H39V41H38zM39,40H40V41H39zM40,40H41V41H40zM42,40H43V41H42zM43,40H44V41H43zM44,40H45V41H44zM0,41H1V42H0zM2,41H3V42H2zM3,41H4V42H3zM4,41H5V42H4zM6,41H7V42H6zM12,41H13V42H12zM14,41H15V42H14zM15,41H16V42H15zM17,41H18V42H17zM19,41H20V42H19zM27,41H28V42H27zM29,41H30V42H29zM30,41H31V42H30zM31,41H32V42H31zM32,41H33V42H32zM35,41H36V42H35zM36,41H37V42H36zM37,41H38V42H37zM40,41H41V42H40zM42,41H43V42H42zM43,41H44V42H43zM44,41H45V42H44zM0,42H1V43H0zM2,42H3V43H2zM3,42H4V43H3zM4,42H5V43H4zM6,42H7V43H6zM9,42H10V43H9zM11,42H12V43H11zM12,42H13V43H12zM14,42H15V43H14zM17,42H18V43H17zM22,42H23V43H22zM23,42H24V43H23zM24,42H25V43H24zM26,42H27V43H26zM40,42H41V43H40zM41,42H42V43H41zM42,42H43V43H42zM0,43H1V44H0zM6,43H7V44H6zM12,43H13V44H12zM13,43H14V44H13zM14,43H15V44H14zM15,43H16V44H15zM16,43H17V44H16zM17,43H18V44H17zM21,43H22V44H21zM22,43H23V44H22zM23,43H24V44H23zM26,43H27V44H26zM27,43H28V44H27zM29,43H30V44H29zM32,43H33V44H32zM33,43H34V44H33zM34,43H35V44H34zM35,43H36V44H35zM37,43H38V44H37zM39,43H40V44H39zM40,43H41V44H40zM41,43H42V44H41zM42,43H43V44H42zM0,44H1V45H0zM1,44H2V45H1zM2,44H3V45H2zM3,44H4V45H3zM4,44H5V45H4zM5,44H6V45H5zM6,44H7V45H6zM8,44H9V45H8zM11,44H12V45H11zM13,44H14V45H13zM14,44H15V45H14zM17,44H18V45H17zM20,44H21V45H20zM26,44H27V45H26zM27,44H28V45H27zM30,44H31V45H30zM31,44H32V45H31zM32,44H33V45H32zM34,44H35V45H34zM38,44H39V45H38zM41,44H42V45H41zM42,44H43V45H42zM44,44H45V45H44z" style="fill:#000000;fill-opacity:1;fill-rule:nonzero;stroke:none" transform="translate(237.40157,61) scale(3.606299111111111)" /><g id="swiss-cross" transform="translate(305.4890105263158,129.0874405263158) scale(1.305428947368421)"><polygon fill="black" points="18.3,0.7 1.6,0.7 0.7,0.7 0.7,1.6 0.7,18.3 0.7,19.1 1.6,19.1 18.3,19.1 19.1,19.1 19.1,18.3 19.1,1.6 19.1,0.7" /><rect fill="white" height="11" width="3.3" x="8.3" y="4" /><rect fill="white" height="3.3" width="11" x="4.4" y="7.9" /><polygon fill="none" points="0.7,1.6 0.7,18.3 0.7,19.1 1.6,19.1 18.3,19.1 19.1,19.1 19.1,18.3 19.1,1.6 19.1,0.7 18.3,0.7 1.6,0.7 0.7,0.7" stroke="white" stroke-width="1.4357" /></g><text font-family="Arial,Helvetica" font-size="9.0" font-weight="bold" x="237.40157" y="258.66141">Currency</text><text font-family="Arial,Helvetica" font-size="9.0" font-weight="bold" x="279.92125" y="258.66141">Amount</text><text font-family="Arial,Helvetica" font-size="10.0" x="237.40157" y="276.37795">CHF</text><g><line stroke="black" stroke-linecap="square" stroke-width="0.26mm" x1="279.92125" x2="279.92125" y1="269.29133" y2="276.37794" /><line stroke="black" stroke-linecap="square" stroke-width="0.26mm" x1="279.92125" x2="290.55117" y1="269.29133" y2="269.29133" /><line stroke="black" stroke-linecap="square" stroke-width="0.26mm" x1="279.92125" x2="279.92125" y1="322.44094" y2="315.35433" /><line stroke="black" stroke-linecap="square" stroke-width="0.26mm" x1="279.92125" x2="290.55117" y1="322.44094" y2="322.44094" /><line stroke="black" stroke-linecap="square" stroke-width="0.26mm" x1="411.02361" x2="421.65353" y1="269.29133" y2="269.29133" /><line stroke="black" stroke-linecap="square" stroke-width="0.26mm" x1="421.65353" x2="421.65353" y1="269.29133" y2="276.37794" /><line stroke="black" stroke-linecap="square" stroke-width="0.26mm" x1="411.02361" x2="421.65353" y1="322.44094" y2="322.44094" /><line stroke="black" stroke-linecap="square" stroke-width="0.26mm" x1="421.65353" x2="421.65353" y1="322.44094" y2="315.35433" /></g><text font-family="Arial,Helvetica" font-size="9.0" font-weight="bold" x="418.11023" y="38.97638">Account / Payable to</text><text font-family="Arial,Helvetica" font-size="10.0" x="418.11023" y="51.37795">CH58 0079 1123 0008 8901 2</text><text font-family="Arial,Helvetica" font-size="10.0" x="418.11023" y="63.77953">John Doe</text><text font-family="Arial,Helvetica" font-size="10.0" x="418.11023" y="76.1811">CH-2501 Biel</text><text font-family="Arial,Helvetica" font-size="9.0" font-weight="bold" x="418.11023" y="99.2126">Payable by (name/address)</text><g><line stroke="black" stroke-linecap="square" stroke-width="0.26mm" x1="418.11023" x2="418.11023" y1="111.61417" y2="118.70078" /><line stroke="black" stroke-linecap="square" stroke-width="0.26mm" x1="418.11023" x2="428.74015" y1="111.61417" y2="111.61417" /><line stroke="black" stroke-linecap="square" stroke-width="0.26mm" x1="418.11023" x2="418.11023" y1="200.19684" y2="193.11023" /><line stroke="black" stroke-linecap="square" stroke-width="0.26mm" x1="418.11023" x2="428.74015" y1="200.19684" y2="200.19684" /><line stroke="black" stroke-linecap="square" stroke-width="0.26mm" x1="637.79526" x2="648.42518" y1="111.61417" y2="111.61417" /><line stroke="black" stroke-linecap="square" stroke-width="0.26mm" x1="648.42518" x2="648.42518" y1="111.61417" y2="118.70078" /><line stroke="black" stroke-linecap="square" stroke-width="0.26mm" x1="637.79526" x2="648.42518" y1="200.19684" y2="200.19684" /><line stroke="black" stroke-linecap="square" stroke-width="0.26mm" x1="648.42518" x2="648.42518" y1="200.19684" y2="193.11023" /></g></g></svg>