<?xml version="1.0" encoding="utf-8" ?>
<svg baseProfile="full" height="106mm" version="1.1" viewBox="0 0 744.094470 375.590540" width="210mm" xmlns="http://www.w3.org/2000/svg" xmlns:ev="http://www.w3.org/2001/xml-events" xmlns:xlink="http://www.w3.org/1999/xlink"><defs /><rect fill="white" height="100%" width="100%" x="0" y="0" /><g><text font-family="Arial,Helvetica" font-size="12" font-weight="bold" x="17.71654" y="38.97638">Receipt</text><text font-family="Arial,Helvetica" font-size="8" font-weight="bold" x="17.71654" y="56.69291">Account / Payable to</text><text font-family="Arial,Helvetica" font-size="10" x="17.71654" y="69.09449">CH58 0079 1123 0008 8901 2</text><text font-family="Arial,Helvetica" font-size="10" x="17.71654" y="81.49606">Jane</text><text font-family="Arial,Helvetica" font-size="10" x="17.71654" y="93.89764">CH-1000 Lausanne</text><text font-family="Arial,Helvetica" font-size="8" font-weight="bold" x="17.71654" y="109.84252">Payable by (name/address)</text><g><line stroke="black" stroke-linecap="square" stroke-width="0.26mm" x1="17.71654" x2="17.71654" y1="122.24409" y2="129.3307" /><line stroke="black" stroke-linecap="square" stroke-width="0.26mm" x1="17.71654" x2="28.34646" y1="122.24409" y2="122.24409" /><line stroke="black" stroke-linecap="square" stroke-width="0.26mm" x1="17.71654" x2="17.71654" y1="210.82676" y2="203.74015" /><line stroke="black" stroke-linecap="square" stroke-width="0.26mm" x1="17.71654" x2="28.34646" y1="210.82676" y2="210.82676" /><line stroke="black" stroke-linecap="square" stroke-width="0.26mm" x1="191.33858" x2="201.9685" y1="122.24409" y2="122.24409" /><line stroke="black" stroke-linecap="square" stroke-width="0.26mm" x1="201.9685" x2="201.9685" y1="122.24409" y2="129.3307" /><line stroke="black" stroke-linecap="square" stroke-width="0.26mm" x1="191.33858" x2="201.9685" y1="210.82676" y2="210.82676" /><line stroke="black" stroke-linecap="square" stroke-width="0.26mm" x1="201.9685" x2="201.9685" y1="210.82676" y2="203.74015" /></g><text font-family="Arial,Helvetica" font-size="8" font-weight="bold" x="17.71654" y="258.66141">Currency</text><text font-family="Arial,Helvetica" font-size="8" font-weight="bold" x="60.23622" y="258.66141">Amount</text><text font-family="Arial,Helvetica" font-size="10" x="17.71654" y="276.37795">CHF</text><text font-family="Arial,Helvetica" font-size="10" x="60.23622" y="276.37795">22.10</text><text font-family="Arial,Helvetica" font-size="8" font-weight="bold" text-anchor="end" x="201.96849" y="308.26771">Acceptance point</text><line fill="none" stroke="black" stroke-dasharray="2 2" x1="0" x2="744.09447" y1="4.04291" y2="4.04291" /><path d="m 0.764814,4.283977 c 0.337358,0.143009 0.862476,-0.115279 0.775145,-0.523225 -0.145918,-0.497473 -0.970289,-0.497475 -1.116209,-2e-6 -0.0636,0.23988 0.128719,0.447618 0.341064,0.523227 z m 3.875732,-1.917196 c 1.069702,0.434082 2.139405,0.868164 3.209107,1.302246 -0.295734,0.396158 -0.866482,0.368049 -1.293405,0.239509 -0.876475,-0.260334 -1.71099,-0.639564 -2.563602,-0.966653 -0.132426,-0.04295 -0.265139,-0.124595 -0.397393,-0.144327 -0.549814,0.22297 -1.09134,0.477143 -1.667719,0.62213 -0.07324,0.232838 0.150307,0.589809 -0.07687,0.842328 -0.311347,0.532157 -1.113542,0.624698 -1.561273,0.213165 -0.384914,-0.301216 -0.379442,-0.940948 7e-6,-1.245402 0.216628,-0.191603 0.506973,-0.286636 0.794095,-0.258382 0.496639,0.01219 1.013014,-0.04849 1.453829,-0.289388 0.437126,-0.238777 0.07006,-0.726966 -0.300853,-0.765416 -0.420775,-0.157424 -0.870816,-0.155853 -1.312747,-0.158623 -0.527075,-0.0016 -1.039244,-0.509731 -0.904342,-1.051293 0.137956,-0.620793 0.952738,-0.891064 1.47649,-0.573851 0.371484,0.188118 0.594679,0.675747 0.390321,1.062196 0.09829,0.262762 0.586716,0.204086 0.826177,0.378204 0.301582,0.119237 0.600056,0.246109 0.899816,0.36981 0.89919,-0.349142 1.785653,-0.732692 2.698347,-1.045565 0.459138,-0.152333 1.033472,-0.283325 1.442046,0.05643 0.217451,0.135635 -0.06954,0.160294 -0.174725,0.220936 -0.979101,0.397316 -1.958202,0.794633 -2.937303,1.19195 z m -3.44165,-1.917196 c -0.338434,-0.14399 -0.861225,0.116943 -0.775146,0.524517 0.143274,0.477916 0.915235,0.499056 1.10329,0.04328 0.09674,-0.247849 -0.09989,-0.490324 -0.328144,-0.567796 z" style="fill:#000000;fill-opacity:1;fill-rule:nonzero;stroke:none" transform="scale(1.9) translate(24,0)" /><line fill="none" stroke="black" stroke-dasharray="2 2" x1="219.68503" x2="219.68503" y1="3.54331" y2="372.04724" /><path d="m 0.764814,4.283977 c 0.337358,0.143009 0.862476,-0.115279 0.775145,-0.523225 -0.145918,-0.497473 -0.970289,-0.497475 -1.116209,-2e-6 -0.0636,0.23988 0.128719,0.447618 0.341064,0.523227 z m 3.875732,-1.917196 c 1.069702,0.434082 2.139405,0.868164 3.209107,1.302246 -0.295734,0.396158 -0.866482,0.368049 -1.293405,0.239509 -0.876475,-0.260334 -1.71099,-0.639564 -2.563602,-0.966653 -0.132426,-0.04295 -0.265139,-0.124595 -0.397393,-0.144327 -0.549814,0.22297 -1.09134,0.477143 -1.667719,0.62213 -0.07324,0.232838 0.150307,0.589809 -0.07687,0.842328 -0.311347,0.532157 -1.113542,0.624698 -1.561273,0.213165 -0.384914,-0.301216 -0.379442,-0.940948 7e-6,-1.245402 0.216628,-0.191603 0.506973,-0.286636 0.794095,-0.258382 0.496639,0.01219 1.013014,-0.04849 1.453829,-0.289388 0.437126,-0.238777 0.07006,-0.726966 -0.300853,-0.765416 -0.420775,-0.157424 -0.870816,-0.155853 -1.312747,-0.158623 -0.527075,-0.0016 -1.039244,-0.509731 -0.904342,-1.051293 0.137956,-0.620793 0.952738,-0.891064 1.47649,-0.573851 0.371484,0.188118 0.594679,0.675747 0.390321,1.062196 0.09829,0.262762 0.586716,0.204086 0.826177,0.378204 0.301582,0.119237 0.600056,0.246109 0.899816,0.36981 0.89919,-0.349142 1.785653,-0.732692 2.698347,-1.045565 0.459138,-0.152333 1.033472,-0.283325 1.442046,0.05643 0.217451,0.135635 -0.06954,0.160294 -0.174725,0.220936 -0.979101,0.397316 -1.958202,0.794633 -2.937303,1.19195 z m -3.44165,-1.917196 c -0.338434,-0.14399 -0.861225,0.116943 -0.775146,0.524517 0.143274,0.477916 0.915235,0.499056 1.10329,0.04328 0.09674,-0.247849 -0.09989,-0.490324 -0.328144,-0.567796 z" style="fill:#000000;fill-opacity:1;fill-rule:nonzero;stroke:none" transform="scale(1.9) translate(118,40) rotate(90)" /><text font-family="Arial,Helvetica" font-size="12" font-weight="bold" x="237.40157" y="38.97638">Payment part</text><path d="M0,0H1V1H0zM1,0H2V1H1zM2,0H3V1H2zM3,0H4V1H3zM4,0H5V1H4zM5,0H6V1H5zM6,0H7V1H6zM10,0H11V1H10zM13,0H14V1H13zM14,0H15V1H14zM15,0H16V1H15zM16,0H17V1H16zM18,0H19V1H18zM19,0H20V1H19zM20,0H21V1H20zM22,0H23V1H22zM23,0H24V1H23zM24,0H25V1H24zM25,0H26V1H25zM26,0H27V1H26zM28,0H29V1H28zM29,0H30V1H29zM30,0H31V1H30zM32,0H33V1H32zM34,0H35V1H34zM35,0H36V1H35zM36,0H37V1H36zM37,0H38V1H37zM40,0H41V1H40zM42,0H43V1H42zM43,0H44V1H43zM44,0H45V1H44zM45,0H46V1H45zM46,0H47V1H46zM47,0H48V1H47zM48,0H49V1H48zM0,1H1V2H0zM6,1H7V2H6zM8,1H9V2H8zM9,1H10V2H9zM10,1H11V2H10zM11,1H12V2H11zM13,1H14V2H13zM16,1H17V2H16zM18,1H19V2H18zM19,1H20V2H19zM20,1H21V2H20zM22,1H23V2H22zM24,1H25V2H24zM25,1H26V2H25zM29,1H30V2H29zM30,1H31V2H30zM33,1H34V2H33zM37,1H38V2H37zM38,1H39V2H38zM39,1H40V2H39zM40,1H41V2H40zM42,1H43V2H42zM48,1H49V2H48zM0,2H1V3H0zM2,2H3V3H2zM3,2H4V3H3zM4,2H5V3H4zM6,2H7V3H6zM8,2H9V3H8zM9,2H10V3H9zM10,2H11V3H10zM11,2H12V3H11zM12,2H13V3H12zM15,2H16V3H15zM17,2H18V3H17zM20,2H21V3H20zM21,2H22V3H21zM22,2H23V3H22zM23,2H24V3H23zM24,2H25V3H24zM27,2H28V3H27zM28,2H29V3H28zM30,2H31V3H30zM32,2H33V3H32zM33,2H34V3H33zM34,2H35V3H34zM39,2H40V3H39zM40,2H41V3H40zM42,2H43V3H42zM44,2H45V3H44zM45,2H46V3H45zM46,2H47V3H46zM48,2H49V3H48zM0,3H1V4H0zM2,3H3V4H2zM3,3H4V4H3zM4,3H5V4H4zM6,3H7V4H6zM8,3H9V4H8zM9,3H10V4H9zM12,3H13V4H12zM13,3H14V4H13zM14,3H15V4H14zM15,3H16V4H15zM16,3H17V4H16zM17,3H18V4H17zM18,3H19V4H18zM19,3H20V4H19zM20,3H21V4H20zM22,3H23V4H22zM24,3H25V4H24zM25,3H26V4H25zM26,3H27V4H26zM27,3H28V4H27zM28,3H29V4H28zM31,3H32V4H31zM32,3H33V4H32zM35,3H36V4H35zM36,3H37V4H36zM39,3H40V4H39zM42,3H43V4H42zM44,3H45V4H44zM45,3H46V4H45zM46,3H47V4H46zM48,3H49V4H48zM0,4H1V5H0zM2,4H3V5H2zM3,4H4V5H3zM4,4H5V5H4zM6,4H7V5H6zM11,4H12V5H11zM12,4H13V5H12zM14,4H15V5H14zM18,4H19V5H18zM21,4H22V5H21zM22,4H23V5H22zM23,4H24V5H23zM24,4H25V5H24zM25,4H26V5H25zM26,4H27V5H26zM27,4H28V5H27zM29,4H30V5H29zM33,4H34V5H33zM36,4H37V5H36zM42,4H43V5H42zM44,4H45V5H44zM45,4H46V5H45zM46,4H47V5H46zM48,4H49V5H48zM0,5H1V6H0zM6,5H7V6H6zM10,5H11V6H10zM12,5H13V6H12zM16,5H17V6H16zM17,5H18V6H17zM19,5H20V6H19zM21,5H22V6H21zM22,5H23V6H22zM26,5H27V6H26zM34,5H35V6H34zM36,5H37V6H36zM38,5H39V6H38zM42,5H43V6H42zM48,5H49V6H48zM0,6H1V7H0zM1,6H2V7H1zM2,6H3V7H2zM3,6H4V7H3zM4,6H5V7H4zM5,6H6V7H5zM6,6H7V7H6zM8,6H9V7H8zM10,6H11V7H10zM12,6H13V7H12zM14,6H15V7H14zM16,6H17V7H16zM18,6H19V7H18zM20,6H21V7H20zM22,6H23V7H22zM24,6H25V7H24zM26,6H27V7H26zM28,6H29V7H28zM30,6H31V7H30zM32,6H33V7H32zM34,6H35V7H34zM36,6H37V7H36zM38,6H39V7H38zM40,6H41V7H40zM42,6H43V7H42zM43,6H44V7H43zM44,6H45V7H44zM45,6H46V7H45zM46,6H47V7H46zM47,6H48V7H47zM48,6H49V7H48zM8,7H9V8H8zM9,7H10V8H9zM11,7H12V8H11zM12,7H13V8H12zM13,7H14V8H13zM16,7H17V8H16zM17,7H18V8H17zM22,7H23V8H22zM26,7H27V8H26zM28,7H29V8H28zM30,7H31V8H30zM31,7H32V8H31zM32,7H33V8H32zM38,7H39V8H38zM39,7H40V8H39zM40,7H41V8H40zM0,8H1V9H0zM6,8H7V9H6zM8,8H9V9H8zM9,8H10V9H9zM10,8H11V9H10zM12,8H13V9H12zM13,8H14V9H13zM15,8H16V9H15zM16,8H17V9H16zM17,8H18V9H17zM19,8H20V9H19zM22,8H23V9H22zM23,8H24V9H23zM24,8H25V9H24zM25,8H26V9H25zM26,8H27V9H26zM29,8H30V9H29zM31,8H32V9H31zM34,8H35V9H34zM35,8H36V9H35zM36,8H37V9H36zM37,8H38V9H37zM39,8H40V9H39zM41,8H42V9H41zM42,8H43V9H42zM45,8H46V9H45zM46,8H47V9H46zM47,8H48V9H47zM0,9H1V10H0zM2,9H3V10H2zM4,9H5V10H4zM5,9H6V10H5zM7,9H8V10H7zM8,9H9V10H8zM9,9H10V10H9zM10,9H11V10H10zM11,9H12V10H11zM12,9H13V10H12zM14,9H15V10H14zM19,9H20V10H19zM20,9H21V10H20zM22,9H23V10H22zM23,9H24V10H23zM24,9H25V10H24zM26,9H27V10H26zM28,9H29V10H28zM30,9H31V10H30zM31,9H32V10H31zM34,9H35V10H34zM40,9H41V10H40zM43,9H44V10H43zM46,9H47V10H46zM47,9H48V10H47zM0,10H1V11H0zM1,10H2V11H1zM2,10H3V11H2zM3,10H4V11H3zM6,10H7V11H6zM7,10H8V11H7zM8,10H9V11H8zM9,10H10V11H9zM10,10H11V11H10zM14,10H15V11H14zM16,10H17V11H16zM18,10H19V11H18zM21,10H22V11H21zM22,10H23V11H22zM24,10H25V11H24zM27,10H28V11H27zM33,10H34V11H33zM36,10H37V11H36zM41,10H42V11H41zM44,10H45V11H44zM45,10H46V11H45zM47,10H48V11H47zM48,10H49V11H48zM1,11H2V12H1zM3,11H4V12H3zM7,11H8V12H7zM11,11H12V12H11zM13,11H14V12H13zM17,11H18V12H17zM18,11H19V12H18zM20,11H21V12H20zM21,11H22V12H21zM23,11H24V12H23zM26,11H27V12H26zM27,11H28V12H27zM28,11H29V12H28zM34,11H35V12H34zM40,11H41V12H40zM42,11H43V12H42zM43,11H44V12H43zM45,11H46V12H45zM47,11H48V12H47zM0,12H1V13H0zM1,12H2V13H1zM2,12H3V13H2zM3,12H4V13H3zM6,12H7V13H6zM7,12H8V13H7zM8,12H9V13H8zM11,12H12V13H11zM15,12H16V13H15zM19,12H20V13H19zM20,12H21V13H20zM24,12H25V13H24zM25,12H26V13H25zM26,12H27V13H26zM28,12H29V13H28zM29,12H30V13H29zM30,12H31V13H30zM31,12H32V13H31zM32,12H33V13H32zM33,12H34V13H33zM34,12H35V13H34zM35,12H36V13H35zM37,12H38V13H37zM38,12H39V13H38zM39,12H40V13H39zM40,12H41V13H40zM41,12H42V13H41zM42,12H43V13H42zM43,12H44V13H43zM45,12H46V13H45zM47,12H48V13H47zM0,13H1V14H0zM2,13H3V14H2zM3,13H4V14H3zM4,13H5V14H4zM12,13H13V14H12zM13,13H14V14H13zM18,13H19V14H18zM19,13H20V14H19zM20,13H21V14H20zM21,13H22V14H21zM22,13H23V14H22zM25,13H26V14H25zM27,13H28V14H27zM29,13H30V14H29zM30,13H31V14H30zM32,13H33V14H32zM33,13H34V14H33zM36,13H37V14H36zM37,13H38V14H37zM40,13H41V14H40zM42,13H43V14H42zM43,13H44V14H43zM46,13H47V14H46zM47,13H48V14H47zM48,13H49V14H48zM0,14H1V15H0zM1,14H2V15H1zM3,14H4V15H3zM4,14H5V15H4zM5,14H6V15H5zM6,14H7V15H6zM8,14H9V15H8zM9,14H10V15H9zM11,14H12V15H11zM13,14H14V15H13zM15,14H16V15H15zM18,14H19V15H18zM20,14H21V15H20zM21,14H22V15H21zM22,14H23V15H22zM24,14H25V15H24zM25,14H26V15H25zM27,14H28V15H27zM29,14H30V15H29zM30,14H31V15H30zM36,14H37V15H36zM38,14H39V15H38zM41,14H42V15H41zM46,14H47V15H46zM47,14H48V15H47zM48,14H49V15H48zM2,15H3V16H2zM3,15H4V16H3zM4,15H5V16H4zM7,15H8V16H7zM8,15H9V16H8zM10,15H11V16H10zM11,15H12V16H11zM13,15H14V16H13zM14,15H15V16H14zM16,15H17V16H16zM18,15H19V16H18zM19,15H20V16H19zM21,15H22V16H21zM28,15H29V16H28zM29,15H30V16H29zM32,15H33V16H32zM34,15H35V16H34zM38,15H39V16H38zM47,15H48V16H47zM0,16H1V17H0zM1,16H2V17H1zM2,16H3V17H2zM4,16H5V17H4zM5,16H6V17H5zM6,16H7V17H6zM7,16H8V17H7zM8,16H9V17H8zM10,16H11V17H10zM11,16H12V17H11zM12,16H13V17H12zM13,16H14V17H13zM14,16H15V17H14zM18,16H19V17H18zM20,16H21V17H20zM21,16H22V17H21zM23,16H24V17H23zM24,16H25V17H24zM28,16H29V17H28zM31,16H32V17H31zM32,16H33V17H32zM33,16H34V17H33zM34,16H35V17H34zM35,16H36V17H35zM36,16H37V17H36zM37,16H38V17H37zM38,16H39V17H38zM39,16H40V17H39zM42,16H43V17H42zM43,16H44V17H43zM48,16H49V17H48zM1,17H2V18H1zM9,17H10V18H9zM11,17H12V18H11zM12,17H13V18H12zM13,17H14V18H13zM14,17H15V18H14zM16,17H17V18H16zM18,17H19V18H18zM19,17H20V18H19zM22,17H23V18H22zM24,17H25V18H24zM25,17H26V18H25zM28,17H29V18H28zM29,17H30V18H29zM32,17H33V18H32zM36,17H37V18H36zM40,17H41V18H40zM41,17H42V18H41zM42,17H43V18H42zM0,18H1V19H0zM3,18H4V19H3zM5,18H6V19H5zM6,18H7V19H6zM7,18H8V19H7zM8,18H9V19H8zM10,18H11V19H10zM16,18H17V19H16zM19,18H20V19H19zM20,18H21V19H20zM21,18H22V19H21zM22,18H23V19H22zM23,18H24V19H23zM24,18H25V19H24zM26,18H27V19H26zM29,18H30V19H29zM30,18H31V19H30zM33,18H34V19H33zM35,18H36V19H35zM38,18H39V19H38zM40,18H41V19H40zM42,18H43V19H42zM43,18H44V19H43zM44,18H45V19H44zM45,18H46V19H45zM46,18H47V19H46zM47,18H48V19H47zM48,18H49V19H48zM0,19H1V20H0zM3,19H4V20H3zM5,19H6V20H5zM7,19H8V20H7zM8,19H9V20H8zM9,19H10V20H9zM10,19H11V20H10zM12,19H13V20H12zM13,19H14V20H13zM17,19H18V20H17zM18,19H19V20H18zM21,19H22V20H21zM23,19H24V20H23zM25,19H26V20H25zM26,19H27V20H26zM27,19H28V20H27zM30,19H31V20H30zM31,19H32V20H31zM33,19H34V20H33zM34,19H35V20H34zM35,19H36V20H35zM38,19H39V20H38zM42,19H43V20H42zM43,19H44V20H43zM44,19H45V20H44zM45,19H46V20H45zM47,19H48V20H47zM3,20H4V21H3zM6,20H7V21H6zM7,20H8V21H7zM11,20H12V21H11zM12,20H13V21H12zM19,20H20V21H19zM24,20H25V21H24zM26,20H27V21H26zM30,20H31V21H30zM31,20H32V21H31zM36,20H37V21H36zM38,20H39V21H38zM39,20H40V21H39zM41,20H42V21H41zM42,20H43V21H42zM45,20H46V21H45zM48,20H49V21H48zM3,21H4V22H3zM4,21H5V22H4zM7,21H8V22H7zM9,21H10V22H9zM11,21H12V22H11zM14,21H15V22H14zM15,21H16V22H15zM18,21H19V22H18zM19,21H20V22H19zM20,21H21V22H20zM22,21H23V22H22zM23,21H24V22H23zM25,21H26V22H25zM28,21H29V22H28zM32,21H33V22H32zM34,21H35V22H34zM38,21H39V22H38zM40,21H41V22H40zM46,21H47V22H46zM47,21H48V22H47zM48,21H49V22H48zM0,22H1V23H0zM4,22H5V23H4zM5,22H6V23H5zM6,22H7V23H6zM7,22H8V23H7zM8,22H9V23H8zM9,22H10V23H9zM11,22H12V23H11zM12,22H13V23H12zM13,22H14V23H13zM14,22H15V23H14zM17,22H18V23H17zM21,22H22V23H21zM22,22H23V23H22zM23,22H24V23H23zM24,22H25V23H24zM25,22H26V23H25zM26,22H27V23H26zM27,22H28V23H27zM28,22H29V23H28zM29,22H30V23H29zM32,22H33V23H32zM36,22H37V23H36zM37,22H38V23H37zM38,22H39V23H38zM39,22H40V23H39zM40,22H41V23H40zM41,22H42V23H41zM42,22H43V23H42zM43,22H44V23H43zM44,22H45V23H44zM46,22H47V23H46zM47,22H48V23H47zM48,22H49V23H48zM0,23H1V24H0zM2,23H3V24H2zM4,23H5V24H4zM8,23H9V24H8zM9,23H10V24H9zM10,23H11V24H10zM12,23H13V24H12zM13,23H14V24H13zM14,23H15V24H14zM15,23H16V24H15zM16,23H17V24H16zM20,23H21V24H20zM22,23H23V24H22zM26,23H27V24H26zM31,23H32V24H31zM32,23H33V24H32zM34,23H35V24H34zM35,23H36V24H35zM36,23H37V24H36zM40,23H41V24H40zM44,23H45V24H44zM48,23H49V24H48zM1,24H2V25H1zM2,24H3V25H2zM4,24H5V25H4zM6,24H7V25H6zM8,24H9V25H8zM12,24H13V25H12zM13,24H14V25H13zM14,24H15V25H14zM15,24H16V25H15zM17,24H18V25H17zM20,24H21V25H20zM21,24H22V25H21zM22,24H23V25H22zM24,24H25V25H24zM26,24H27V25H26zM28,24H29V25H28zM29,24H30V25H29zM30,24H31V25H30zM32,24H33V25H32zM36,24H37V25H36zM38,24H39V25H38zM39,24H40V25H39zM40,24H41V25H40zM42,24H43V25H42zM44,24H45V25H44zM45,24H46V25H45zM47,24H48V25H47zM1,25H2V26H1zM4,25H5V26H4zM8,25H9V26H8zM9,25H10V26H9zM12,25H13V26H12zM13,25H14V26H13zM14,25H15V26H14zM16,25H17V26H16zM17,25H18V26H17zM19,25H20V26H19zM21,25H22V26H21zM22,25H23V26H22zM26,25H27V26H26zM28,25H29V26H28zM29,25H30V26H29zM30,25H31V26H30zM31,25H32V26H31zM32,25H33V26H32zM34,25H35V26H34zM36,25H37V26H36zM38,25H39V26H38zM40,25H41V26H40zM44,25H45V26H44zM46,25H47V26H46zM48,25H49V26H48zM0,26H1V27H0zM2,26H3V27H2zM3,26H4V27H3zM4,26H5V27H4zM5,26H6V27H5zM6,26H7V27H6zM7,26H8V27H7zM8,26H9V27H8zM13,26H14V27H13zM14,26H15V27H14zM18,26H19V27H18zM22,26H23V27H22zM23,26H24V27H23zM24,26H25V27H24zM25,26H26V27H25zM26,26H27V27H26zM27,26H28V27H27zM28,26H29V27H28zM32,26H33V27H32zM33,26H34V27H33zM34,26H35V27H34zM40,26H41V27H40zM41,26H42V27H41zM42,26H43V27H42zM43,26H44V27H43zM44,26H45V27H44zM45,26H46V27H45zM48,26H49V27H48zM0,27H1V28H0zM2,27H3V28H2zM4,27H5V28H4zM5,27H6V28H5zM8,27H9V28H8zM9,27H10V28H9zM11,27H12V28H11zM12,27H13V28H12zM14,27H15V28H14zM16,27H17V28H16zM17,27H18V28H17zM18,27H19V28H18zM21,27H22V28H21zM22,27H23V28H22zM24,27H25V28H24zM26,27H27V28H26zM28,27H29V28H28zM30,27H31V28H30zM34,27H35V28H34zM40,27H41V28H40zM41,27H42V28H41zM42,27H43V28H42zM45,27H46V28H45zM46,27H47V28H46zM47,27H48V28H47zM1,28H2V29H1zM2,28H3V29H2zM3,28H4V29H3zM5,28H6V29H5zM6,28H7V29H6zM7,28H8V29H7zM9,28H10V29H9zM10,28H11V29H10zM11,28H12V29H11zM15,28H16V29H15zM16,28H17V29H16zM17,28H18V29H17zM19,28H20V29H19zM24,28H25V29H24zM30,28H31V29H30zM32,28H33V29H32zM33,28H34V29H33zM36,28H37V29H36zM40,28H41V29H40zM43,28H44V29H43zM48,28H49V29H48zM2,29H3V30H2zM3,29H4V30H3zM7,29H8V30H7zM9,29H10V30H9zM10,29H11V30H10zM12,29H13V30H12zM14,29H15V30H14zM15,29H16V30H15zM17,29H18V30H17zM18,29H19V30H18zM23,29H24V30H23zM29,29H30V30H29zM30,29H31V30H30zM33,29H34V30H33zM37,29H38V30H37zM39,29H40V30H39zM41,29H42V30H41zM44,29H45V30H44zM46,29H47V30H46zM47,29H48V30H47zM48,29H49V30H48zM0,30H1V31H0zM1,30H2V31H1zM4,30H5V31H4zM5,30H6V31H5zM6,30H7V31H6zM8,30H9V31H8zM10,30H11V31H10zM12,30H13V31H12zM14,30H15V31H14zM16,30H17V31H16zM18,30H19V31H18zM20,30H21V31H20zM23,30H24V31H23zM25,30H26V31H25zM26,30H27V31H26zM27,30H28V31H27zM28,30H29V31H28zM29,30H30V31H29zM31,30H32V31H31zM32,30H33V31H32zM33,30H34V31H33zM35,30H36V31H35zM38,30H39V31H38zM40,30H41V31H40zM42,30H43V31H42zM48,30H49V31H48zM0,31H1V32H0zM3,31H4V32H3zM4,31H5V32H4zM9,31H10V32H9zM10,31H11V32H10zM13,31H14V32H13zM14,31H15V32H14zM15,31H16V32H15zM16,31H17V32H16zM17,31H18V32H17zM22,31H23V32H22zM23,31H24V32H23zM26,31H27V32H26zM27,31H28V32H27zM30,31H31V32H30zM34,31H35V32H34zM38,31H39V32H38zM42,31H43V32H42zM46,31H47V32H46zM0,32H1V33H0zM1,32H2V33H1zM3,32H4V33H3zM6,32H7V33H6zM7,32H8V33H7zM8,32H9V33H8zM9,32H10V33H9zM12,32H13V33H12zM14,32H15V33H14zM16,32H17V33H16zM19,32H20V33H19zM21,32H22V33H21zM23,32H24V33H23zM24,32H25V33H24zM27,32H28V33H27zM29,32H30V33H29zM30,32H31V33H30zM33,32H34V33H33zM34,32H35V33H34zM36,32H37V33H36zM37,32H38V33H37zM38,32H39V33H38zM40,32H41V33H40zM42,32H43V33H42zM43,32H44V33H43zM45,32H46V33H45zM46,32H47V33H46zM47,32H48V33H47zM2,33H3V34H2zM7,33H8V34H7zM8,33H9V34H8zM10,33H11V34H10zM12,33H13V34H12zM13,33H14V34H13zM14,33H15V34H14zM15,33H16V34H15zM16,33H17V34H16zM18,33H19V34H18zM19,33H20V34H19zM20,33H21V34H20zM23,33H24V34H23zM24,33H25V34H24zM26,33H27V34H26zM27,33H28V34H27zM28,33H29V34H28zM30,33H31V34H30zM32,33H33V34H32zM35,33H36V34H35zM37,33H38V34H37zM38,33H39V34H38zM40,33H41V34H40zM43,33H44V34H43zM44,33H45V34H44zM46,33H47V34H46zM1,34H2V35H1zM2,34H3V35H2zM4,34H5V35H4zM5,34H6V35H5zM6,34H7V35H6zM7,34H8V35H7zM10,34H11V35H10zM12,34H13V35H12zM13,34H14V35H13zM15,34H16V35H15zM18,34H19V35H18zM21,34H22V35H21zM24,34H25V35H24zM25,34H26V35H25zM27,34H28V35H27zM29,34H30V35H29zM30,34H31V35H30zM33,34H34V35H33zM36,34H37V35H36zM37,34H38V35H37zM38,34H39V35H38zM39,34H40V35H39zM40,34H41V35H40zM42,34H43V35H42zM46,34H47V35H46zM0,35H1V36H0zM1,35H2V36H1zM2,35H3V36H2zM4,35H5V36H4zM5,35H6V36H5zM7,35H8V36H7zM8,35H9V36H8zM10,35H11V36H10zM11,35H12V36H11zM12,35H13V36H12zM13,35H14V36H13zM14,35H15V36H14zM15,35H16V36H15zM17,35H18V36H17zM20,35H21V36H20zM22,35H23V36H22zM26,35H27V36H26zM28,35H29V36H28zM32,35H33V36H32zM33,35H34V36H33zM34,35H35V36H34zM36,35H37V36H36zM40,35H41V36H40zM41,35H42V36H41zM44,35H45V36H44zM47,35H48V36H47zM0,36H1V37H0zM2,36H3V37H2zM3,36H4V37H3zM6,36H7V37H6zM7,36H8V37H7zM11,36H12V37H11zM12,36H13V37H12zM13,36H14V37H13zM16,36H17V37H16zM17,36H18V37H17zM19,36H20V37H19zM22,36H23V37H22zM24,36H25V37H24zM25,36H26V37H25zM26,36H27V37H26zM28,36H29V37H28zM29,36H30V37H29zM32,36H33V37H32zM34,36H35V37H34zM36,36H37V37H36zM38,36H39V37H38zM39,36H40V37H39zM40,36H41V37H40zM41,36H42V37H41zM42,36H43V37H42zM44,36H45V37H44zM45,36H46V37H45zM46,36H47V37H46zM47,36H48V37H47zM48,36H49V37H48zM0,37H1V38H0zM4,37H5V38H4zM9,37H10V38H9zM15,37H16V38H15zM17,37H18V38H17zM19,37H20V38H19zM21,37H22V38H21zM23,37H24V38H23zM24,37H25V38H24zM30,37H31V38H30zM42,37H43V38H42zM43,37H44V38H43zM46,37H47V38H46zM1,38H2V39H1zM5,38H6V39H5zM6,38H7V39H6zM7,38H8V39H7zM8,38H9V39H8zM9,38H10V39H9zM11,38H12V39H11zM12,38H13V39H12zM16,38H17V39H16zM17,38H18V39H17zM18,38H19V39H18zM21,38H22V39H21zM24,38H25V39H24zM25,38H26V39H25zM27,38H28V39H27zM30,38H31V39H30zM33,38H34V39H33zM34,38H35V39H34zM40,38H41V39H40zM41,38H42V39H41zM42,38H43V39H42zM45,38H46V39H45zM47,38H48V39H47zM48,38H49V39H48zM1,39H2V40H1zM2,39H3V40H2zM3,39H4V40H3zM10,39H11V40H10zM11,39H12V40H11zM12,39H13V40H12zM13,39H14V40H13zM14,39H15V40H14zM16,39H17V40H16zM20,39H21V40H20zM21,39H22V40H21zM27,39H28V40H27zM28,39H29V40H28zM32,39H33V40H32zM38,39H39V40H38zM39,39H40V40H39zM40,39H41V40H40zM45,39H46V40H45zM46,39H47V40H46zM48,39H49V40H48zM0,40H1V41H0zM1,40H2V41H1zM2,40H3V41H2zM6,40H7V41H6zM8,40H9V41H8zM10,40H11V41H10zM12,40H13V41H12zM14,40H15V41H14zM16,40H17V41H16zM17,40H18V41H17zM20,40H21V41H20zM21,40H22V41H21zM22,40H23V41H22zM23,40H24V41H23zM24,40H25V41H24zM25,40H26V41H25zM26,40H27V41H26zM27,40H28V41H27zM30,40H31V41H30zM34,40H35V41H34zM35,40H36V41H35zM36,40H37V41H36zM37,40H38V41H37zM39,40H40V41H39zM40,40H41V41H40zM41,40H42V41H41zM42,40H43V41H42zM43,40H44V41H43zM44,40H45V41H44zM45,40H46V41H45zM46,40H47V41H46zM48,40H49V41H48zM8,41H9V42H8zM9,41H10V42H9zM11,41H12V42H11zM12,41H13V42H12zM13,41H14V42H13zM14,41H15V42H14zM15,41H16V42H15zM16,41H17V42H16zM17,41H18V42H17zM18,41H19V42H18zM19,41H20V42H19zM22,41H23V42H22zM26,41H27V42H26zM28,41H29V42H28zM29,41H30V42H29zM30,41H31V42H30zM31,41H32V42H31zM32,41H33V42H32zM34,41H35V42H34zM36,41H37V42H36zM38,41H39V42H38zM40,41H41V42H40zM44,41H45V42H44zM47,41H48V42H47zM48,41H49V42H48zM0,42H1V43H0zM1,42H2V43H1zM2,42H3V43H2zM3,42H4V43H3zM4,42H5V43H4zM5,42H6V43H5zM6,42H7V43H6zM9,42H10V43H9zM10,42H11V43H10zM11,42H12V43H11zM12,42H13V43H12zM13,42H14V43H13zM17,42H18V43H17zM19,42H20V43H19zM20,42H21V43H20zM21,42H22V43H21zM22,42H23V43H22zM24,42H25V43H24zM26,42H27V43H26zM27,42H28V43H27zM28,42H29V43H28zM30,42H31V43H30zM31,42H32V43H31zM34,42H35V43H34zM35,42H36V43H35zM36,42H37V43H36zM37,42H38V43H37zM38,42H39V43H38zM39,42H40V43H39zM40,42H41V43H40zM42,42H43V43H42zM44,42H45V43H44zM45,42H46V43H45zM46,42H47V43H46zM48,42H49V43H48zM0,43H1V44H0zM6,43H7V44H6zM9,43H10V44H9zM11,43H12V44H11zM12,43H13V44H12zM14,43H15V44H14zM15,43H16V44H15zM16,43H17V44H16zM20,43H21V44H20zM22,43H23V44H22zM26,43H27V44H26zM34,43H35V44H34zM36,43H37V44H36zM40,43H41V44H40zM44,43H45V44H44zM45,43H46V44H45zM0,44H1V45H0zM2,44H3V45H2zM3,44H4V45H3zM4,44H5V45H4zM6,44H7V45H6zM9,44H10V45H9zM10,44H11V45H10zM12,44H13V45H12zM15,44H16V45H15zM16,44H17V45H16zM18,44H19V45H18zM22,44H23V45H22zM23,44H24V45H23zM24,44H25V45H24zM25,44H26V45H25zM26,44H27V45H26zM27,44H28V45H27zM30,44H31V45H30zM33,44H34V45H33zM36,44H37V45H36zM38,44H39V45H38zM39,44H40V45H39zM40,44H41V45H40zM41,44H42V45H41zM42,44H43V45H42zM43,44H44V45H43zM44,44H45V45H44zM45,44H46V45H45zM46,44H47V45H46zM48,44H49V45H48zM0,45H1V46H0zM2,45H3V46H2zM3,45H4V46H3zM4,45H5V46H4zM6,45H7V46H6zM9,45H10V46H9zM14,45H15V46H14zM15,45H16V46H15zM17,45H18V46H17zM19,45H20V46H19zM21,45H22V46H21zM22,45H23V46H22zM26,45H27V46H26zM28,45H29V46H28zM29,45H30V46H29zM30,45H31V46H30zM32,45H33V46H32zM33,45H34V46H33zM34,45H35V46H34zM35,45H36V46H35zM36,45H37V46H36zM38,45H39V46H38zM39,45H40V46H39zM40,45H41V46H40zM42,45H43V46H42zM44,45H45V46H44zM46,45H47V46H46zM48,45H49V46H48zM0,46H1V47H0zM2,46H3V47H2zM3,46H4V47H3zM4,46H5V47H4zM6,46H7V47H6zM9,46H10V47H9zM10,46H11V47H10zM12,46H13V47H12zM13,46H14V47H13zM14,46H15V47H14zM16,46H17V47H16zM17,46H18V47H17zM18,46H19V47H18zM20,46H21V47H20zM21,46H22V47H21zM24,46H25V47H24zM25,46H26V47H25zM27,46H28V47H27zM29,46H30V47H29zM30,46H31V47H30zM35,46H36V47H35zM37,46H38V47H37zM39,46H40V47H39zM40,46H41V47H40zM41,46H42V47H41zM42,46H43V47H42zM48,46H49V47H48zM0,47H1V48H0zM6,47H7V48H6zM9,47H10V48H9zM14,47H15V48H14zM15,47H16V48H15zM19,47H20V48H19zM20,47H21V48H20zM23,47H24V48H23zM24,47H25V48H24zM29,47H30V48H29zM32,47H33V48H32zM38,47H39V48H38zM39,47H40V48H39zM40,47H41V48H40zM41,47H42V48H41zM42,47H43V48H42zM43,47H44V48H43zM48,47H49V48H48zM0,48H1V49H0zM1,48H2V49H1zM2,48H3V49H2zM3,48H4V49H3zM4,48H5V49H4zM5,48H6V49H5zM6,48H7V49H6zM8,48H9V49H8zM10,48H11V49H10zM12,48H13V49H12zM16,48H17V49H16zM19,48H20V49H19zM22,48H23V49H22zM23,48H24V49H23zM24,48H25V49H24zM26,48H27V49H26zM29,48H30V49H29zM31,48H32V49H31zM32,48H33V49H32zM33,48H34V49H33zM35,48H36V49H35zM36,48H37V49H36zM39,48H40V49H39zM45,48H46V49H45zM46,48H47V49H46zM48,48H49V49H48z" style="fill:#000000;fill-opacity:1;fill-rule:nonzero;stroke:none" transform="translate(237.40157,61) scale(3.311907346938775)" /><g id="swiss-cross" transform="translate(305.4890105263158,129.0874405263158) scale(1.305428947368421)"><polygon fill="black" points="18.3,0.7 1.6,0.7 0.7,0.7 0.7,1.6 0.7,18.3 0.7,19.1 1.6,19.1 18.3,19.1 19.1,19.1 19.1,18.3 19.1,1.6 19.1,0.7" /><rect fill="white" height="11" width="3.3" x="8.3" y="4" /><rect fill="white" height="3.3" width="11" x="4.4" y="7.9" /><polygon fill="none" points="0.7,1.6 0.7,18.3 0.7,19.1 1.6,19.1 18.3,19.1 19.1,19.1 19.1,18.3 19.1,1.6 19.1,0.7 18.3,0.7 1.6,0.7 0.7,0.7" stroke="white" stroke-width="1.4357" /></g><text font-family="Arial,Helvetica" font-size="9" font-weight="bold" x="237.40157" y="258.66141">Currency</text><text font-family="Arial,Helvetica" font-size="9" font-weight="bold" x="279.92125" y="258.66141">Amount</text><text font-family="Arial,Helvetica" font-size="10" x="237.40157" y="276.37795">CHF</text><text font-family="Arial,Helvetica" font-size="10" x="279.92125" y="276.37795">22.10</text><text font-family="Arial,Helvetica" font-size="9" font-weight="bold" x="418.11023" y="38.97638">Account / Payable to</text><text font-family="Arial,Helvetica" font-size="10" x="418.11023" y="51.37795">CH58 0079 1123 0008 8901 2</text><text font-family="Arial,Helvetica" font-size="10" x="418.11023" y="63.77953">Jane</text><text font-family="Arial,Helvetica" font-size="10" x="418.11023" y="76.1811">CH-1000 Lausanne</text><text font-family="Arial,Helvetica" font-size="9" font-weight="bold" x="418.11023" y="99.2126">Additional information</text><text font-family="Arial,Helvetica" font-size="10" x="418.11023" y="111.61417">test swiss code</text><text font-family="Arial,Helvetica" font-size="9" font-weight="bold" x="418.11023" y="134.64567">Payable by (name/address)</text><g><line stroke="black" stroke-linecap="square" stroke-width="0.26mm" x1="418.11023" x2="418.11023" y1="147.04724" y2="154.13385" /><line stroke="black" stroke-linecap="square" stroke-width="0.26mm" x1="418.11023" x2="428.74015" y1="147.04724" y2="147.04724" /><line stroke="black" stroke-linecap="square" stroke-width="0.26mm" x1="418.11023" x2="418.11023" y1="235.62991" y2="228.5433" /><line stroke="black" stroke-linecap="square" stroke-width="0.26mm" x1="418.11023" x2="428.74015" y1="235.62991" y2="235.62991" /><line stroke="black" stroke-linecap="square" stroke-width="0.26mm" x1="637.79526" x2="648.42518" y1="147.04724" y2="147.04724" /><line stroke="black" stroke-linecap="square" stroke-width="0.26mm" x1="648.42518" x2="648.42518" y1="147.04724" y2="154.13385" /><line stroke="black" stroke-linecap="square" stroke-width="0.26mm" x1="637.79526" x2="648.42518" y1="235.62991" y2="235.62991" /><line stroke="black" stroke-linecap="square" stroke-width="0.26mm" x1="648.42518" x2="648.42518" y1="235.62991" y2="228.5433" /></g></g></svg>